<?xml version="1.0" encoding="utf-8"?>
<!-- Generator: Adobe Illustrator 15.0.0, SVG Export Plug-In . SVG Version: 6.00 Build 0)  -->
<!DOCTYPE svg PUBLIC "-//W3C//DTD SVG 1.1//EN" "http://www.w3.org/Graphics/SVG/1.1/DTD/svg11.dtd">
<svg version="1.1" id="Layer_1" xmlns="http://www.w3.org/2000/svg" xmlns:xlink="http://www.w3.org/1999/xlink" x="0px" y="0px"
	 width="800px" height="480px" viewBox="0 0 800 480" enable-background="new 0 0 800 480" xml:space="preserve">
<g>
	<path fill="#AFEAF1" d="M0,480V0h800v480H0"/>
	<path fill="#EAF5FA" d="M0,367.5V211.6c3.567-1.799,7.55-2.699,11.95-2.699c4.333,0,8.3,0.883,11.9,2.65
		c8.467-3.768,17.767-5.65,27.9-5.65h1.3c0.933-4.5,3.25-8.467,6.95-11.9c4.967-4.633,10.983-6.949,18.05-6.949
		c5.066,0,9.583,1.184,13.55,3.549c1.934-2.398,4.083-4.699,6.449-6.898c5.533-5.168,11.566-9.201,18.101-12.102
		c0.366-2,1-3.883,1.899-5.648c-1.232-2.5-1.967-5.168-2.199-8l-0.101-2l0.05-1.051c0.234-6.133,2.7-11.383,7.4-15.75
		c5-4.633,11.017-6.949,18.05-6.949l5.55,0.549c3.167-6.566,7.7-12.582,13.601-18.049c12.733-11.867,28.134-17.801,46.2-17.801
		c10.467,0,20.05,2,28.75,6c3.934-2.334,8.416-3.5,13.449-3.5c7.066,0,13.084,2.316,18.051,6.949
		c4.5,4.168,6.982,9.117,7.449,14.852l6.75-0.801c7.066,0,13.084,2.316,18.051,6.949c2.467,2.268,4.316,4.783,5.55,7.551
		c17.966,0.033,33.316,5.967,46.05,17.801c4.066,3.799,7.483,7.85,10.25,12.148l0.5-0.5c4.967-4.633,10.983-6.949,18.05-6.949
		s13.084,2.316,18.05,6.949c3.367,3.135,5.601,6.701,6.7,10.701l4.5-0.15c4.767,0,9.351,0.416,13.75,1.25
		c1-4.434,3.317-8.334,6.95-11.699c4.967-4.635,10.983-6.951,18.05-6.951c5.934,0,11.117,1.617,15.55,4.85
		c8.667-7.332,18.518-12.049,29.551-14.148c1.1-4.068,3.35-7.684,6.75-10.852c4.966-4.633,10.982-6.949,18.05-6.949
		c7.066,0,13.083,2.316,18.05,6.949c3.134,2.9,5.283,6.201,6.45,9.9l4.5-0.35c7.033,0,13.05,2.316,18.05,6.949
		c4.767,4.434,7.25,9.75,7.45,15.951v0.85v0.551l-0.05,1.6l-0.051,0.4h0.051c3.366-1.533,7.066-2.301,11.1-2.301
		c7.066,0,13.083,2.316,18.05,6.949l0.75,0.75l10.2-0.699c17.233,0,32.033,5.383,44.4,16.15l2.05-2.201
		c5-4.633,11.033-6.949,18.1-6.949c7.067,0,13.084,2.316,18.05,6.949c2.767,2.568,4.767,5.451,6,8.65
		c4.967-1.967,10.217-3.299,15.75-4c0.967-6.434,3.867-12.066,8.7-16.9c3.467-3.467,7.334-5.932,11.601-7.398
		c3.199-1.102,6.616-1.65,10.25-1.65c8.533,0,15.816,3.016,21.85,9.049c1.467,1.467,2.767,3.018,3.9,4.65
		c7.033,0.701,13.149,3.65,18.35,8.85c5.833,5.834,8.85,12.852,9.05,21.051v231.15h-0.05v-77.75h-16.9l-11,19.199l-18-5.1
		L742.5,329.55l-16.75-9l-12.85-75.201h-16.05L675,338.551l-10.95,3.199l-18.35,82.951h-23.25l-5.35-24.451l-8.351-3.85l-7.7-28.9
		H576l-18.649,32.15h-12.25l-22.5,42.4H500.75l-7.7-22.5l-47.6-23.801l-2.55-34.699l-10.95-4.5L420.4,210h-12.2l-16.75,75.2
		l-10.25,7.699L371.55,345h-7.75l-23.75,86.75L312.4,427.9l-22.5-39.85h-10.3l-20.551-87.452H222.4l-14.75,54.651H196.7l-18,31.5
		l-18-5.1l-11.55-52.101l-16.75-9l-12.851-75.201H103.5l-21.85,93.202L70.7,341.75l-18.35,82.951H29.1l-5.35-24.451l-8.35-3.85
		l-7.7-28.9H0"/>
	<path fill="#C5E5EF" d="M0,367.5h7.7l7.7,28.9l8.35,3.85l5.35,24.451h23.25L70.7,341.75l10.95-3.199l21.85-93.202h16.05
		L132.4,320.55l16.75,9l11.55,52.101l18,5.1l18-31.5h10.95l14.75-54.651h36.649l20.551,87.452h10.3l22.5,39.85l27.649,3.85
		L363.8,345h7.75l9.65-52.101l10.25-7.699L408.2,210h12.2l11.55,146.551l10.95,4.5l2.55,34.699l47.6,23.801l7.7,22.5h21.851
		l22.5-42.4h12.25L576,367.5h25.05l7.7,28.9l8.351,3.85l5.35,24.451h23.25l18.35-82.951l10.95-3.199l21.851-93.202h16.05
		l12.85,75.201l16.75,9l11.55,52.101l18,5.1l11-19.199h16.9v77.75V480H0V367.5"/>
</g>
</svg>
