<?xml version="1.0" encoding="utf-8"?>
<!-- Generator: Adobe Illustrator 15.0.0, SVG Export Plug-In . SVG Version: 6.00 Build 0)  -->
<!DOCTYPE svg PUBLIC "-//W3C//DTD SVG 1.1//EN" "http://www.w3.org/Graphics/SVG/1.1/DTD/svg11.dtd">
<svg version="1.1" id="Layer_3" xmlns="http://www.w3.org/2000/svg" xmlns:xlink="http://www.w3.org/1999/xlink" x="0px" y="0px"
	 width="65px" height="35px" viewBox="0 0 65 35" enable-background="new 0 0 65 35" xml:space="preserve">
<g>
	<g opacity="0.4">
		<g>
			<defs>
				<rect id="SVGID_1_" y="31.889" width="65.046" height="3.111"/>
			</defs>
			<clipPath id="SVGID_2_">
				<use xlink:href="#SVGID_1_"  overflow="visible"/>
			</clipPath>
			<path clip-path="url(#SVGID_2_)" fill="#1C1419" d="M0,33.444C0,34.304,14.561,35,32.522,35s32.523-0.696,32.523-1.556
				s-14.562-1.556-32.523-1.556S0,32.585,0,33.444"/>
		</g>
	</g>
	<path fill="#FFBF00" d="M43.113,20.14l-5.778-6.113c0,0-4.887-0.309-8.46-0.295c-4.591,0.016-10.801,0.253-13.628,1.424
		c-3.686,1.524-8.034,5.786-8.034,5.786"/>
	<polyline fill="#454C53" points="42.197,20.218 37.113,14.947 26.332,14.947 29.179,20.72 	"/>
	<path fill="#454C53" d="M27.349,20.343l-2.44-5.289c0,0-5.594,0.203-7.628,0.813c0,0-3.458,3.764-0.407,4.679
		C19.925,21.462,27.349,20.343,27.349,20.343"/>
	<path fill="#23262A" d="M57.99,28.412c0-2.928-2.246-5.301-5.018-5.301c-2.771,0-5.017,2.373-5.017,5.301s2.246,5.301,5.017,5.301
		C55.744,33.713,57.99,31.34,57.99,28.412"/>
	<path fill="#E19004" d="M60.622,20.099c1.238-0.002,2.012,0.98,1.717,2.184l-1.289,5.278c-0.295,1.203-1.548,2.187-2.787,2.187
		h-33.14c-1.239,0-3.25-0.175-4.47-0.391c0,0-1.428-0.252-1.965-2.397c-0.536-2.145-1.149-4.605-1.149-4.605
		c-0.3-1.2,0.469-2.188,1.708-2.189L60.622,20.099z"/>
	<path fill="#23262A" d="M32.174,28.412c0-2.928-2.247-5.301-5.019-5.301c-2.77,0-5.017,2.373-5.017,5.301s2.247,5.301,5.017,5.301
		C29.928,33.713,32.174,31.34,32.174,28.412"/>
	<path fill="#FFBF00" d="M45.821,20.1c1.238-0.002,2.086,0.995,1.881,2.216l-0.867,5.211c-0.203,1.222-1.384,2.221-2.622,2.221
		h-33.89c-1.239,0-3.25-0.175-4.471-0.391c0,0-1.428-0.252-1.964-2.397c-0.536-2.145-0.982-4.542-0.982-4.542
		c-0.227-1.219,0.602-2.217,1.84-2.22L45.821,20.1z"/>
	<path fill="#23262A" d="M61.668,22.347c0.354,0,0.585,0.284,0.515,0.631l-0.66,3.244c-0.069,0.346-0.418,0.63-0.771,0.63H47.645
		c-0.353,0-0.595-0.285-0.538-0.634l0.538-3.234c0.058-0.351,0.394-0.637,0.748-0.637H61.668z"/>
	<path fill="#FFFFFF" d="M43.141,27.227c0,0.148,0.12,0.27,0.269,0.27h17.802c0.147,0,0.268-0.121,0.268-0.27v-0.105
		c0-0.149-0.12-0.27-0.268-0.27H43.409c-0.148,0-0.269,0.12-0.269,0.27V27.227z"/>
	<polygon fill="#454C53" points="30.485,26.53 31.138,20.096 33.309,20.096 31.88,27.816 4.075,27.764 3.78,26.986 	"/>
	<path fill="#23262A" d="M44.723,27.951c0-3.182-2.442-5.76-5.454-5.76s-5.454,2.578-5.454,5.76c0,3.183,2.442,5.762,5.454,5.762
		S44.723,31.134,44.723,27.951"/>
	<path fill="#FFFFFF" d="M42.531,27.951c0-1.902-1.461-3.446-3.263-3.446c-1.801,0-3.262,1.544-3.262,3.446
		c0,1.903,1.461,3.446,3.262,3.446C41.07,31.397,42.531,29.854,42.531,27.951"/>
	<path fill="#B0ADA7" d="M41.222,27.951c0-1.139-0.874-2.063-1.953-2.063c-1.08,0-1.953,0.925-1.953,2.063
		c0,1.14,0.873,2.064,1.953,2.064C40.348,30.016,41.222,29.091,41.222,27.951"/>
	<path fill="#23262A" d="M19.548,27.951c0-3.182-2.441-5.76-5.454-5.76c-3.012,0-5.454,2.578-5.454,5.76
		c0,3.183,2.442,5.762,5.454,5.762C17.107,33.713,19.548,31.134,19.548,27.951"/>
	<path fill="#FFFFFF" d="M17.357,27.951c0-1.902-1.46-3.446-3.262-3.446s-3.262,1.544-3.262,3.446c0,1.903,1.46,3.446,3.262,3.446
		S17.357,29.854,17.357,27.951"/>
	<path fill="#B0ADA7" d="M15.284,29.589c0.464-0.377,0.764-0.971,0.764-1.638c0-1.139-0.874-2.063-1.953-2.063
		c-1.078,0-1.953,0.925-1.953,2.063c0,1.14,0.875,2.064,1.953,2.064C14.542,30.016,14.955,29.855,15.284,29.589"/>
	<path fill="#B0ADA7" d="M61.827,24.957c0.242-1.223-0.396-2.381-1.427-2.586c-1.031-0.205-2.065,0.622-2.309,1.845
		c-0.242,1.225,0.396,2.382,1.428,2.586C60.551,27.007,61.585,26.181,61.827,24.957"/>
	<path fill="#FFFFFF" d="M61.334,24.858c0.178-0.899-0.292-1.751-1.051-1.9c-0.759-0.151-1.519,0.456-1.695,1.356
		c-0.181,0.9,0.29,1.752,1.05,1.901C60.395,26.366,61.155,25.761,61.334,24.858"/>
	<path fill="#B0ADA7" d="M51.209,24.957c0.244-1.223-0.396-2.381-1.427-2.586s-2.063,0.622-2.308,1.845
		c-0.243,1.225,0.396,2.382,1.428,2.586C49.933,27.007,50.967,26.181,51.209,24.957"/>
	<path fill="#FFFFFF" d="M50.716,24.858c0.179-0.899-0.292-1.751-1.051-1.9c-0.759-0.151-1.518,0.456-1.695,1.356
		c-0.179,0.9,0.29,1.752,1.05,1.901C49.779,26.366,50.537,25.761,50.716,24.858"/>
	<path fill="#FFFFFF" d="M47.645,22.079c0,0.147,0.12,0.268,0.27,0.268h14.263c0.147,0,0.268-0.12,0.268-0.268v-0.106
		c0-0.148-0.12-0.269-0.268-0.269H47.914c-0.149,0-0.27,0.12-0.27,0.269V22.079z"/>
	<path fill="#FFFFFF" d="M55.125,24.477c-0.004,0.377,0.119,0.685,0.275,0.686c0.155,0.002,0.283-0.303,0.288-0.681
		c0.004-0.377-0.118-0.685-0.274-0.686C55.258,23.793,55.129,24.099,55.125,24.477"/>
</g>
</svg>
