<?xml version="1.0" encoding="utf-8"?>
<!-- Generator: Adobe Illustrator 15.0.0, SVG Export Plug-In . SVG Version: 6.00 Build 0)  -->
<!DOCTYPE svg PUBLIC "-//W3C//DTD SVG 1.1//EN" "http://www.w3.org/Graphics/SVG/1.1/DTD/svg11.dtd">
<svg version="1.1" id="Layer_2" xmlns="http://www.w3.org/2000/svg" xmlns:xlink="http://www.w3.org/1999/xlink" x="0px" y="0px"
	 width="65px" height="35px" viewBox="0 0 65 35" enable-background="new 0 0 65 35" xml:space="preserve">
<g>
	<g opacity="0.4">
		<g>
			<defs>
				<rect id="SVGID_1_" y="31.889" width="65.059" height="3.111"/>
			</defs>
			<clipPath id="SVGID_2_">
				<use xlink:href="#SVGID_1_"  overflow="visible"/>
			</clipPath>
			<path clip-path="url(#SVGID_2_)" fill="#1C1419" d="M0,33.445C0,34.304,14.563,35,32.529,35c17.965,0,32.529-0.696,32.529-1.555
				c0-0.86-14.564-1.557-32.529-1.557C14.563,31.889,0,32.585,0,33.445"/>
		</g>
	</g>
	<path fill="#00A5A3" d="M45.94,15.373l-1.589-6.355c-0.602-2.405-3.11-4.577-5.575-4.83l-3.612-0.37
		c-2.466-0.253-6.488-0.16-8.938,0.208L20.79,4.839c-2.451,0.366-4.938,2.635-5.527,5.042l-1.396,5.708"/>
	<path fill="#23262A" d="M59.078,28.09c0-2.928-2.246-5.302-5.019-5.302s-5.019,2.374-5.019,5.302c0,2.929,2.246,5.302,5.019,5.302
		S59.078,31.019,59.078,28.09"/>
	<path fill="#00A5A3" d="M59.907,17.678c0.876-0.113,1.585,0.52,1.585,1.404v8.09c0,0.886-0.703,1.745-1.589,1.745H45.189
		c-0.885,0-1.718-0.859-1.718-1.745v-5.789c0-0.885,0.768-1.701,1.644-1.814L59.907,17.678z"/>
	<path fill="#B0ADA7" d="M62.098,19.272c0.007-1.385-0.715-2.51-1.613-2.515c-0.898-0.005-1.634,1.113-1.643,2.498
		c-0.008,1.384,0.715,2.511,1.614,2.516C61.354,21.775,62.09,20.657,62.098,19.272"/>
	<path fill="#FFFFFF" d="M61.668,19.27c0.004-1.018-0.526-1.847-1.188-1.85c-0.661-0.004-1.202,0.818-1.208,1.837
		c-0.006,1.019,0.526,1.848,1.188,1.851C61.121,21.111,61.66,20.288,61.668,19.27"/>
	<path fill="#23262A" d="M29.715,28.09c0-2.928-2.247-5.302-5.019-5.302c-2.771,0-5.018,2.374-5.018,5.302
		c0,2.929,2.248,5.302,5.018,5.302C27.469,33.392,29.715,31.019,29.715,28.09"/>
	<path fill="#0DD1C8" d="M5.607,27.63c0,0.711,0.576,1.287,1.287,1.287h48.271c0.71,0,1.177-0.712,1.177-1.422v-8.538
		c0-2.597-1.39-3.556-3.12-3.556H13.886C5.393,15.401,5.607,27.63,5.607,27.63"/>
	<path fill="#FFFFFF" d="M18.047,28.596c0,0.177,0.144,0.321,0.322,0.321h16.09c0.178,0,0.321-0.145,0.321-0.321
		c0-0.179-0.144-0.323-0.321-0.323H18.37C18.191,28.272,18.047,28.417,18.047,28.596"/>
	<path fill="#00A5A3" d="M4.649,28.781c-0.885,0-1.644-0.343-1.688-0.762v-0.39c0-4.79,3.882-8.673,8.672-8.673
		c4.789,0,8.672,3.883,8.672,8.673v0.39c-0.044,0.419-0.803,0.762-1.688,0.762H4.649z"/>
	<path fill="#00A5A3" d="M48.969,17.708c0.877-0.13,1.581,0.489,1.581,1.374v8.091c0,0.885-0.702,1.744-1.587,1.744H32.639
		c-0.885,0-1.349-0.743-1.032-1.569l2.279-5.963c0.315-0.825,1.287-1.625,2.163-1.753L48.969,17.708z"/>
	<path fill="#23262A" d="M47.094,27.63c0-3.184-2.443-5.763-5.455-5.763s-5.454,2.579-5.454,5.763c0,3.182,2.442,5.762,5.454,5.762
		S47.094,30.812,47.094,27.63"/>
	<path fill="#FFFFFF" d="M44.902,27.63c0-1.904-1.462-3.448-3.264-3.448s-3.262,1.544-3.262,3.448c0,1.903,1.46,3.446,3.262,3.446
		S44.902,29.533,44.902,27.63"/>
	<path fill="#B0ADA7" d="M43.592,27.63c0-1.141-0.874-2.063-1.953-2.063s-1.953,0.923-1.953,2.063c0,1.14,0.874,2.063,1.953,2.063
		S43.592,28.77,43.592,27.63"/>
	<path fill="#B0ADA7" d="M51.799,19.272c0.008-1.385-0.715-2.51-1.613-2.515c-0.899-0.005-1.634,1.113-1.641,2.498
		c-0.008,1.384,0.713,2.511,1.611,2.516C51.056,21.775,51.791,20.657,51.799,19.272"/>
	<path fill="#FFFFFF" d="M51.369,19.27c0.006-1.018-0.526-1.847-1.186-1.85c-0.662-0.004-1.204,0.818-1.208,1.837
		c-0.007,1.019,0.523,1.848,1.186,1.851C50.822,21.111,51.362,20.288,51.369,19.27"/>
	<path fill="#23262A" d="M17.088,27.63c0-3.184-2.442-5.763-5.455-5.763c-3.013,0-5.455,2.579-5.455,5.763
		c0,3.182,2.442,5.762,5.455,5.762C14.646,33.392,17.088,30.812,17.088,27.63"/>
	<path fill="#FFFFFF" d="M14.896,27.63c0-1.904-1.46-3.448-3.263-3.448c-1.802,0-3.263,1.544-3.263,3.448
		c0,1.903,1.461,3.446,3.263,3.446C13.435,31.076,14.896,29.533,14.896,27.63"/>
	<path fill="#B0ADA7" d="M13.586,27.63c0-1.141-0.874-2.063-1.953-2.063c-1.079,0-1.954,0.923-1.954,2.063
		c0,1.14,0.875,2.063,1.954,2.063C12.712,29.693,13.586,28.77,13.586,27.63"/>
	<path fill="#FFFFFF" d="M46.366,28.272c0,0.355,0.289,0.645,0.646,0.645H61.17c0.354,0,0.644-0.289,0.644-0.645v-1.608
		c0-0.354-0.289-0.644-0.644-0.644H47.012c-0.356,0-0.646,0.289-0.646,0.644V28.272z"/>
	<path fill="#454C53" d="M44.221,12.579c0.178,0.866-0.399,1.536-1.284,1.536h-9.976c-0.885,0-1.474-0.672-1.31-1.542l0.903-4.755
		c0.165-0.87,1.023-1.611,1.906-1.66l4.617-0.248c0.885-0.048,2.164,0.377,2.842,0.944l0.104,0.087
		c0.68,0.566,1.383,1.72,1.561,2.587L44.221,12.579z"/>
	<path fill="#454C53" d="M28.105,6.811c0.882-0.069,1.72,0.588,1.861,1.462l0.7,4.292c0.141,0.874-0.467,1.549-1.353,1.549h-3.433
		c-0.885,0-1.719-0.645-1.719-1.531V8.723c0-0.885,0.777-1.667,1.659-1.736L28.105,6.811z"/>
	<path fill="#454C53" d="M19.297,7.438c-0.882,0.074-1.727,0.848-1.877,1.719l-0.597,3.412c-0.151,0.872,0.45,1.546,1.334,1.546
		h3.433c0.884,0,1.607-0.645,1.607-1.531V8.723c0-0.885-0.721-1.55-1.603-1.476L19.297,7.438z"/>
	<path fill="#FFFFFF" d="M48.619,23.124c0,0.178,0.146,0.321,0.323,0.321h11.262c0.178,0,0.323-0.144,0.323-0.321
		c0-0.177-0.146-0.321-0.323-0.321H48.942C48.765,22.803,48.619,22.947,48.619,23.124"/>
	<path fill="#FFFFFF" d="M52.48,21.515c0,0.179,0.146,0.322,0.321,0.322h4.828c0.179,0,0.321-0.144,0.321-0.322
		c0-0.177-0.143-0.321-0.321-0.321h-4.828C52.626,21.193,52.48,21.338,52.48,21.515"/>
	<path fill="#FFFFFF" d="M48.619,24.733c0,0.178,0.146,0.321,0.323,0.321h11.262c0.178,0,0.323-0.144,0.323-0.321
		s-0.146-0.322-0.323-0.322H48.942C48.765,24.411,48.619,24.556,48.619,24.733"/>
	<path fill="#FFFFFF" d="M15.473,16.688c0,0.178,0.144,0.322,0.322,0.322h13.838c0.177,0,0.321-0.145,0.321-0.322
		c0-0.177-0.144-0.322-0.321-0.322H15.795C15.617,16.366,15.473,16.511,15.473,16.688"/>
	<path fill="#FFFFFF" d="M26.737,18.297c0,0.177,0.144,0.321,0.321,0.321h2.253c0.178,0,0.322-0.144,0.322-0.321
		c0-0.177-0.144-0.322-0.322-0.322h-2.253C26.88,17.976,26.737,18.12,26.737,18.297"/>
	<path fill="#FFFFFF" d="M15.795,18.297c0,0.177,0.144,0.321,0.321,0.321h2.253c0.178,0,0.322-0.144,0.322-0.321
		c0-0.177-0.144-0.322-0.322-0.322h-2.253C15.939,17.976,15.795,18.12,15.795,18.297"/>
</g>
</svg>
