<?xml version="1.0" encoding="utf-8"?>
<!-- Generator: Adobe Illustrator 15.0.0, SVG Export Plug-In . SVG Version: 6.00 Build 0)  -->
<!DOCTYPE svg PUBLIC "-//W3C//DTD SVG 1.1//EN" "http://www.w3.org/Graphics/SVG/1.1/DTD/svg11.dtd">
<svg version="1.1" id="Layer_2" xmlns="http://www.w3.org/2000/svg" xmlns:xlink="http://www.w3.org/1999/xlink" x="0px" y="0px"
	 width="65px" height="35px" viewBox="0 0 65 35" enable-background="new 0 0 65 35" xml:space="preserve">
<g>
	<g opacity="0.4">
		<g>
			<defs>
				<rect id="SVGID_1_" y="31.901" width="64.799" height="3.099"/>
			</defs>
			<clipPath id="SVGID_2_">
				<use xlink:href="#SVGID_1_"  overflow="visible"/>
			</clipPath>
			<path clip-path="url(#SVGID_2_)" fill="#1C1419" d="M0,33.451C0,34.307,14.506,35,32.399,35s32.399-0.693,32.399-1.549
				c0-0.856-14.506-1.55-32.399-1.55S0,32.595,0,33.451"/>
		</g>
	</g>
	<polygon fill="#454C53" points="6.047,22.851 7.586,22.851 5.387,19.966 3.847,19.966 	"/>
	<polygon fill="#454C53" points="15.663,21.568 17.203,21.568 15.002,18.683 13.463,18.683 	"/>
	<path fill="#DF2000" d="M2.224,19.986c0.036,0.404,0.393,0.703,0.798,0.668l13.509-1.318c0.405-0.036,0.704-0.394,0.668-0.798
		l-0.004-0.035c-0.036-0.405-0.393-0.703-0.798-0.668L2.888,19.152c-0.405,0.037-0.704,0.394-0.667,0.799L2.224,19.986z"/>
	<path fill="#FF4A39" d="M49.868,21.493l-8.905-5.808c0,0-4.114-0.523-7.317-0.512c-4.115,0.015-9.681,0.227-12.215,1.276
		c-1.646,0.681-3.438,1.969-4.823,3.091c-1.396,1.132-2.379,2.096-2.379,2.096"/>
	<polyline fill="#23262A" points="49.048,21.652 41.03,16.44 31.367,16.44 33.919,21.57 	"/>
	<path fill="#23262A" d="M32.278,21.099l-2.188-4.74c0,0-5.014,0.182-6.837,0.729l-2.853,4.549L32.278,21.099z"/>
	<path fill="#23262A" d="M55.716,28.116c0-2.915-2.238-5.28-4.997-5.28c-2.762,0-5,2.365-5,5.28c0,2.918,2.238,5.281,5,5.281
		C53.478,33.397,55.716,31.034,55.716,28.116"/>
	<path fill="#23262A" d="M28.073,28.116c0-2.915-2.238-5.28-4.999-5.28c-2.76,0-4.999,2.365-4.999,5.28
		c0,2.918,2.238,5.281,4.999,5.281C25.835,33.397,28.073,31.034,28.073,28.116"/>
	<path fill="#DF2000" d="M45.304,19.9c0.881-0.039,2.272,0.194,3.092,0.519l13.044,5.129c0.82,0.322,1.32,1.287,1.109,2.144
		l-0.519,2.19c-0.21,0.854-1.103,1.622-1.985,1.622H18.484c-0.881,0-2.313-0.191-3.181-0.345c0,0-2.055-0.397-2.588-2.533
		c-0.535-2.138-0.991-5.664-0.991-5.664c-0.113-0.874,0.515-1.629,1.395-1.666L45.304,19.9z"/>
	<path fill="#FF4A39" d="M34.724,19.836c0.882-0.003,2.262,0.288,3.066,0.649l11.178,4.995c0.805,0.359,1.291,1.354,1.081,2.211
		l-0.52,2.19c-0.21,0.854-1.103,1.622-1.983,1.622H7.907c-0.881,0-2.313-0.191-3.181-0.345c0,0-2.054-0.397-2.588-2.533
		c-0.535-2.138-0.24-5.686-0.24-5.686c0.074-0.878,0.852-1.674,1.729-1.756l11.981-1.14c0.877-0.083,2.316-0.155,3.198-0.158
		L34.724,19.836z"/>
	<path fill="#DF2000" d="M32.679,25.187c0,0-5.115,0.737-8.392-0.929c-5.675-2.885-11.656-2.255-13.686-2.255l2.755,8.54h21.288"/>
	<path fill="#23262A" d="M42.498,27.657c0-3.169-2.434-5.738-5.434-5.738c-3.001,0-5.433,2.569-5.433,5.738
		c0,3.17,2.432,5.74,5.433,5.74C40.064,33.397,42.498,30.827,42.498,27.657"/>
	<path fill="#FFFFFF" d="M40.313,27.657c0-1.896-1.454-3.433-3.249-3.433s-3.25,1.537-3.25,3.433c0,1.897,1.455,3.434,3.25,3.434
		S40.313,29.555,40.313,27.657"/>
	<path fill="#454C53" d="M39.01,27.657c0-1.135-0.87-2.055-1.945-2.055s-1.945,0.92-1.945,2.055c0,1.136,0.87,2.056,1.945,2.056
		S39.01,28.793,39.01,27.657"/>
	<path fill="#23262A" d="M15.495,27.657c0-3.169-2.432-5.738-5.433-5.738c-3.001,0-5.433,2.569-5.433,5.738
		c0,3.17,2.432,5.74,5.433,5.74C13.063,33.397,15.495,30.827,15.495,27.657"/>
	<path fill="#FFFFFF" d="M13.312,27.657c0-1.896-1.455-3.433-3.25-3.433s-3.25,1.537-3.25,3.433c0,1.897,1.455,3.434,3.25,3.434
		S13.312,29.555,13.312,27.657"/>
	<path fill="#454C53" d="M11.247,29.289c0.462-0.376,0.761-0.967,0.761-1.632c0-1.135-0.871-2.055-1.945-2.055
		c-1.074,0-1.946,0.92-1.946,2.055c0,1.136,0.872,2.056,1.946,2.056C10.508,29.713,10.919,29.556,11.247,29.289"/>
	<path fill="#DF2000" d="M49.181,31.371c-0.037-0.102-0.06-0.208-0.06-0.321c0-0.532,0.431-0.963,0.962-0.963h11.539
		c0.532,0,0.962,0.431,0.962,0.963c0,0.113-0.023,0.22-0.059,0.321H49.181z"/>
	<polygon fill="#23262A" points="51.179,26.376 46.61,24.132 49.575,24.132 54.144,26.376 	"/>
	<polygon fill="#23262A" points="58.869,26.376 54.303,24.132 56.788,24.132 61.837,26.376 	"/>
	<polygon fill="#23262A" points="16.561,30.543 17.522,30.543 19.125,27.657 18.164,27.657 	"/>
	<polygon fill="#23262A" points="14.958,30.543 15.92,30.543 17.522,27.657 16.561,27.657 	"/>
	<polygon fill="#23262A" points="13.356,30.543 14.318,30.543 15.92,27.657 14.958,27.657 	"/>
	<path fill="#DF2000" d="M27.271,21.568c0,0.353,0.287,0.641,0.641,0.641h3.526c0.354,0,0.642-0.288,0.642-0.641
		c0-0.354-0.288-0.642-0.642-0.642h-3.526C27.559,20.927,27.271,21.214,27.271,21.568"/>
</g>
</svg>
