<?xml version="1.0" encoding="utf-8"?>
<!-- Generator: Adobe Illustrator 15.0.0, SVG Export Plug-In . SVG Version: 6.00 Build 0)  -->
<!DOCTYPE svg PUBLIC "-//W3C//DTD SVG 1.1//EN" "http://www.w3.org/Graphics/SVG/1.1/DTD/svg11.dtd">
<svg version="1.1" id="Layer_3" xmlns="http://www.w3.org/2000/svg" xmlns:xlink="http://www.w3.org/1999/xlink" x="0px" y="0px"
	 width="65px" height="35px" viewBox="0 0 65 35" enable-background="new 0 0 65 35" xml:space="preserve">
<g>
	<g opacity="0.4">
		<g>
			<defs>
				<rect id="SVGID_1_" y="31.903" width="64.748" height="3.097"/>
			</defs>
			<clipPath id="SVGID_2_">
				<use xlink:href="#SVGID_1_"  overflow="visible"/>
			</clipPath>
			<path clip-path="url(#SVGID_2_)" fill="#1C1419" d="M0,33.451C0,34.307,14.494,35,32.374,35c17.878,0,32.374-0.693,32.374-1.549
				c0-0.854-14.496-1.548-32.374-1.548C14.494,31.903,0,32.597,0,33.451"/>
		</g>
	</g>
	<path fill="#FFFFFF" d="M50.63,13.999c0,0.397,0.322,0.721,0.72,0.721h1.762c0.397,0,0.72-0.323,0.72-0.721v-0.16
		c0-0.399-0.322-0.721-0.72-0.721H51.35c-0.397,0-0.72,0.322-0.72,0.721V13.999z"/>
	<path fill="#23262A" d="M57.405,28.256c0-2.913-2.236-5.276-4.995-5.276s-4.994,2.363-4.994,5.276c0,2.915,2.235,5.276,4.994,5.276
		S57.405,31.171,57.405,28.256"/>
	<path fill="#454C53" d="M28.257,28.945c0,0,9.989-1.923,18.875-7.515c1.51-0.95,3.204-1.7,5.125-1.7
		c4.735,0,8.574,3.84,8.574,8.574c0,0.216-0.011,0.428-0.026,0.641H28.257z"/>
	<path fill="#B0ADA7" d="M57.848,19.481c0.008-1.378-0.711-2.499-1.605-2.504c-0.896-0.006-1.626,1.108-1.634,2.484
		c-0.008,1.379,0.71,2.499,1.605,2.505C57.108,21.972,57.84,20.858,57.848,19.481"/>
	<path fill="#FFFFFF" d="M57.42,19.479c0.006-1.014-0.523-1.838-1.182-1.842c-0.658-0.003-1.196,0.814-1.202,1.828
		s0.523,1.839,1.182,1.842C56.876,21.312,57.413,20.492,57.42,19.479"/>
	<path fill="#454C53" d="M13.158,15.013V8.447c0-0.708,0.573-1.28,1.281-1.28h22.418c0.708,0,1.281,0.573,1.281,1.28v6.565H13.158z"
		/>
	<path fill="#4C2B06" d="M17.642,15.013h-4.484V8.447c0-0.708,0.573-1.28,1.281-1.28H28.21v0.854H17.642V15.013z"/>
	<rect x="17.642" y="7.673" fill="#23262A" width="10.568" height="6.085"/>
	<rect x="17.642" y="8.634" fill="#EBE7DE" width="6.726" height="3.202"/>
	<rect x="28.851" y="7.673" fill="#23262A" width="2.562" height="6.085"/>
	<rect x="31.413" y="7.673" fill="#EBE7DE" width="5.765" height="6.085"/>
	<path fill="#23262A" d="M27.57,7.353c0,0.177,0.143,0.32,0.32,0.32h10.249c0.177,0,0.32-0.143,0.32-0.32
		c0-0.177-0.144-0.32-0.32-0.32H27.89C27.713,7.032,27.57,7.176,27.57,7.353"/>
	<path fill="#23262A" d="M28.184,28.256c0-2.913-2.237-5.276-4.995-5.276c-2.758,0-4.994,2.363-4.994,5.276
		c0,2.915,2.236,5.276,4.994,5.276C25.947,33.532,28.184,31.171,28.184,28.256"/>
	<path fill="#454C53" d="M4.19,27.529c0,0.708,0.574,1.281,1.281,1.281h48.041c0.708,0,1.281-0.438,1.281-1.147V15.174
		c0-0.708-0.573-1.416-1.281-1.416H12.429C3.976,13.758,4.19,27.529,4.19,27.529"/>
	<path fill="#23262A" d="M45.806,23.395c0.069,0.14,0.238,0.195,0.376,0.127l0.071-0.036c0.14-0.069,0.195-0.237,0.127-0.376
		l-2.777-6.549c-0.07-0.139-0.237-0.194-0.375-0.126l-0.072,0.036c-0.139,0.068-0.195,0.237-0.127,0.375L45.806,23.395z"/>
	<path fill="#23262A" d="M44.525,23.395c0.068,0.14,0.236,0.195,0.375,0.127l0.072-0.036c0.138-0.069,0.194-0.237,0.127-0.376
		l-2.778-6.549c-0.068-0.139-0.237-0.194-0.376-0.126l-0.071,0.036c-0.14,0.068-0.194,0.237-0.126,0.375L44.525,23.395z"/>
	<path fill="#23262A" d="M43.244,23.395c0.068,0.14,0.237,0.195,0.375,0.127l0.072-0.036c0.139-0.069,0.195-0.237,0.127-0.376
		L41.04,16.56c-0.069-0.139-0.237-0.194-0.376-0.126l-0.071,0.036c-0.14,0.068-0.196,0.237-0.126,0.375L43.244,23.395z"/>
	<path fill="#23262A" d="M41.963,23.395c0.069,0.14,0.237,0.195,0.376,0.127l0.072-0.036c0.138-0.069,0.194-0.237,0.127-0.376
		l-2.779-6.549c-0.068-0.139-0.236-0.194-0.376-0.126l-0.071,0.036c-0.139,0.068-0.195,0.237-0.125,0.375L41.963,23.395z"/>
	<path fill="#23262A" d="M40.681,23.395c0.07,0.14,0.238,0.195,0.376,0.127l0.073-0.036c0.139-0.069,0.195-0.237,0.125-0.376
		l-2.777-6.549c-0.068-0.139-0.237-0.194-0.375-0.126L38.03,16.47c-0.139,0.068-0.195,0.237-0.126,0.375L40.681,23.395z"/>
	<path fill="#23262A" d="M39.4,23.395c0.07,0.14,0.236,0.195,0.376,0.127l0.073-0.036c0.137-0.069,0.194-0.237,0.125-0.376
		l-2.778-6.549c-0.067-0.139-0.236-0.194-0.375-0.126L36.75,16.47c-0.139,0.068-0.195,0.237-0.127,0.375L39.4,23.395z"/>
	<path fill="#23262A" d="M38.119,23.395c0.069,0.14,0.237,0.195,0.375,0.127l0.073-0.036c0.139-0.069,0.195-0.237,0.126-0.376
		l-2.777-6.549c-0.069-0.139-0.237-0.194-0.376-0.126l-0.071,0.036c-0.139,0.068-0.195,0.237-0.127,0.375L38.119,23.395z"/>
	<path fill="#23262A" d="M36.839,23.395c0.069,0.14,0.236,0.195,0.375,0.127l0.072-0.036c0.138-0.069,0.194-0.237,0.127-0.376
		l-2.778-6.549c-0.069-0.139-0.236-0.194-0.377-0.126l-0.07,0.036c-0.14,0.068-0.195,0.237-0.126,0.375L36.839,23.395z"/>
	<path fill="#23262A" d="M34.59,22.032c0-3.167-2.431-5.735-5.43-5.735c-2.998,0-5.428,2.568-5.428,5.735
		c0,3.168,2.431,5.735,5.428,5.735C32.159,27.768,34.59,25.2,34.59,22.032"/>
	<path fill="#FFFFFF" d="M32.407,22.032c0-1.894-1.454-3.43-3.247-3.43c-1.793,0-3.247,1.536-3.247,3.43
		c0,1.896,1.454,3.432,3.247,3.432C30.954,25.464,32.407,23.928,32.407,22.032"/>
	<path fill="#B0ADA7" d="M31.104,22.032c0-1.134-0.87-2.053-1.944-2.053c-1.074,0-1.944,0.919-1.944,2.053
		c0,1.136,0.87,2.055,1.944,2.055C30.234,24.087,31.104,23.168,31.104,22.032"/>
	<path fill="#34393E" d="M15.953,28.945c0,0,9.989-1.923,18.875-7.515c1.511-0.95,3.203-1.7,5.125-1.7
		c4.735,0,8.574,3.84,8.574,8.574c0,0.216-0.011,0.428-0.027,0.641H15.953z"/>
	<path fill="#34393E" d="M34.889,28.945c0,0-9.988-1.923-18.875-7.515c-1.51-0.95-3.203-1.7-5.125-1.7
		c-4.734,0-8.573,3.84-8.573,8.574c0,0.216,0.01,0.428,0.026,0.641H34.889z"/>
	<path fill="#23262A" d="M15.616,27.798c0-3.167-2.431-5.735-5.429-5.735c-2.999,0-5.429,2.568-5.429,5.735s2.43,5.734,5.429,5.734
		C13.185,33.532,15.616,30.965,15.616,27.798"/>
	<path fill="#FFFFFF" d="M13.434,27.798c0-1.894-1.454-3.431-3.247-3.431c-1.793,0-3.247,1.537-3.247,3.431
		c0,1.895,1.454,3.43,3.247,3.43C11.98,31.228,13.434,29.692,13.434,27.798"/>
	<path fill="#B0ADA7" d="M12.131,27.798c0-1.134-0.87-2.054-1.944-2.054c-1.074,0-1.944,0.92-1.944,2.054
		c0,1.135,0.87,2.055,1.944,2.055C11.261,29.853,12.131,28.933,12.131,27.798"/>
	<path fill="#23262A" d="M45.479,27.798c0-3.167-2.432-5.735-5.43-5.735c-2.997,0-5.429,2.568-5.429,5.735s2.432,5.734,5.429,5.734
		C43.047,33.532,45.479,30.965,45.479,27.798"/>
	<path fill="#FFFFFF" d="M43.297,27.798c0-1.894-1.454-3.431-3.248-3.431c-1.793,0-3.246,1.537-3.246,3.431
		c0,1.895,1.453,3.43,3.246,3.43C41.843,31.228,43.297,29.692,43.297,27.798"/>
	<path fill="#B0ADA7" d="M41.994,27.798c0-1.134-0.87-2.054-1.945-2.054c-1.073,0-1.942,0.92-1.942,2.054
		c0,1.135,0.869,2.055,1.942,2.055C41.124,29.853,41.994,28.933,41.994,27.798"/>
	<path fill="#23262A" d="M48.708,26.89c0,0.707,0.573,1.28,1.281,1.28h3.522c0.708,0,1.281-0.573,1.281-1.28V16.32
		c0-0.708-0.573-1.281-1.281-1.281h-3.522c-0.708,0-1.281,0.573-1.281,1.281V26.89z"/>
	<path fill="#B0ADA7" d="M50.161,19.481c0.008-1.378-0.712-2.499-1.606-2.504c-0.895-0.006-1.625,1.108-1.633,2.484
		c-0.008,1.379,0.71,2.499,1.605,2.505C49.422,21.972,50.153,20.858,50.161,19.481"/>
	<path fill="#FFFFFF" d="M49.733,19.479c0.006-1.014-0.523-1.838-1.183-1.842c-0.657-0.003-1.195,0.814-1.201,1.828
		s0.523,1.839,1.182,1.842C49.189,21.312,49.726,20.492,49.733,19.479"/>
	<path fill="#FFFFFF" d="M51.91,27.871c0,0.165,0.135,0.299,0.3,0.299h0.041c0.167,0,0.3-0.134,0.3-0.299V15.018
		c0-0.165-0.133-0.298-0.3-0.298H52.21c-0.165,0-0.3,0.134-0.3,0.298V27.871z"/>
	<path fill="#FFFFFF" d="M52.277,13.412l0.603-1.405l-1.304-0.501l1.542-0.02c0,0.001,0.419-0.333,0.713-0.262
		c0.259,0.063,0.48,0.32,0.253,0.683C53.6,12.685,52.277,13.412,52.277,13.412"/>
</g>
</svg>
