<?xml version="1.0" encoding="utf-8"?>
<!-- Generator: Adobe Illustrator 15.0.0, SVG Export Plug-In . SVG Version: 6.00 Build 0)  -->
<!DOCTYPE svg PUBLIC "-//W3C//DTD SVG 1.1//EN" "http://www.w3.org/Graphics/SVG/1.1/DTD/svg11.dtd">
<svg version="1.1" id="Layer_2" xmlns="http://www.w3.org/2000/svg" xmlns:xlink="http://www.w3.org/1999/xlink" x="0px" y="0px"
	 width="65px" height="35px" viewBox="0 0 65 35" enable-background="new 0 0 65 35" xml:space="preserve">
<g>
	<g opacity="0.4">
		<g>
			<defs>
				<rect id="SVGID_1_" y="31.89" width="64.953" height="3.11"/>
			</defs>
			<clipPath id="SVGID_2_">
				<use xlink:href="#SVGID_1_"  overflow="visible"/>
			</clipPath>
			<path clip-path="url(#SVGID_2_)" fill="#1C1419" d="M0,33.445C0,34.301,14.54,35,32.476,35c17.936,0,32.477-0.699,32.477-1.555
				c0-0.86-14.541-1.556-32.477-1.556C14.54,31.89,0,32.585,0,33.445"/>
		</g>
	</g>
	<path fill="#23262A" d="M30.023,28.42c0-2.924-2.244-5.295-5.011-5.295c-2.767,0-5.01,2.371-5.01,5.295
		c0,2.921,2.244,5.292,5.01,5.292C27.78,33.712,30.023,31.341,30.023,28.42"/>
	<path fill="#23262A" d="M59.337,28.42c0-2.924-2.242-5.295-5.009-5.295s-5.013,2.371-5.013,5.295c0,2.921,2.246,5.292,5.013,5.292
		S59.337,31.341,59.337,28.42"/>
	<path fill="#DF2000" d="M60.135,16.529c0.882,0.004,1.577,0.727,1.577,1.611v8.078c0,0.881-0.667,1.607-1.551,1.607H45.472
		c-0.884,0-1.75-0.727-1.75-1.607v-8.15c0-0.885,0.78-1.604,1.664-1.6L60.135,16.529z"/>
	<path fill="#FF4A39" d="M54.324,27.826V14.009c0-0.884-0.69-1.607-1.571-1.607H23.715c-0.883,0-1.668,0.723-1.744,1.604
		l-0.243,2.852c-0.076,0.88-0.86,1.652-1.744,1.652H5.736c-0.883,0-1.533,0.622-1.533,1.506v7.812c0,0.881,0.687,1.612,1.569,1.624
		l31.525,0.363c0.884,0.009,1.656-0.432,1.729-0.985c0.072-0.553,0.848-1.002,1.73-1.002H54.324z"/>
	<path fill="#DF2000" d="M47.604,16.529c0.884,0.004,1.578,0.727,1.578,1.611v10.005c0,0.885-0.666,1.607-1.551,1.607h-14.69
		c-0.883,0-1.75-0.723-1.75-1.607v-7.925c0-0.884,0.778-1.761,1.642-1.946l6.65-1.434c0.865-0.186,2.298-0.335,3.182-0.331
		L47.604,16.529z"/>
	<path fill="#B0ADA7" d="M61.389,19.615c0.008-1.381-0.715-2.504-1.611-2.512c-0.896-0.004-1.632,1.115-1.64,2.496
		c-0.009,1.382,0.713,2.505,1.611,2.509C60.646,22.115,61.381,20.996,61.389,19.615"/>
	<path fill="#FFFFFF" d="M60.958,19.615c0.007-1.018-0.524-1.846-1.185-1.85c-0.661-0.004-1.2,0.82-1.206,1.833
		c-0.006,1.019,0.525,1.847,1.186,1.851C60.411,21.453,60.952,20.629,60.958,19.615"/>
	<path fill="#B0ADA7" d="M48.857,19.615c0.008-1.381-0.713-2.504-1.61-2.512c-0.897-0.004-1.631,1.115-1.639,2.496
		c-0.009,1.382,0.713,2.505,1.611,2.509C48.115,22.115,48.85,20.996,48.857,19.615"/>
	<path fill="#FFFFFF" d="M48.428,19.615c0.008-1.018-0.524-1.846-1.184-1.85c-0.662-0.004-1.201,0.82-1.207,1.833
		c-0.006,1.019,0.524,1.847,1.186,1.851C47.883,21.453,48.423,20.629,48.428,19.615"/>
	<path fill="#DF2000" d="M4.572,29.673c-0.884,0-1.644-0.359-1.688-0.796v-0.412c0-5.017,4.068-9.084,9.086-9.084
		c5.019,0,9.086,4.067,9.086,9.084v0.412c-0.045,0.437-0.805,0.796-1.688,0.796H4.572z"/>
	<path fill="#23262A" d="M47.373,27.96c0-3.179-2.438-5.752-5.446-5.752s-5.446,2.573-5.446,5.752c0,3.175,2.438,5.752,5.446,5.752
		S47.373,31.135,47.373,27.96"/>
	<path fill="#FFFFFF" d="M45.185,27.96c0-1.902-1.458-3.441-3.258-3.441c-1.799,0-3.257,1.539-3.257,3.441
		c0,1.898,1.458,3.441,3.257,3.441C43.727,31.401,45.185,29.858,45.185,27.96"/>
	<path fill="#B0ADA7" d="M43.877,27.96c0-1.139-0.873-2.06-1.95-2.06s-1.949,0.921-1.949,2.06s0.872,2.06,1.949,2.06
		S43.877,29.099,43.877,27.96"/>
	<path fill="#23262A" d="M17.416,27.96c0-3.179-2.438-5.752-5.446-5.752s-5.446,2.573-5.446,5.752c0,3.175,2.438,5.752,5.446,5.752
		S17.416,31.135,17.416,27.96"/>
	<path fill="#FFFFFF" d="M15.227,27.96c0-1.902-1.458-3.441-3.257-3.441c-1.798,0-3.257,1.539-3.257,3.441
		c0,1.898,1.459,3.441,3.257,3.441C13.769,31.401,15.227,29.858,15.227,27.96"/>
	<path fill="#B0ADA7" d="M13.919,27.96c0-1.139-0.872-2.06-1.95-2.06c-1.076,0-1.951,0.921-1.951,2.06s0.875,2.06,1.951,2.06
		C13.047,30.02,13.919,29.099,13.919,27.96"/>
	<path fill="#FFFFFF" d="M46.612,29.111c0,0.352,0.288,0.642,0.643,0.642h14.138c0.354,0,0.643-0.29,0.643-0.642v-1.607
		c0-0.355-0.289-0.643-0.643-0.643H47.255c-0.354,0-0.643,0.287-0.643,0.643V29.111z"/>
	<path fill="#DF2000" d="M3.561,18.186c0,0.355,0.322,0.642,0.677,0.642h17.028c0.354,0,0.608-0.286,0.608-0.642v-0.643
		c0-0.355-0.253-0.642-0.608-0.642H4.238c-0.355,0-0.677,0.287-0.677,0.642V18.186z"/>
	<path fill="#FFFFFF" d="M49.183,25.896c0,0.178,0.146,0.323,0.321,0.323h8.031c0.178,0,0.323-0.146,0.323-0.323
		s-0.146-0.318-0.323-0.318h-8.031C49.328,25.577,49.183,25.718,49.183,25.896"/>
	<path fill="#FFFFFF" d="M49.183,24.288c0,0.182,0.146,0.323,0.321,0.323h8.031c0.178,0,0.323-0.142,0.323-0.323
		c0-0.178-0.146-0.318-0.323-0.318h-8.031C49.328,23.97,49.183,24.11,49.183,24.288"/>
	<path fill="#FFFFFF" d="M49.183,22.685c0,0.178,0.146,0.319,0.321,0.319h8.031c0.178,0,0.323-0.142,0.323-0.319
		s-0.146-0.323-0.323-0.323h-8.031C49.328,22.361,49.183,22.507,49.183,22.685"/>
	<path fill="#FFFFFF" d="M49.183,21.077c0,0.178,0.146,0.323,0.321,0.323h8.031c0.178,0,0.323-0.146,0.323-0.323
		s-0.146-0.319-0.323-0.319h-8.031C49.328,20.758,49.183,20.899,49.183,21.077"/>
	<path fill="#FF4A39" d="M43.119,15.673c0.88-0.077,1.409-0.836,1.175-1.685l-2.413-8.817c-0.233-0.852-1.137-1.664-2.01-1.805
		c0,0-2.428-0.388-6.068-0.388c-3.641,0-10.087,1.034-10.087,1.034c-0.873,0.138-1.52,0.974-1.52,1.858v10.025
		c0,0.885,0.653,1.547,1.534,1.47L43.119,15.673z"/>
	<path fill="#454C53" d="M36.064,12.381l-11.924,0.02c-0.531,0-0.981-0.432-0.981-0.961v-4.5c0-0.529,0.45-0.989,0.979-1.021
		l9.008-0.525c0.529-0.032,1.08,0.359,1.22,0.873L36.064,12.381z"/>
	<path fill="#454C53" d="M42.812,12.361l-5.502,0.021l-1.702-6.224c-0.141-0.509,0.178-0.941,0.708-0.958l3.379-0.089
		c0.528-0.012,1.084,0.392,1.232,0.901L42.812,12.361z"/>
	<path fill="#FFFFFF" d="M51.146,18.827h1.059c0.146-0.613,0.692-1.07,1.351-1.07c0.656,0,1.206,0.457,1.352,1.07h1.058
		c0.178,0,0.321,0.146,0.321,0.323s-0.144,0.319-0.321,0.319h-4.818c-0.178,0-0.323-0.142-0.323-0.319S50.968,18.827,51.146,18.827"
		/>
	<polygon fill="#DF2000" points="18.089,29.62 34.725,29.753 34.725,27.826 18.375,27.826 	"/>
	<path fill="#FFFFFF" d="M23.159,14.009c0,0.178,0.143,0.323,0.321,0.323h2.249c0.178,0,0.322-0.146,0.322-0.323
		s-0.144-0.319-0.322-0.319H23.48C23.302,13.69,23.159,13.831,23.159,14.009"/>
</g>
</svg>
