<?xml version="1.0" encoding="utf-8"?>
<!-- Generator: Adobe Illustrator 15.0.0, SVG Export Plug-In . SVG Version: 6.00 Build 0)  -->
<!DOCTYPE svg PUBLIC "-//W3C//DTD SVG 1.1//EN" "http://www.w3.org/Graphics/SVG/1.1/DTD/svg11.dtd">
<svg version="1.1" id="Layer_1" xmlns="http://www.w3.org/2000/svg" xmlns:xlink="http://www.w3.org/1999/xlink" x="0px" y="0px"
	 width="65px" height="35px" viewBox="0 0 65 35" enable-background="new 0 0 65 35" xml:space="preserve">
<g>
	<g opacity="0.4">
		<g>
			<defs>
				<rect id="SVGID_1_" y="32.059" width="62.25" height="2.979"/>
			</defs>
			<clipPath id="SVGID_2_">
				<use xlink:href="#SVGID_1_"  overflow="visible"/>
			</clipPath>
			<path clip-path="url(#SVGID_2_)" fill="#1C1419" d="M0,33.549c0,0.822,13.935,1.488,31.125,1.488
				c17.19,0,31.125-0.666,31.125-1.488s-13.935-1.49-31.125-1.49C13.935,32.059,0,32.727,0,33.549"/>
		</g>
	</g>
	<path fill="#23262A" d="M50.293,28.424c0-2.803-2.148-5.072-4.803-5.072c-2.651,0-4.802,2.27-4.802,5.072s2.15,5.072,4.802,5.072
		C48.145,33.496,50.293,31.227,50.293,28.424"/>
	<path fill="#23262A" d="M50.293,28.424c0-2.803-2.148-5.072-4.803-5.072c-2.651,0-4.802,2.27-4.802,5.072s2.15,5.072,4.802,5.072
		C48.145,33.496,50.293,31.227,50.293,28.424"/>
	<path fill="#23262A" d="M27.433,28.424c0-2.803-2.151-5.072-4.803-5.072c-2.651,0-4.802,2.27-4.802,5.072s2.15,5.072,4.802,5.072
		C25.282,33.496,27.433,31.227,27.433,28.424"/>
	<path fill="#23262A" d="M27.433,28.424c0-2.803-2.151-5.072-4.803-5.072c-2.651,0-4.802,2.27-4.802,5.072s2.15,5.072,4.802,5.072
		C25.282,33.496,27.433,31.227,27.433,28.424"/>
	<path fill="#EBE7DE" d="M6.286,25.656c0,1.461,1.185,2.635,2.646,2.635h48.63c1.464,0,2.646-1.174,2.646-2.635
		c0,0,1.095-4.133-0.22-11.524c-1.765-9.924-4.853-14.169-8.16-14.169H11.156c-1.461,0-2.646,1.129-2.646,2.591L6.286,25.656z"/>
	<path fill="#454C53" d="M6.805,11.773l1.604-8.712h47.938c1.227,1.942,2.332,4.862,3.187,8.761L6.805,11.773z"/>
	<path fill="#DF2000" d="M60.136,14.978c1.075,6.831,0.062,10.724,0.062,10.724c0,1.459-1.3,2.613-2.763,2.613H8.804
		c-1.461,0-2.647-1.186-2.647-2.646l0.458-10.69H60.136z"/>
	<path fill="#FFFFFF" d="M3.309,25.656c0,1.461,1.185,2.635,2.646,2.635H40.36c1.464,0,2.747-1.162,2.747-2.623V14.82
		c0,0-0.257-1.188-0.359-2.104c-0.102-0.917-2.997-10.155-2.997-10.155c-0.568-1.456-1.236-2.597-2.699-2.597H8.179
		c-1.461,0-2.38,0.859-3.561,3.631c-0.85,1.996-2.302,5-2.192,11.727C2.537,22.049,3.309,25.656,3.309,25.656"/>
	<path fill="#FF4A39" d="M43.107,15.025v10.643c0,1.461-1.278,2.646-2.742,2.646H5.961c-1.462,0-2.375,0.098-2.857-2.693
		c-0.673-3.695-0.845-10.55-0.846-10.665L43.107,15.025z"/>
	<rect x="16.935" y="3.351" fill="#454C53" width="8.93" height="8.622"/>
	<polygon fill="#454C53" points="5.271,11.973 14.165,11.973 14.165,3.351 7.187,3.351 	"/>
	<polygon fill="#454C53" points="28.328,11.973 37.384,11.973 35.729,3.351 28.328,3.351 	"/>
	<path fill="#FFFFFF" d="M43.416,26.781c0,1.006,0.814,1.816,1.818,1.816h13.913c1.006,0,1.818-0.811,1.818-1.816v-0.059
		c0-1.002-0.813-1.818-1.818-1.818H45.234c-1.004,0-1.818,0.816-1.818,1.818V26.781z"/>
	<path fill="#FFFFFF" d="M1.54,26.781c0,1.006,0.815,1.816,1.82,1.816h0.672c1.004,0,1.819-0.811,1.819-1.816v-0.059
		c0-1.002-0.814-1.818-1.819-1.818H3.359c-1.005,0-1.82,0.816-1.82,1.818V26.781z"/>
	<path fill="#23262A" d="M39.751,27.982c0-3.045-2.339-5.514-5.221-5.514s-5.219,2.469-5.219,5.514c0,3.047,2.337,5.514,5.219,5.514
		S39.751,31.029,39.751,27.982"/>
	<path fill="#FFFFFF" d="M37.654,27.982c0-1.82-1.4-3.297-3.124-3.297s-3.122,1.477-3.122,3.297c0,1.822,1.398,3.299,3.122,3.299
		S37.654,29.805,37.654,27.982"/>
	<path fill="#B0ADA7" d="M36.398,27.982c0-1.09-0.836-1.973-1.868-1.973s-1.87,0.883-1.87,1.973c0,1.092,0.838,1.975,1.87,1.975
		S36.398,29.074,36.398,27.982"/>
	<path fill="#23262A" d="M16.889,27.982c0-3.045-2.336-5.514-5.22-5.514c-2.881,0-5.218,2.469-5.218,5.514
		c0,3.047,2.337,5.514,5.218,5.514C14.553,33.496,16.889,31.029,16.889,27.982"/>
	<path fill="#FFFFFF" d="M14.792,27.982c0-1.82-1.397-3.297-3.123-3.297c-1.723,0-3.121,1.477-3.121,3.297
		c0,1.822,1.398,3.299,3.121,3.299C13.395,31.281,14.792,29.805,14.792,27.982"/>
	<path fill="#B0ADA7" d="M13.54,27.982c0-1.09-0.837-1.973-1.87-1.973c-1.032,0-1.869,0.883-1.869,1.973
		c0,1.092,0.837,1.975,1.869,1.975C12.702,29.957,13.54,29.074,13.54,27.982"/>
	<path fill="#B0ADA7" d="M50.531,20.541c0-1.324-1.073-2.4-2.396-2.4c-1.326,0-2.399,1.076-2.399,2.4s1.073,2.396,2.399,2.396
		C49.458,22.938,50.531,21.865,50.531,20.541"/>
	<path fill="#FFFFFF" d="M49.901,20.541c0-0.975-0.793-1.768-1.766-1.768c-0.975,0-1.766,0.793-1.766,1.768
		c0,0.973,0.791,1.764,1.766,1.764C49.108,22.305,49.901,21.514,49.901,20.541"/>
	<path fill="#B0ADA7" d="M60.79,20.541c0-1.324-1.074-2.4-2.398-2.4s-2.4,1.076-2.4,2.4s1.076,2.396,2.4,2.396
		S60.79,21.865,60.79,20.541"/>
	<path fill="#FFFFFF" d="M60.155,20.541c0-0.975-0.79-1.768-1.764-1.768c-0.976,0-1.766,0.793-1.766,1.768
		c0,0.973,0.79,1.764,1.766,1.764C59.365,22.305,60.155,21.514,60.155,20.541"/>
	<path fill="#EBE7DE" d="M44.661,14.957c1.701-0.133,4.861,0.26,7.032,2.167c1.013,0.888,2.014,2.207,2.12,3.417
		c0,0,1.504-5.563,6.322-5.563l-0.606-1.33l-12.002-0.221L44.661,14.957z"/>
	<path fill="#FFFFFF" d="M28.328,18.332c0,0.23,0.186,0.414,0.414,0.414h2.869c0.228,0,0.413-0.184,0.413-0.414v-0.098
		c0-0.227-0.186-0.412-0.413-0.412h-2.869c-0.228,0-0.414,0.185-0.414,0.412V18.332z"/>
	<path fill="#638ABD" d="M55.082,16.074c0-0.731-0.591-1.324-1.322-1.324s-1.324,0.593-1.324,1.324c0,0.729,0.593,1.323,1.324,1.323
		S55.082,16.803,55.082,16.074"/>
</g>
</svg>
