<?xml version="1.0" encoding="utf-8"?>
<!-- Generator: Adobe Illustrator 15.0.0, SVG Export Plug-In . SVG Version: 6.00 Build 0)  -->
<!DOCTYPE svg PUBLIC "-//W3C//DTD SVG 1.1//EN" "http://www.w3.org/Graphics/SVG/1.1/DTD/svg11.dtd">
<svg version="1.1" id="Layer_1" xmlns="http://www.w3.org/2000/svg" xmlns:xlink="http://www.w3.org/1999/xlink" x="0px" y="0px"
	 width="227.974px" height="373.249px" viewBox="0 0 227.974 373.249" enable-background="new 0 0 227.974 373.249"
	 xml:space="preserve">
<g>
	<g>
		<path fill="#E97B33" d="M97.625,152.462c-4.934-1.866-10.201,0.351-15.801,6.649l-0.4,0.4c-3.332,4.233-6.865,6.733-10.6,7.5h-0.4
			l-5.25-0.35v-0.051c-2.533-3.166-5.15-5.35-7.85-6.549c-1.633-0.734-3.301-1.084-5-1.051l-3.449,0.45
			c-3.334,1.333-6.867,0.733-10.602-1.8l-0.398-0.301c-1.734-1.266-3.484-2.933-5.25-5v-10.899l32.148,16.05l32.852-16.05V152.462"
			/>
		<path fill="#869595" d="M97.625,152.462v11l-32.451,16.25l-32.549-16.25v-11.101c1.766,2.067,3.516,3.734,5.25,5l0.398,0.301
			c3.734,2.533,7.268,3.133,10.602,1.8l3.449-0.45c1.699-0.033,3.367,0.316,5,1.051c2.699,1.199,5.316,3.383,7.85,6.549v0.051
			l5.25,0.35h0.4c3.734-0.767,7.268-3.267,10.6-7.5l0.4-0.4C87.424,152.813,92.691,150.596,97.625,152.462"/>
		<path fill="#E9945C" d="M97.625,141.462l-32.852,16.05l-32.148-16.05v-2l32.549,16.25l32.451-16.25V141.462"/>
		<path fill="#E97B33" d="M32.625,139.462v-32.5l32.549-16.25l32.451,16.25v32.5l-32.451,16.25L32.625,139.462"/>
		<path fill-opacity="0.102" d="M65.174,179.711l-32.549-16.25v-22l32.549,16.25V179.711"/>
		<path fill="#869595" d="M32.475,162.109l32.15,16.051l32.85-16.051v22l-32.449,16.25l-32.551-16.25V162.109"/>
		<path fill-opacity="0.102" d="M32.475,162.109l32.551,16.25v22l-32.551-16.25V162.109"/>
		<path fill="#869595" d="M32.475,183.616l32.15,16.048l32.85-16.048v22l-32.449,16.25l-32.551-16.25V183.616"/>
		<path fill-opacity="0.102" d="M32.475,183.616l32.551,16.25v22l-32.551-16.25V183.616"/>
		<path fill="#869595" d="M32.525,205.051l32.15,16.051l32.85-16.051v22.001l-32.451,16.25l-32.549-16.25V205.051"/>
		<path fill-opacity="0.102" d="M32.525,205.051l32.549,16.25v22.001l-32.549-16.25V205.051"/>
		<path fill="#869595" d="M32.475,227.052l32.15,16.051l32.85-16.051v22l-32.449,16.25l-32.551-16.25V227.052"/>
		<path fill-opacity="0.102" d="M32.475,227.052l32.551,16.25v22l-32.551-16.25V227.052"/>
		<path fill="#869595" d="M32.574,248.177l32.15,16.051l32.85-16.051v22l-32.449,16.25l-32.551-16.25V248.177"/>
		<path fill-opacity="0.102" d="M32.574,248.177l32.551,16.25v22l-32.551-16.25V248.177"/>
	</g>
	<g>
		<path fill="#E97B33" d="M162.974,97.07c-4.934-1.866-10.201,0.351-15.801,6.649l-0.4,0.4c-3.332,4.233-6.865,6.733-10.6,7.5h-0.4
			l-5.25-0.35v-0.051c-2.533-3.166-5.15-5.35-7.85-6.549c-1.633-0.734-3.301-1.084-5-1.051l-3.449,0.45
			c-3.334,1.333-6.867,0.733-10.602-1.8l-0.398-0.301c-1.734-1.266-3.484-2.933-5.25-5V86.07l32.148,16.05l32.852-16.05V97.07"/>
		<path fill="#869595" d="M162.974,97.07v11l-32.451,16.25l-32.549-16.25V96.97c1.766,2.067,3.516,3.734,5.25,5l0.398,0.301
			c3.734,2.533,7.268,3.133,10.602,1.8l3.449-0.45c1.699-0.033,3.367,0.316,5,1.051c2.699,1.199,5.316,3.383,7.85,6.549v0.051
			l5.25,0.35h0.4c3.734-0.767,7.268-3.267,10.6-7.5l0.4-0.4C152.772,97.421,158.04,95.204,162.974,97.07"/>
		<path fill="#E9945C" d="M162.974,86.07l-32.852,16.05L97.974,86.07v-2l32.549,16.25l32.451-16.25V86.07"/>
		<path fill="#E97B33" d="M97.974,84.07v-32.5l32.549-16.25l32.451,16.25v32.5l-32.451,16.25L97.974,84.07"/>
		<path fill-opacity="0.102" d="M130.522,124.32l-32.549-16.25v-22l32.549,16.25V124.32"/>
		<path fill="#869595" d="M97.823,106.718l32.15,16.051l32.85-16.051v22l-32.449,16.25l-32.551-16.25V106.718"/>
		<path fill-opacity="0.102" d="M97.823,106.718l32.551,16.25v22l-32.551-16.25V106.718"/>
		<path fill="#869595" d="M97.823,128.224l32.15,16.05l32.85-16.05v22l-32.449,16.25l-32.551-16.25V128.224"/>
		<path fill-opacity="0.102" d="M97.823,128.224l32.551,16.25v22l-32.551-16.25V128.224"/>
		<path fill="#869595" d="M97.874,149.66l32.15,16.05l32.85-16.05v22l-32.451,16.25l-32.549-16.25V149.66"/>
		<path fill-opacity="0.102" d="M97.874,149.66l32.549,16.25v22l-32.549-16.25V149.66"/>
		<path fill="#869595" d="M97.823,171.66l32.15,16.05l32.85-16.05v22l-32.449,16.25l-32.551-16.25V171.66"/>
		<path fill-opacity="0.102" d="M97.823,171.66l32.551,16.25v22l-32.551-16.25V171.66"/>
		<path fill="#869595" d="M97.923,192.785l32.15,16.05l32.85-16.05v22l-32.449,16.249l-32.551-16.249V192.785"/>
		<path fill-opacity="0.102" d="M97.923,192.785l32.551,16.25v21.999l-32.551-16.249V192.785"/>
	</g>
	<g>
		<path fill="#E97B33" d="M195.624,170.712c-4.934-1.866-10.201,0.351-15.801,6.649l-0.4,0.4c-3.332,4.233-6.865,6.733-10.6,7.5
			h-0.4l-5.25-0.35v-0.051c-2.533-3.166-5.15-5.35-7.85-6.549c-1.633-0.734-3.301-1.084-5-1.051l-3.449,0.45
			c-3.334,1.333-6.867,0.733-10.602-1.8l-0.398-0.301c-1.734-1.266-3.484-2.933-5.25-5v-10.899l32.148,16.05l32.852-16.05V170.712"
			/>
		<path fill="#869595" d="M195.624,170.712v11l-32.451,16.25l-32.549-16.25v-11.101c1.766,2.067,3.516,3.734,5.25,5l0.398,0.301
			c3.734,2.533,7.268,3.133,10.602,1.8l3.449-0.45c1.699-0.033,3.367,0.316,5,1.051c2.699,1.199,5.316,3.383,7.85,6.549v0.051
			l5.25,0.35h0.4c3.734-0.767,7.268-3.267,10.6-7.5l0.4-0.4C185.423,171.063,190.69,168.846,195.624,170.712"/>
		<path fill="#E9945C" d="M195.624,159.712l-32.852,16.05l-32.148-16.05v-2l32.549,16.25l32.451-16.25V159.712"/>
		<path fill="#E97B33" d="M130.624,157.712v-32.5l32.549-16.25l32.451,16.25v32.5l-32.451,16.25L130.624,157.712"/>
		<path fill-opacity="0.102" d="M163.173,197.963l-32.549-16.25v-22l32.549,16.25V197.963"/>
		<path fill="#869595" d="M130.474,180.36l32.15,16.05l32.85-16.05v22l-32.449,16.25l-32.551-16.25V180.36"/>
		<path fill-opacity="0.102" d="M130.474,180.36l32.551,16.25v22l-32.551-16.25V180.36"/>
		<path fill="#869595" d="M130.474,201.865l32.15,16.051l32.85-16.051v22l-32.449,16.251l-32.551-16.251V201.865"/>
		<path fill-opacity="0.102" d="M130.474,201.865l32.551,16.25v22.001l-32.551-16.251V201.865"/>
		<path fill="#869595" d="M130.524,223.303l32.15,16.05l32.85-16.05v21.999l-32.451,16.25l-32.549-16.25V223.303"/>
		<path fill-opacity="0.102" d="M130.524,223.303l32.549,16.249v22l-32.549-16.25V223.303"/>
		<path fill="#869595" d="M130.474,245.302l32.15,16.051l32.85-16.051v22l-32.449,16.25l-32.551-16.25V245.302"/>
		<path fill-opacity="0.102" d="M130.474,245.302l32.551,16.25v22l-32.551-16.25V245.302"/>
		<path fill="#869595" d="M130.573,266.427l32.15,16.051l32.85-16.051v22l-32.449,16.25l-32.551-16.25V266.427"/>
		<path fill-opacity="0.102" d="M130.573,266.427l32.551,16.25v22l-32.551-16.25V266.427"/>
	</g>
	<g>
		<path fill="#C58F5C" d="M130.549,212.446c-4.934-1.866-10.201,0.351-15.801,6.649l-0.4,0.4c-3.332,4.233-6.865,6.733-10.6,7.5
			h-0.4l-5.25-0.35v-0.051c-2.533-3.166-5.15-5.35-7.85-6.549c-1.633-0.734-3.301-1.084-5-1.051l-3.449,0.45
			c-3.334,1.333-6.867,0.733-10.602-1.8l-0.398-0.301c-1.734-1.266-3.484-2.933-5.25-5v-10.899l32.148,16.05l32.852-16.05V212.446"
			/>
		<path fill="#BBCBCC" d="M130.549,212.446v11l-32.451,16.25l-32.549-16.25v-11.101c1.766,2.067,3.516,3.734,5.25,5l0.398,0.301
			c3.734,2.533,7.268,3.133,10.602,1.8l3.449-0.45c1.699-0.033,3.367,0.316,5,1.051c2.699,1.199,5.316,3.383,7.85,6.549v0.051
			l5.25,0.35h0.4c3.734-0.767,7.268-3.267,10.6-7.5l0.4-0.4C120.348,212.797,125.615,210.58,130.549,212.446"/>
		<path fill="#D6B08D" d="M130.549,201.446l-32.852,16.05l-32.148-16.05v-2l32.549,16.25l32.451-16.25V201.446"/>
		<path fill="#CA9A6C" d="M65.549,199.446v-32.5l32.549-16.25l32.451,16.25v32.5l-32.451,16.25L65.549,199.446"/>
		<path fill-opacity="0.102" d="M98.098,239.696l-32.549-16.25v-22l32.549,16.25V239.696"/>
		<g>
			<path fill="#BBCBCC" d="M65.398,222.094l32.15,16.051l32.85-16.051v21.999l-32.449,16.25l-32.551-16.25V222.094"/>
			<path fill-opacity="0.102" d="M65.398,222.094l32.551,16.25v21.999l-32.551-16.25V222.094"/>
			<g>
				<path fill="#BBCBCC" d="M65.398,243.599l32.15,16.051l32.85-16.051v22l-32.449,16.25l-32.551-16.25V243.599"/>
				<path fill-opacity="0.102" d="M65.398,243.599l32.551,16.25v22l-32.551-16.25V243.599"/>
			</g>
			<g>
				<path fill="#BBCBCC" d="M65.449,265.036l32.15,16.049l32.85-16.049v22l-32.451,16.25l-32.549-16.25V265.036"/>
				<path fill-opacity="0.102" d="M65.449,265.036l32.549,16.25v22l-32.549-16.25V265.036"/>
			</g>
			<g>
				<path fill="#BBCBCC" d="M65.398,287.036l32.15,16.049l32.85-16.049v22l-32.449,16.252l-32.551-16.252V287.036"/>
				<path fill-opacity="0.102" d="M65.398,287.036l32.551,16.25v22.002l-32.551-16.252V287.036"/>
			</g>
			<g>
				<path fill="#BBCBCC" d="M65.498,308.161l32.15,16.051l32.85-16.051v22.002l-32.449,16.248l-32.551-16.248V308.161"/>
				<path fill-opacity="0.102" d="M65.498,308.161l32.551,16.252v21.998l-32.551-16.248V308.161"/>
			</g>
		</g>
	</g>
	<g>
		<path fill="#D6B08D" d="M162.823,279.812l-32.852,16.049l-32.148-16.049v-2l32.549,16.25l32.451-16.25V279.812"/>
		<g>
			<path fill="#C58F5C" d="M162.823,290.812c-4.934-1.867-10.201,0.35-15.801,6.648l-0.4,0.4c-3.332,4.234-6.865,6.734-10.6,7.5
				h-0.4l-5.25-0.35v-0.051c-2.533-3.166-5.15-5.35-7.85-6.549c-1.633-0.734-3.301-1.084-5-1.051l-3.449,0.451
				c-3.334,1.332-6.867,0.732-10.602-1.801l-0.398-0.301c-1.734-1.266-3.484-2.932-5.25-5v-10.898l32.148,16.049l32.852-16.049
				V290.812"/>
			<path fill="#BBCBCC" d="M162.823,290.812v11l-32.451,16.25l-32.549-16.25V290.71c1.766,2.068,3.516,3.734,5.25,5l0.398,0.301
				c3.734,2.533,7.268,3.133,10.602,1.801l3.449-0.451c1.699-0.033,3.367,0.316,5,1.051c2.699,1.199,5.316,3.383,7.85,6.549v0.051
				l5.25,0.35h0.4c3.734-0.766,7.268-3.266,10.6-7.5l0.4-0.4C152.622,291.161,157.89,288.944,162.823,290.812"/>
			<path fill="#CA9A6C" d="M97.823,277.812v-32.501l32.549-16.25l32.451,16.25v32.501l-32.451,16.25L97.823,277.812"/>
			<path fill-opacity="0.102" d="M130.372,318.062l-32.549-16.25v-22l32.549,16.25V318.062"/>
			<path fill="#BBCBCC" d="M97.673,300.458l32.15,16.051l32.85-16.051v22l-32.449,16.25l-32.551-16.25V300.458"/>
			<path fill-opacity="0.102" d="M97.673,300.458l32.551,16.25v22l-32.551-16.25V300.458"/>
			<g>
				<path fill="#BBCBCC" d="M97.673,321.964l32.15,16.051l32.85-16.051v22l-32.449,16.25l-32.551-16.25V321.964"/>
				<path fill-opacity="0.102" d="M97.673,321.964l32.551,16.25v22l-32.551-16.25V321.964"/>
			</g>
		</g>
	</g>
	<g>
		<path fill="#D6B08D" d="M65.15,241.157l-32.852,16.049L0.15,241.157v-2l32.549,16.25l32.451-16.25V241.157"/>
		<g>
			<path fill="#C58F5C" d="M65.15,252.157c-4.934-1.867-10.201,0.35-15.801,6.648l-0.4,0.4c-3.332,4.234-6.865,6.734-10.6,7.5h-0.4
				l-5.25-0.35v-0.051c-2.533-3.166-5.15-5.35-7.85-6.549c-1.633-0.734-3.301-1.084-5-1.051l-3.449,0.451
				c-3.334,1.332-6.867,0.732-10.602-1.801L5.4,257.056c-1.734-1.266-3.484-2.932-5.25-5v-10.898l32.148,16.049l32.852-16.049
				V252.157"/>
			<path fill="#BBCBCC" d="M65.15,252.157v11l-32.451,16.25L0.15,263.157v-11.102c1.766,2.068,3.516,3.734,5.25,5l0.398,0.301
				c3.734,2.533,7.268,3.133,10.602,1.801l3.449-0.451c1.699-0.033,3.367,0.316,5,1.051c2.699,1.199,5.316,3.383,7.85,6.549v0.051
				l5.25,0.35h0.4c3.734-0.766,7.268-3.266,10.6-7.5l0.4-0.4C54.949,252.507,60.217,250.29,65.15,252.157"/>
			<path fill="#CA9A6C" d="M0.15,239.157v-32.5l32.549-16.25l32.451,16.25v32.5l-32.451,16.25L0.15,239.157"/>
			<path fill-opacity="0.102" d="M32.699,279.407L0.15,263.157v-22l32.549,16.25V279.407"/>
			<path fill="#BBCBCC" d="M0,261.804l32.15,16.051L65,261.804v22l-32.449,16.25L0,283.804V261.804"/>
			<path fill-opacity="0.102" d="M0,261.804l32.551,16.25v22L0,283.804V261.804"/>
			<g>
				<path fill="#BBCBCC" d="M0,283.31l32.15,16.051L65,283.31v22l-32.449,16.252L0,305.31V283.31"/>
				<path fill-opacity="0.102" d="M0,283.31l32.551,16.25v22.002L0,305.31V283.31"/>
			</g>
		</g>
	</g>
	<g>
		<g>
			<path fill="#C58F5C" d="M32.475,330.774l32.15,16.051l32.85-16.051v22l-32.45,16.25l-32.55-16.25V330.774"/>
			<path fill-opacity="0.102" d="M32.475,330.774l32.55,16.25v22l-32.55-16.25V330.774"/>
		</g>
		<g>
			<path fill="#8DC435" d="M32.475,307.399v-32.5c10.866-5.4,21.717-10.818,32.55-16.252l32.45,16.252v32.5l-32.45,16.25
				L32.475,307.399"/>
			<path fill="#80BE1F" d="M97.475,309.399v11.199l-5.399-4.301l-5.4,9.701l-5.4-4.301l-5.449,9.75l-5.4-4.299l-5.4,9.699
				l-5.4-9.699l-5.399,4.299l-5.45-9.75l-5.4,4.301l-5.399-9.701l-5.5,4.301v-11.199l32.55,16.25L97.475,309.399"/>
			<path fill="#C58F5C" d="M97.475,320.599v10.801l-32.45,16.25l-32.55-16.25v-10.801l5.5-4.301l5.399,9.701l5.4-4.301l5.45,9.75
				l5.399-4.299l5.4,9.699l5.4-9.699l5.4,4.299l5.449-9.75l5.4,4.301l5.4-9.701L97.475,320.599"/>
			<path fill="#A6D162" d="M97.475,307.399v2l-32.45,16.25l-32.55-16.25v-2l32.55,16.25L97.475,307.399"/>
			<path fill-opacity="0.102" d="M32.475,309.399l32.55,16.25v22l-32.55-16.25V309.399"/>
		</g>
	</g>
	<g>
		<g>
			<path fill="#C58F5C" d="M162.974,334.999l32.15,16.051l32.85-16.051v22l-32.45,16.25l-32.55-16.25V334.999"/>
			<path fill-opacity="0.102" d="M162.974,334.999l32.55,16.25v22l-32.55-16.25V334.999"/>
		</g>
		<g>
			<path fill="#8DC435" d="M162.974,311.624v-32.5c10.866-5.4,21.717-10.818,32.55-16.252l32.45,16.252v32.5l-32.45,16.25
				L162.974,311.624"/>
			<path fill="#80BE1F" d="M227.974,313.624v11.199l-5.399-4.301l-5.4,9.701l-5.4-4.301l-5.449,9.75l-5.4-4.299l-5.4,9.699
				l-5.4-9.699l-5.399,4.299l-5.45-9.75l-5.4,4.301l-5.399-9.701l-5.5,4.301v-11.199l32.55,16.25L227.974,313.624"/>
			<path fill="#C58F5C" d="M227.974,324.823v10.801l-32.45,16.25l-32.55-16.25v-10.801l5.5-4.301l5.399,9.701l5.4-4.301l5.45,9.75
				l5.399-4.299l5.4,9.699l5.4-9.699l5.4,4.299l5.449-9.75l5.4,4.301l5.4-9.701L227.974,324.823"/>
			<path fill="#A6D162" d="M227.974,311.624v2l-32.45,16.25l-32.55-16.25v-2l32.55,16.25L227.974,311.624"/>
			<path fill-opacity="0.102" d="M162.974,313.624l32.55,16.25v22l-32.55-16.25V313.624"/>
		</g>
	</g>
	<g>
		<path fill-opacity="0.0314" d="M116.873,69c0-2.768,1.299-5.135,3.9-7.1c2.633-1.934,5.832-2.9,9.6-2.9
			c3.732,0,6.916,0.967,9.549,2.9c2.635,1.965,3.951,4.332,3.951,7.1c0,2.799-1.316,5.15-3.951,7.049
			c-2.633,1.967-5.816,2.951-9.549,2.951c-3.768,0-6.967-0.984-9.6-2.951C118.172,74.15,116.873,71.799,116.873,69"/>
		<path fill="#C97919" d="M130.172,0h3.201l8.85,36.5c1.6,6.533,2.449,10.6,2.551,12.199v0.4c-0.102,4.1-1.584,7.617-4.451,10.551
			c-1.9,1.932-4.049,3.248-6.449,3.949l-3.701,0.551V0"/>
		
			<linearGradient id="SVGID_1_" gradientUnits="userSpaceOnUse" x1="-14710.1836" y1="186.9775" x2="-13070.1846" y2="186.9775" gradientTransform="matrix(0 0.035 0.0528 0 112.9999 517.756)">
			<stop  offset="0" style="stop-color:#C97919"/>
			<stop  offset="1" style="stop-color:#B17022"/>
		</linearGradient>
		<path fill="url(#SVGID_1_)" d="M130.172,0v64.15l-3.299-0.451c-2.566-0.666-4.85-2.016-6.85-4.049
			c-2.867-2.934-4.352-6.451-4.451-10.551V48.9c0.033-1.5,0.883-5.635,2.551-12.4l8.85-36.5H130.172"/>
		<path fill="#B08052" d="M130.172,64.15l3.701-0.551v4.449c-0.033,0.768-0.367,1.451-1,2.051c-0.6,0.533-1.35,0.834-2.25,0.9h-0.25
			c-0.934,0-1.75-0.301-2.451-0.9c-0.666-0.6-1.016-1.283-1.049-2.051v-4.35L130.172,64.15"/>
	</g>
	<g>
		<path fill-opacity="0.0314" d="M35.398,119.697c0-2.768,1.3-5.135,3.9-7.1c2.633-1.934,5.833-2.9,9.6-2.9
			c3.733,0,6.917,0.967,9.55,2.9c2.634,1.965,3.95,4.332,3.95,7.1c0,2.799-1.316,5.15-3.95,7.049
			c-2.633,1.967-5.816,2.951-9.55,2.951c-3.767,0-6.967-0.984-9.6-2.951C36.698,124.847,35.398,122.496,35.398,119.697"/>
		<path fill="#C97919" d="M49.148,87.697v-65c3.634,0.066,6.733,1.383,9.3,3.949c2.634,2.633,3.95,5.816,3.95,9.551v38
			c0,3.732-1.316,6.916-3.95,9.549c-1.767,1.768-3.783,2.951-6.05,3.551L49.148,87.697"/>
		
			<linearGradient id="SVGID_2_" gradientUnits="userSpaceOnUse" x1="-8585.8184" y1="-3011.9277" x2="-6946.0918" y2="-3011.9277" gradientTransform="matrix(0 0.0433 0.0519 0 198.5928 389.9633)">
			<stop  offset="0" style="stop-color:#C97919"/>
			<stop  offset="1" style="stop-color:#B17022"/>
		</linearGradient>
		<path fill="url(#SVGID_2_)" d="M49.148,87.697h-0.25h-0.25l-2.25-0.201l-1-0.199c-2.267-0.6-4.283-1.783-6.05-3.551
			c-2.634-2.633-3.95-5.816-3.95-9.549v-38c0-3.734,1.316-6.918,3.95-9.551c2.633-2.633,5.816-3.949,9.55-3.949h0.25V87.697"/>
		<path fill="#9F7348" d="M49.148,87.697l3.25-0.4v2l-0.05,0.051l-3.2,0.35h-0.25h-0.25l-2.25-0.201l-0.9-0.148l-0.1-0.051v-2
			l1,0.199l2.25,0.201h0.25H49.148 M52.398,108.947v0.35l-0.05,0.051L52.398,108.947 M45.398,109.296v-0.4l0.1,0.451L45.398,109.296
			"/>
		<path fill="#B08052" d="M45.398,109.296l0.1,0.051l-0.1-0.451v-9.6l0.1,0.051l-0.1-0.602v-9.449l0.1,0.051l0.9,0.148l2.25,0.201
			h0.25h0.25l3.2-0.35l0.05-0.051v9.449l-0.05,0.602l0.05-0.051v9.65l-0.05,0.4l0.05-0.051v9.449c-0.033,0.768-0.366,1.451-1,2.051
			c-0.601,0.533-1.351,0.834-2.25,0.9h-0.25c-0.934,0-1.75-0.301-2.45-0.9c-0.666-0.6-1.017-1.283-1.05-2.051V109.296"/>
	</g>
	<g>
		
			<linearGradient id="SVGID_3_" gradientUnits="userSpaceOnUse" x1="-3187.3638" y1="-4179.8213" x2="-2076.4824" y2="-4179.8213" gradientTransform="matrix(-0.0306 0.0306 0.0367 0.0367 141.2619 326.138)">
			<stop  offset="0" style="stop-color:#C97919"/>
			<stop  offset="1" style="stop-color:#B17022"/>
		</linearGradient>
		<path fill="url(#SVGID_3_)" d="M71.709,62.094v57.559H71.54h-0.17l-1.523-0.137l-0.677-0.134c-1.535-0.406-2.9-1.208-4.097-2.405
			c-1.784-1.783-2.675-3.938-2.675-6.466V71.235c0-2.528,0.891-4.684,2.675-6.467c1.783-1.783,3.938-2.674,6.467-2.674H71.709"/>
		<path fill="#C97919" d="M71.709,62.094c2.461,0.045,4.56,0.937,6.298,2.674c1.783,1.783,2.675,3.939,2.675,6.467v39.276
			c0,2.527-0.892,4.683-2.675,6.466c-1.196,1.197-2.562,1.999-4.097,2.405l-2.201,0.271V62.094"/>
		<path fill="#9F7348" d="M71.709,119.653l2.201-0.271v1.354l-2.201,0.271H71.54h-0.17l-1.523-0.136l-0.677-0.135v-1.354
			l0.677,0.134l1.523,0.137h0.17H71.709"/>
		<path fill-opacity="0.0314" d="M78.007,122.971c1.783,1.331,2.675,2.934,2.675,4.808c0,1.895-0.892,3.487-2.675,4.773
			c-1.783,1.332-3.939,1.999-6.467,1.999c-2.551,0-4.719-0.667-6.501-1.999c-1.761-1.286-2.641-2.878-2.641-4.773
			c0-1.874,0.88-3.477,2.641-4.808c1.782-1.31,3.95-1.964,6.501-1.964C74.067,121.007,76.224,121.662,78.007,122.971"/>
		<path fill="#B08052" d="M73.91,120.736v6.399c-0.022,0.52-0.248,0.982-0.678,1.389c-0.406,0.361-0.914,0.565-1.523,0.609H71.54
			c-0.633,0-1.185-0.204-1.659-0.609c-0.451-0.406-0.689-0.869-0.711-1.389v-6.399l0.677,0.135l1.523,0.136h0.17h0.169
			L73.91,120.736"/>
	</g>
	<g>
		<path fill-opacity="0.051" d="M51.748,297.626c-3.399-1.834-5.1-4.066-5.1-6.699c0-2.635,1.7-4.885,5.1-6.75
			c3.4-1.867,7.533-2.801,12.4-2.801c4.834,0,8.95,0.934,12.35,2.801c3.434,1.865,5.15,4.115,5.15,6.75
			c0,2.633-1.717,4.865-5.15,6.699c-3.399,1.834-7.516,2.75-12.35,2.75C59.281,300.376,55.148,299.46,51.748,297.626"/>
		<path fill="#8DB5E7" d="M64.498,278.026c0.4,0.766,0.417,1.666,0.051,2.699l-4.051,10.451c-1.699,1.666-3.3,1.666-4.8,0l2-10.451
			c0.167-1.033,0.7-1.934,1.601-2.699c0.866-0.801,1.866-1.184,3-1.15C63.266,276.843,63.998,277.226,64.498,278.026
			 M67.599,276.626c0.7-0.834,1.566-1.232,2.6-1.199c1.067-0.033,1.934,0.365,2.601,1.199c0.699,0.734,1,1.633,0.899,2.701
			l-0.8,10.449c-1.467,1.5-3.066,1.5-4.8,0l-1.25-10.449C66.748,278.259,66.998,277.36,67.599,276.626"/>
		<path fill="#8DB5E7" d="M58.549,243.078c1.967-1.967,4.25-3.184,6.85-3.65v-0.15l0.6-0.051h0.65h0.6v0.102
			c2.834,0.332,5.316,1.582,7.45,3.75c2.601,2.566,3.9,5.666,3.9,9.299v24.7c0,2.232-1.3,4.133-3.9,5.699
			c-2.134,1.266-4.616,2.016-7.45,2.25v0.051h-0.6h-0.45h-0.2h-0.6v-0.102c-2.6-0.299-4.883-1.033-6.85-2.199
			c-2.566-1.566-3.851-3.467-3.851-5.699v-24.7C54.698,248.744,55.982,245.645,58.549,243.078"/>
		<path fill="#8DB5E7" d="M75.599,272.626l0.149,0.051c4.834,1.898,7.2,5.398,7.101,10.5c-0.034,0.434-0.2,0.799-0.5,1.1
			c-0.3,0.266-0.667,0.4-1.101,0.4c-0.399,0-0.75-0.15-1.05-0.451c-0.3-0.299-0.45-0.666-0.45-1.1
			c0.066-3.334-1.316-4.967-4.149-4.9V272.626 M55.898,278.226c-2.867-0.066-4.267,1.566-4.2,4.9c0,0.434-0.149,0.801-0.45,1.1
			c-0.266,0.301-0.616,0.451-1.05,0.451c-0.433,0-0.8-0.135-1.1-0.4c-0.3-0.301-0.45-0.666-0.45-1.1
			c-0.133-5.102,2.217-8.602,7.05-10.5l0.2-0.051V278.226"/>
		<path fill="#4F719D" d="M74.448,258.727c0.4,0,0.75,0.15,1.05,0.451c0.334,0.299,0.5,0.65,0.5,1.049
			c0,0.468-0.166,0.835-0.5,1.103c-0.3,0.332-0.649,0.5-1.05,0.5c-0.433,0-0.816-0.168-1.149-0.5
			c-0.301-0.268-0.45-0.635-0.45-1.103c0-0.398,0.149-0.75,0.45-1.049C73.632,258.877,74.016,258.727,74.448,258.727
			 M68.748,256.578c0.301-0.334,0.667-0.5,1.101-0.5c0.399,0,0.75,0.166,1.05,0.5c0.3,0.299,0.45,0.648,0.45,1.049
			c0,0.434-0.15,0.801-0.45,1.1c-0.3,0.301-0.65,0.451-1.05,0.451l-1.101-0.451c-0.3-0.299-0.449-0.666-0.449-1.1
			C68.299,257.227,68.448,256.877,68.748,256.578 M64.099,259.178c0.333-0.301,0.7-0.451,1.1-0.451c0.467,0,0.833,0.15,1.101,0.451
			c0.3,0.299,0.449,0.65,0.449,1.049c0,0.468-0.149,0.835-0.449,1.103c-0.268,0.332-0.634,0.5-1.101,0.5
			c-0.399,0-0.767-0.168-1.1-0.5c-0.267-0.268-0.4-0.635-0.4-1.103C63.698,259.828,63.832,259.477,64.099,259.178 M67.849,266.878
			c-0.167,0-0.317-0.066-0.45-0.199l-0.15-0.451c0-0.166,0.051-0.316,0.15-0.449c0.133-0.133,0.283-0.199,0.45-0.199h3.85
			l0.45,0.199l0.2,0.449l-0.2,0.451l-0.45,0.199H67.849"/>
		<path fill="#FFFFFF" d="M46.698,254.178c0-5.5,1.967-10.201,5.9-14.1c3.866-3.9,8.55-5.852,14.05-5.852s10.217,1.951,14.15,5.852
			c3.866,3.898,5.8,8.6,5.8,14.1c0,5.533-1.934,10.233-5.8,14.101c-3.934,3.898-8.65,5.848-14.15,5.848s-10.184-1.949-14.05-5.848
			C48.665,264.411,46.698,259.711,46.698,254.178 M54.748,242.277c-3.333,3.266-5,7.232-5,11.9c0,4.666,1.667,8.651,5,11.95
			c3.301,3.268,7.268,4.9,11.9,4.9s8.617-1.633,11.95-4.9c3.3-3.299,4.95-7.284,4.95-11.95c0-4.668-1.65-8.635-4.95-11.9
			c-3.333-3.301-7.317-4.949-11.95-4.949S58.049,238.977,54.748,242.277"/>
		<path fill="#FFFFFF" fill-opacity="0.2" d="M54.748,242.277c3.301-3.301,7.268-4.949,11.9-4.949s8.617,1.648,11.95,4.949
			c3.3,3.266,4.95,7.232,4.95,11.9c0,4.666-1.65,8.651-4.95,11.95c-3.333,3.268-7.317,4.9-11.95,4.9s-8.6-1.633-11.9-4.9
			c-3.333-3.299-5-7.284-5-11.95C49.748,249.51,51.415,245.543,54.748,242.277 M77.698,243.777c-1.1-1.166-2.45-1.75-4.05-1.75
			s-2.95,0.584-4.05,1.75c-1.167,1.1-1.75,2.449-1.75,4.051c0,1.6,0.583,2.949,1.75,4.049c1.1,1.133,2.45,1.701,4.05,1.701
			s2.95-0.568,4.05-1.701c1.134-1.1,1.7-2.449,1.7-4.049C79.398,246.227,78.832,244.877,77.698,243.777"/>
		<path fill="#FFFFFF" fill-opacity="0.302" d="M77.698,243.777c1.134,1.1,1.7,2.449,1.7,4.051c0,1.6-0.566,2.949-1.7,4.049
			c-1.1,1.133-2.45,1.701-4.05,1.701s-2.95-0.568-4.05-1.701c-1.167-1.1-1.75-2.449-1.75-4.049c0-1.602,0.583-2.951,1.75-4.051
			c1.1-1.166,2.45-1.75,4.05-1.75S76.599,242.611,77.698,243.777"/>
		<path fill="#A3C3EB" fill-opacity="0.502" d="M58.849,280.476c-0.233-0.232-0.351-0.516-0.351-0.85c0-0.367,0.117-0.666,0.351-0.9
			c0.233-0.232,0.533-0.35,0.899-0.35c0.334,0,0.617,0.117,0.851,0.35c0.267,0.234,0.399,0.533,0.399,0.9
			c0,0.334-0.133,0.617-0.399,0.85c-0.233,0.268-0.517,0.4-0.851,0.4C59.382,280.876,59.082,280.743,58.849,280.476 M57.998,273.726
			c0.5,0,0.917,0.184,1.25,0.551c0.334,0.334,0.5,0.75,0.5,1.25c0,0.467-0.166,0.883-0.5,1.25c-0.333,0.334-0.75,0.5-1.25,0.5
			s-0.916-0.166-1.25-0.5c-0.366-0.367-0.55-0.783-0.55-1.25c0-0.5,0.184-0.916,0.55-1.25
			C57.082,273.909,57.498,273.726,57.998,273.726 M66.849,278.577c0.466,0.465,0.7,1.033,0.7,1.699s-0.234,1.232-0.7,1.699
			c-0.467,0.467-1.034,0.701-1.7,0.701s-1.233-0.234-1.7-0.701c-0.466-0.467-0.7-1.033-0.7-1.699s0.234-1.234,0.7-1.699
			c0.467-0.467,1.034-0.701,1.7-0.701S66.382,278.11,66.849,278.577"/>
	</g>
	<g>
		<path fill-opacity="0.051" d="M80.68,185.71c0-2.635,1.699-4.885,5.1-6.75c3.4-1.867,7.533-2.801,12.4-2.801
			c4.833,0,8.949,0.934,12.35,2.801c3.434,1.865,5.15,4.115,5.15,6.75c0,2.633-1.717,4.865-5.15,6.699
			c-3.4,1.834-7.517,2.75-12.35,2.75c-4.867,0-9-0.916-12.4-2.75S80.68,188.343,80.68,185.71"/>
		<path fill="#F19CB7" d="M93.329,172.81c0.866-0.801,1.866-1.184,3-1.15c0.967-0.033,1.7,0.35,2.2,1.15
			c0.4,0.766,0.416,1.666,0.05,2.699l-4.05,10.451c-1.7,1.666-3.301,1.666-4.801,0l2-10.451
			C91.896,174.476,92.43,173.575,93.329,172.81 M100.879,174.11c-0.1-1.068,0.15-1.967,0.75-2.701c0.7-0.834,1.566-1.232,2.6-1.199
			c1.067-0.033,1.934,0.365,2.601,1.199c0.7,0.734,1,1.633,0.899,2.701l-0.799,10.449c-1.467,1.5-3.066,1.5-4.801,0L100.879,174.11"
			/>
		<path fill="#F19CB7" d="M100.68,140.11c3.633,0,6.732,1.283,9.299,3.85c2.567,2.6,3.851,5.699,3.851,9.299v18.602
			c0,2.232-1.283,4.133-3.851,5.699c-2.566,1.566-5.666,2.35-9.299,2.35c-3.634,0-6.734-0.783-9.301-2.35s-3.85-3.467-3.85-5.699
			v-18.602c0-3.6,1.283-6.699,3.85-9.299C93.945,141.394,97.046,140.11,100.68,140.11"/>
		<path fill="#FFFFFF" d="M107.18,147.81c0.934,0.967,1.399,2.084,1.399,3.35l-0.05,0.801c-0.166,0.898-0.617,1.699-1.35,2.4
			c-0.934,0.932-2.018,1.398-3.25,1.398c-1.334,0-2.467-0.467-3.4-1.398c-0.7-0.701-1.117-1.502-1.25-2.4l-0.051-0.801
			c0-1.266,0.434-2.383,1.301-3.35c0.934-0.934,2.066-1.4,3.4-1.4C105.162,146.409,106.246,146.876,107.18,147.81 M107.029,151.06
			c0-0.834-0.316-1.566-0.95-2.199c-0.634-0.602-1.351-0.9-2.149-0.9c-0.9,0-1.667,0.299-2.301,0.9c-0.6,0.633-0.9,1.365-0.9,2.199
			c0,0.867,0.301,1.584,0.9,2.15c0.634,0.633,1.4,0.949,2.301,0.949c0.799,0,1.516-0.316,2.149-0.949
			C106.713,152.644,107.029,151.927,107.029,151.06"/>
		<path fill="#A55B72" d="M107.029,151.06c0,0.867-0.316,1.584-0.95,2.15c-0.634,0.633-1.351,0.949-2.149,0.949
			c-0.9,0-1.667-0.316-2.301-0.949c-0.6-0.566-0.9-1.283-0.9-2.15c0-0.834,0.301-1.566,0.9-2.199c0.634-0.602,1.4-0.9,2.301-0.9
			c0.799,0,1.516,0.299,2.149,0.9C106.713,149.493,107.029,150.226,107.029,151.06 M108.229,159.11v0.5l-1.199,1.549
			c-0.9,0.701-1.967,1.051-3.2,1.051c-1.267,0-2.333-0.35-3.2-1.051c-0.633-0.467-1.016-1-1.15-1.6
			c-0.066-0.201-0.049-0.35,0.051-0.449c0.066-0.201,0.166-0.301,0.3-0.301h0.55l0.301,0.35l0.449,0.75l0.301,0.301
			c0.666,0.5,1.467,0.75,2.399,0.75c0.934,0,1.733-0.25,2.399-0.75l0.4-0.301l0.4-0.799l0.35-0.301c0.134-0.1,0.283-0.1,0.45,0h0.05
			L108.229,159.11"/>
		<path fill="#F19CB7" d="M81.43,171.86c-0.101-5.102,2.266-8.602,7.1-10.5l0.15-0.051v5.6c-2.834-0.066-4.234,1.566-4.201,4.9
			c0,0.434-0.133,0.801-0.399,1.1c-0.3,0.301-0.667,0.451-1.101,0.451c-0.399,0-0.766-0.135-1.1-0.4
			C81.613,172.659,81.463,172.292,81.43,171.86 M110.829,161.31l0.2,0.051c4.834,1.898,7.184,5.398,7.05,10.5
			c-0.033,0.432-0.183,0.799-0.45,1.1c-0.3,0.266-0.666,0.4-1.1,0.4s-0.801-0.15-1.1-0.451c-0.268-0.299-0.4-0.666-0.4-1.1
			c0.066-3.334-1.334-4.967-4.2-4.9V161.31"/>
		<path fill="#FFFFFF" fill-opacity="0.2" d="M107.68,136.86c-1.601,0-2.951,0.566-4.051,1.699c-1.166,1.133-1.75,2.5-1.75,4.1
			c0,1.566,0.584,2.916,1.75,4.051c1.1,1.133,2.45,1.699,4.051,1.699c1.6,0,2.949-0.566,4.049-1.699
			c1.135-1.135,1.701-2.484,1.701-4.051c0-1.6-0.566-2.967-1.701-4.1C110.629,137.427,109.279,136.86,107.68,136.86 M112.629,137.06
			c3.301,3.299,4.95,7.266,4.95,11.9c0,4.666-1.649,8.65-4.95,11.949c-3.333,3.301-7.316,4.951-11.949,4.951
			c-4.634,0-8.601-1.65-11.9-4.951c-3.334-3.299-5-7.283-5-11.949c0-4.635,1.666-8.602,5-11.9c3.3-3.301,7.267-4.949,11.9-4.949
			C105.313,132.11,109.296,133.759,112.629,137.06"/>
		<path fill="#FFFFFF" fill-opacity="0.302" d="M107.68,136.86c1.6,0,2.949,0.566,4.049,1.699c1.135,1.133,1.701,2.5,1.701,4.1
			c0,1.566-0.566,2.916-1.701,4.051c-1.1,1.133-2.449,1.699-4.049,1.699c-1.601,0-2.951-0.566-4.051-1.699
			c-1.166-1.135-1.75-2.484-1.75-4.051c0-1.6,0.584-2.967,1.75-4.1C104.729,137.427,106.079,136.86,107.68,136.86"/>
		<path fill="#FFFFFF" d="M112.629,137.06c-3.333-3.301-7.316-4.949-11.949-4.949c-4.634,0-8.601,1.648-11.9,4.949
			c-3.334,3.299-5,7.266-5,11.9c0,4.666,1.666,8.65,5,11.949c3.3,3.301,7.267,4.951,11.9,4.951c4.633,0,8.616-1.65,11.949-4.951
			c3.301-3.299,4.95-7.283,4.95-11.949C117.579,144.325,115.93,140.358,112.629,137.06 M100.68,129.06
			c5.5,0,10.217,1.949,14.149,5.85c3.866,3.867,5.8,8.551,5.8,14.051c0,5.533-1.934,10.25-5.8,14.15
			c-3.933,3.865-8.649,5.799-14.149,5.799s-10.184-1.934-14.051-5.799c-3.934-3.9-5.9-8.617-5.9-14.15
			c0-5.5,1.967-10.184,5.9-14.051C90.496,131.009,95.18,129.06,100.68,129.06"/>
		<path fill="#F3AFC5" fill-opacity="0.502" d="M100.729,175.31l0.75,0.6c0.168,0.301,0.217,0.617,0.15,0.951l-0.6,0.75l-0.95,0.148
			l-0.8-0.6c-0.133-0.299-0.166-0.617-0.1-0.949c0.1-0.334,0.299-0.584,0.6-0.75L100.729,175.31 M103.079,173.81
			c0.167-0.666,0.55-1.15,1.149-1.449c0.567-0.367,1.168-0.451,1.801-0.25c0.666,0.166,1.15,0.533,1.449,1.1
			c0.367,0.566,0.451,1.184,0.25,1.85c-0.166,0.633-0.533,1.117-1.1,1.449c-0.566,0.334-1.184,0.418-1.85,0.25
			c-0.633-0.166-1.117-0.549-1.45-1.148C102.996,175.042,102.912,174.442,103.079,173.81 M95.129,173.409
			c0.1-0.467,0.367-0.816,0.801-1.049l1.399-0.201c0.434,0.133,0.767,0.4,1,0.801c0.267,0.434,0.351,0.883,0.25,1.35
			c-0.167,0.467-0.45,0.834-0.851,1.1l-1.35,0.15c-0.467-0.1-0.833-0.367-1.1-0.801C95.046,174.325,94.996,173.876,95.129,173.409"
			/>
	</g>
	<g>
		<path fill="#8DC435" d="M196.006,276.499l2.913-1.457l0.029,0.029l5.157,3.643l-1.166,6.701l4.458,4.021l6.03-1.982l1.516,0.963
			l-7.342,3.699h-0.03l-11.565-5.77V276.499"/>
		<path fill="#73AA1B" d="M193.471,293.806l-0.029-0.029l0.029-0.059l2.535-6.205l11.565,5.77l0.03,9.904l-7.925-6.408l-4.953,0.436
			L193.471,293.806"/>
		<path fill="#A3774C" d="M193.471,293.806l-1.923,4.604v-15.324l1.719-2.506l1.37,4.836l-1.166,8.303l-0.029,0.059L193.471,293.806
			"/>
		<path fill="#689A19" d="M193.267,280.579v-0.029l2.739-4.051v9.848v1.166l-2.535,6.205l1.166-8.303L193.267,280.579"/>
		<path fill="#A6D162" d="M196.006,286.347l11.565,5.77h0.03l7.342-3.699l0.028,0.027l0.991,0.643l-8.361,4.195h-0.03l-11.565-5.77
			V286.347"/>
		<path fill="#B08052" d="M207.631,306.421h-0.029l-16.054-8.012l1.923-4.604l1.253,3.408l4.953-0.436l7.925,6.408l0.029-0.029
			V306.421"/>
		<path fill="#7CB422" d="M207.602,303.187l-0.03-9.904h0.03l8.361-4.195l-8.332,14.07L207.602,303.187"/>
		<path fill="#CA9A6C" d="M198.948,275.071c2.894-1.436,5.778-2.883,8.653-4.34l11.508,5.768v9.848l-4.138,2.098l-0.028-0.027
			l-1.516-0.963l-6.03,1.982l-4.458-4.021l1.166-6.701L198.948,275.071"/>
		<path fill="#D6B08D" d="M215.963,289.087l-0.991-0.643l4.138-2.098v1.166L215.963,289.087"/>
		<path fill="#BD8B5C" d="M223.596,298.409l-15.965,8.012v-3.264l8.332-14.07l3.146-1.574L223.596,298.409"/>
	</g>
	
		<linearGradient id="SVGID_4_" gradientUnits="userSpaceOnUse" x1="-191.3262" y1="-35643.0039" x2="1452.6079" y2="-35643.0039" gradientTransform="matrix(0 -0.0132 -0.0121 0 -244.5314 303.8036)">
		<stop  offset="0" style="stop-color:#8DC435"/>
		<stop  offset="1" style="stop-color:#73AA1B"/>
	</linearGradient>
	<path fill="url(#SVGID_4_)" d="M184.199,298.479c1.733-4.635,1.733-8.75,0-12.352l0.75-0.549c2.9,3.365,4.434,7.133,4.6,11.299
		c1.2-1.033,2.6-1.6,4.2-1.699l0.5,0.6c-1.434,2.301-2.333,4.9-2.7,7.801c-2.934,2.4-6.184,2.4-9.75,0
		c-0.666-2.6-1.517-4.834-2.55-6.701l0.351-1C181.433,296.378,182.966,297.245,184.199,298.479"/>
	<g>
		<path fill-opacity="0.0314" d="M136.611,258.88c2.831,0,5.247,0.733,7.244,2.201c1.999,1.49,2.998,3.285,2.998,5.385
			c0,2.125-0.999,3.908-2.998,5.35c-1.997,1.492-4.413,2.238-7.244,2.238c-2.858,0-5.286-0.746-7.283-2.238
			c-1.974-1.441-2.959-3.225-2.959-5.35c0-2.1,0.985-3.895,2.959-5.385C131.325,259.613,133.753,258.88,136.611,258.88"/>
		<path fill="#73AA1B" d="M136.611,224.018l0.379-0.037c1.467,0,2.718,0.519,3.755,1.555c1.037,1.063,1.556,2.326,1.556,3.793
			v35.015c0,1.012-0.519,1.871-1.556,2.578c-1.037,0.709-2.288,1.063-3.755,1.063h-0.379V224.018"/>
		
			<linearGradient id="SVGID_5_" gradientUnits="userSpaceOnUse" x1="-5512.5674" y1="-7164.0996" x2="-4270.5947" y2="-7164.0996" gradientTransform="matrix(0 0.0354 0.0352 0 386.322 419.1624)">
			<stop  offset="0" style="stop-color:#73AA1B"/>
			<stop  offset="1" style="stop-color:#6A9F15"/>
		</linearGradient>
		<path fill="url(#SVGID_5_)" d="M136.611,224.018v43.966c-1.316-0.049-2.44-0.404-3.377-1.063
			c-1.036-0.707-1.555-1.566-1.555-2.578v-35.015c0-1.467,0.519-2.73,1.555-3.793C134.171,224.601,135.295,224.095,136.611,224.018"
			/>
		
			<linearGradient id="SVGID_6_" gradientUnits="userSpaceOnUse" x1="-1811.5078" y1="239.4189" x2="-568.6079" y2="239.4189" gradientTransform="matrix(0.0055 0 0 -0.0151 465.2076 388.1342)">
			<stop  offset="0" style="stop-color:#71A621"/>
			<stop  offset="1" style="stop-color:#7AB71E"/>
		</linearGradient>
		<path fill="url(#SVGID_6_)" d="M149.166,232.706v8.27c-0.05,2.123-0.834,3.944-2.352,5.461l-0.037,0.039
			c-1.266,1.289-2.758,2.06-4.477,2.313v-4.172l0.759-0.569l0.037-0.037c0.532-0.507,0.797-1.138,0.797-1.896v-9.407
			c0-0.734,0.254-1.354,0.759-1.86c0.531-0.53,1.15-0.796,1.858-0.796c0.733,0,1.353,0.266,1.859,0.796
			C148.901,231.353,149.166,231.972,149.166,232.706"/>
		
			<linearGradient id="SVGID_7_" gradientUnits="userSpaceOnUse" x1="-1811.6997" y1="248.5059" x2="-568.6779" y2="248.5059" gradientTransform="matrix(-0.0055 0 0 0.015 427.9926 351.5995)">
			<stop  offset="0" style="stop-color:#71A621"/>
			<stop  offset="1" style="stop-color:#7AB71E"/>
		</linearGradient>
		<path fill="url(#SVGID_7_)" d="M130.124,241.81v9.408c0,0.758,0.265,1.39,0.797,1.896l0.037,0.037l0.722,0.531v4.174
			c-1.721-0.229-3.199-0.987-4.438-2.277l-0.038-0.038c-1.518-1.517-2.301-3.339-2.352-5.462v-8.27c0-0.733,0.266-1.354,0.796-1.859
			c0.507-0.531,1.126-0.796,1.859-0.796c0.708,0,1.328,0.265,1.858,0.796C129.87,240.456,130.124,241.076,130.124,241.81"/>
	</g>
	<linearGradient id="SVGID_8_" gradientUnits="userSpaceOnUse" x1="163.1729" y1="149.5708" x2="163.1729" y2="127.5708">
		<stop  offset="0" style="stop-color:#E39333"/>
		<stop  offset="1" style="stop-color:#C97919"/>
	</linearGradient>
	<path fill="url(#SVGID_8_)" d="M179.673,140.663v2.201h-33v-2.201c3.066-1.434,6.016-3.35,8.85-5.75c5.1-5.398,10.199-5.398,15.3,0
		C173.655,137.313,176.606,139.229,179.673,140.663"/>
	<path fill="#9F7348" d="M17.498,210.46v-2l1,0.199l2.25,0.201h0.25h0.25l3.25-0.4v2l-3.25,0.4h-0.25h-0.25l-2.25-0.201
		L17.498,210.46"/>
	<g>
		<path fill-opacity="0.0314" d="M34.498,220.86c0,2.799-1.316,5.15-3.951,7.049c-2.633,1.967-5.816,2.951-9.549,2.951
			c-3.768,0-6.967-0.984-9.6-2.951c-2.602-1.898-3.9-4.25-3.9-7.049c0-2.768,1.299-5.135,3.9-7.1c2.633-1.934,5.832-2.9,9.6-2.9
			c3.732,0,6.916,0.967,9.549,2.9C33.182,215.726,34.498,218.093,34.498,220.86"/>
		<path fill="#B08052" d="M17.498,210.46l1,0.199l2.25,0.201h0.25h0.25l3.25-0.4v9.449c-0.033,0.768-0.367,1.451-1,2.051
			c-0.602,0.533-1.352,0.834-2.25,0.9h-0.25c-0.934,0-1.75-0.301-2.451-0.9c-0.666-0.6-1.016-1.283-1.049-2.051V210.46"/>
		<path fill="#44A166" d="M20.797,129.86h3.201l8.85,52.949c1.699,10.033,2.551,16.066,2.551,18.1c0,4.268-1.484,7.918-4.451,10.951
			c-2.834,2.865-6.217,4.365-10.15,4.5V129.86"/>
		
			<linearGradient id="SVGID_9_" gradientUnits="userSpaceOnUse" x1="-7658.6807" y1="-4934.7061" x2="-6020.75" y2="-4934.7061" gradientTransform="matrix(0 0.0522 0.0528 0 274.0497 530.1436)">
			<stop  offset="0" style="stop-color:#44A166"/>
			<stop  offset="1" style="stop-color:#3A915A"/>
		</linearGradient>
		<path fill="url(#SVGID_9_)" d="M20.797,129.86v86.5c-3.934-0.135-7.316-1.635-10.148-4.5c-2.967-3.033-4.451-6.684-4.451-10.951
			c0-2.033,0.85-8.066,2.551-18.1l8.85-52.949H20.797"/>
	</g>
	<g>
		<path fill-opacity="0.0314" d="M47.131,232.702c0,1.911-0.898,3.517-2.697,4.813c-1.797,1.344-3.971,2.016-6.52,2.016
			c-2.572,0-4.756-0.672-6.554-2.016c-1.776-1.296-2.663-2.901-2.663-4.813c0-1.889,0.887-3.506,2.663-4.847
			c1.798-1.32,3.981-1.98,6.554-1.98c2.549,0,4.723,0.66,6.52,1.98C46.232,229.196,47.131,230.813,47.131,232.702"/>
		<path fill="#9F7348" d="M35.525,225.603v-1.366l0.683,0.136l1.536,0.138h0.17h0.171l2.219-0.273v1.366l-2.219,0.272h-0.171h-0.17
			l-1.536-0.138L35.525,225.603"/>
		<path fill="#B08052" d="M35.525,225.603l0.683,0.135l1.536,0.138h0.17h0.171l2.219-0.272v6.451
			c-0.022,0.523-0.25,0.99-0.683,1.399c-0.41,0.364-0.923,0.569-1.536,0.614h-0.171c-0.637,0-1.194-0.205-1.673-0.614
			c-0.455-0.409-0.693-0.876-0.716-1.399V225.603"/>
		<path fill="#44A166" d="M37.777,170.574h2.186l6.042,36.15c1.16,6.85,1.741,10.969,1.741,12.356c0,2.913-1.014,5.406-3.039,7.477
			c-1.935,1.957-4.244,2.98-6.93,3.072V170.574"/>
		
			<linearGradient id="SVGID_10_" gradientUnits="userSpaceOnUse" x1="-6881.7607" y1="-4569.2441" x2="-5763.5054" y2="-4569.2441" gradientTransform="matrix(0 0.0522 0.0528 0 274.0497 530.1436)">
			<stop  offset="0" style="stop-color:#44A166"/>
			<stop  offset="1" style="stop-color:#3A915A"/>
		</linearGradient>
		<path fill="url(#SVGID_10_)" d="M37.777,170.574v59.056c-2.686-0.092-4.995-1.115-6.929-3.072
			c-2.025-2.07-3.039-4.563-3.039-7.477c0-1.388,0.58-5.507,1.741-12.356l6.042-36.15H37.777"/>
	</g>
</g>
</svg>
