<?xml version="1.0" encoding="utf-8"?>
<!-- Generator: Adobe Illustrator 15.0.0, SVG Export Plug-In . SVG Version: 6.00 Build 0)  -->
<!DOCTYPE svg PUBLIC "-//W3C//DTD SVG 1.1//EN" "http://www.w3.org/Graphics/SVG/1.1/DTD/svg11.dtd">
<svg version="1.1" id="Layer_1" xmlns="http://www.w3.org/2000/svg" xmlns:xlink="http://www.w3.org/1999/xlink" x="0px" y="0px"
	 width="487.386px" height="443.839px" viewBox="0 0 487.386 443.839" enable-background="new 0 0 487.386 443.839"
	 xml:space="preserve">
<g>
	<g>
		<g>
			<path fill="#DCF8FC" d="M455.38,185.171c-4.934-1.866-10.201,0.351-15.801,6.649l-0.4,0.4c-3.332,4.233-6.865,6.733-10.6,7.5
				h-0.4l-5.25-0.35v-0.051c-2.533-3.166-5.15-5.35-7.85-6.549c-1.633-0.734-3.301-1.084-5-1.051l-3.449,0.45
				c-3.334,1.333-6.867,0.733-10.602-1.8l-0.398-0.301c-1.734-1.266-3.484-2.933-5.251-5v-10.899l32.149,16.05l32.852-16.05V185.171
				"/>
			<path fill="#BBCBCC" d="M455.38,185.171v11l-32.451,16.25l-32.55-16.25V185.07c1.767,2.067,3.517,3.734,5.251,5l0.398,0.301
				c3.734,2.533,7.268,3.133,10.602,1.8l3.449-0.45c1.699-0.033,3.367,0.316,5,1.051c2.699,1.199,5.316,3.383,7.85,6.549v0.051
				l5.25,0.35h0.4c3.734-0.767,7.268-3.267,10.6-7.5l0.4-0.4C445.179,185.521,450.447,183.305,455.38,185.171"/>
			<path fill="#F5FDFF" d="M455.38,174.171l-32.852,16.05l-32.149-16.05v-2l32.55,16.25l32.451-16.25V174.171"/>
			<path fill="#E9FCFF" d="M390.379,172.171v-32.5l32.55-16.25l32.451,16.25v32.5l-32.451,16.25L390.379,172.171"/>
			<path fill-opacity="0.102" d="M422.929,212.421l-32.55-16.25v-22l32.55,16.25V212.421"/>
		</g>
		<path fill="#BBCBCC" d="M390.23,194.819l32.152,16.05l32.848-16.05v22l-32.449,16.25l-32.551-16.25V194.819"/>
		<path fill-opacity="0.102" d="M390.23,194.819l32.551,16.25v22l-32.551-16.25V194.819"/>
		<g>
			<path fill="#BBCBCC" d="M390.23,216.324l32.152,16.05l32.848-16.05v22l-32.449,16.251l-32.551-16.251V216.324"/>
			<path fill-opacity="0.102" d="M390.23,216.324l32.551,16.25v22.001l-32.551-16.251V216.324"/>
		</g>
	</g>
	<g>
		<path fill="#E7DFC2" d="M487.386,298.486c-4.934-1.867-10.199,0.35-15.799,6.65l-0.4,0.4c-3.334,4.232-6.867,6.732-10.6,7.5h-0.4
			l-5.25-0.35v-0.051c-2.533-3.166-5.15-5.35-7.849-6.551c-1.636-0.732-3.302-1.082-5.001-1.049l-3.451,0.449
			c-3.332,1.334-6.865,0.734-10.6-1.799l-0.4-0.301c-1.732-1.268-3.482-2.934-5.25-5v-10.9l32.15,16.051l32.85-16.051V298.486"/>
		<path fill="#C58F5C" d="M487.386,298.486v11c-10.799,5.434-21.615,10.85-32.449,16.25l-32.551-16.25v-11.1
			c1.768,2.066,3.518,3.732,5.25,5l0.4,0.301c3.734,2.533,7.268,3.133,10.6,1.799l3.451-0.449c1.699-0.033,3.365,0.316,5.001,1.049
			c2.698,1.201,5.315,3.385,7.849,6.551v0.051l5.25,0.35h0.4c3.732-0.768,7.266-3.268,10.6-7.5l0.4-0.4
			C477.187,298.835,482.453,296.619,487.386,298.486"/>
		<path fill="#F5EFDA" d="M487.386,287.486l-32.85,16.051l-32.15-16.051v-2l32.551,16.25c10.834-5.4,21.65-10.816,32.449-16.25
			V287.486"/>
		<path fill="#EEE7CD" d="M422.386,285.486v-32.499l32.551-16.25l32.449,16.25v32.499c-10.799,5.434-21.615,10.85-32.449,16.25
			L422.386,285.486"/>
	</g>
	<g>
		<g>
			<path fill="#DCF8FC" d="M325.059,99.425c-4.934-1.866-10.201,0.351-15.801,6.649l-0.4,0.4c-3.332,4.233-6.865,6.733-10.6,7.5
				h-0.4l-5.25-0.35v-0.051c-2.533-3.166-5.15-5.35-7.85-6.549c-1.633-0.734-3.301-1.084-5-1.051l-3.449,0.45
				c-3.334,1.333-6.867,0.733-10.602-1.8l-0.398-0.301c-1.734-1.266-3.484-2.933-5.251-5V88.425l32.149,16.05l32.852-16.05V99.425"
				/>
			<path fill="#BBCBCC" d="M325.059,99.425v11l-32.451,16.25l-32.55-16.25V99.324c1.767,2.067,3.517,3.734,5.251,5l0.398,0.301
				c3.734,2.533,7.268,3.133,10.602,1.8l3.449-0.45c1.699-0.033,3.367,0.316,5,1.051c2.699,1.199,5.316,3.383,7.85,6.549v0.051
				l5.25,0.35h0.4c3.734-0.767,7.268-3.267,10.6-7.5l0.4-0.4C314.858,99.775,320.125,97.559,325.059,99.425"/>
			<path fill="#F5FDFF" d="M325.059,88.425l-32.852,16.05l-32.149-16.05v-2l32.55,16.25l32.451-16.25V88.425"/>
			<path fill="#E9FCFF" d="M260.058,86.425v-32.5l32.55-16.25l32.451,16.25v32.5l-32.451,16.25L260.058,86.425"/>
			<path fill-opacity="0.102" d="M292.608,126.675l-32.55-16.25v-22l32.55,16.25V126.675"/>
		</g>
		<g>
			<path fill="#BBCBCC" d="M259.91,109.073l32.15,16.05l32.85-16.05v22l-32.45,16.25l-32.55-16.25V109.073"/>
			<path fill-opacity="0.102" d="M259.91,109.073l32.55,16.25v22l-32.55-16.25V109.073"/>
			<g>
				<path fill="#BBCBCC" d="M259.91,130.578l32.15,16.05l32.85-16.05v22l-32.45,16.25l-32.55-16.25V130.578"/>
				<path fill-opacity="0.102" d="M259.91,130.578l32.55,16.25v22l-32.55-16.25V130.578"/>
			</g>
			<g>
				<path fill="#BBCBCC" d="M259.959,152.015l32.15,16.05l32.85-16.05v22l-32.45,16.25l-32.55-16.25V152.015"/>
				<path fill-opacity="0.102" d="M259.959,152.015l32.55,16.25v22l-32.55-16.25V152.015"/>
			</g>
			<g>
				<path fill="#BBCBCC" d="M259.91,174.015l32.15,16.05l32.85-16.05v22l-32.45,16.25l-32.55-16.25V174.015"/>
				<path fill-opacity="0.102" d="M259.91,174.015l32.55,16.25v22l-32.55-16.25V174.015"/>
			</g>
			<g>
				<path fill="#BBCBCC" d="M260.009,195.14l32.15,16.05l32.85-16.05v22l-32.45,16.25l-32.55-16.25V195.14"/>
				<path fill-opacity="0.102" d="M260.009,195.14l32.55,16.25v22l-32.55-16.25V195.14"/>
			</g>
		</g>
	</g>
	<g>
		<g>
			<path fill="#DCF8FC" d="M390.059,139.396c-4.934-1.866-10.201,0.351-15.801,6.649l-0.4,0.4c-3.332,4.233-6.865,6.733-10.6,7.5
				h-0.4l-5.25-0.35v-0.051c-2.533-3.166-5.15-5.35-7.85-6.549c-1.633-0.734-3.301-1.084-5-1.051l-3.449,0.45
				c-3.334,1.333-6.867,0.733-10.602-1.8l-0.398-0.301c-1.734-1.266-3.484-2.933-5.251-5v-10.899l32.149,16.05l32.852-16.05V139.396
				"/>
			<path fill="#BBCBCC" d="M390.059,139.396v11l-32.451,16.25l-32.55-16.25v-11.101c1.767,2.067,3.517,3.734,5.251,5l0.398,0.301
				c3.734,2.533,7.268,3.133,10.602,1.8l3.449-0.45c1.699-0.033,3.367,0.316,5,1.051c2.699,1.199,5.316,3.383,7.85,6.549v0.051
				l5.25,0.35h0.4c3.734-0.767,7.268-3.267,10.6-7.5l0.4-0.4C379.858,139.747,385.125,137.53,390.059,139.396"/>
			<path fill="#F5FDFF" d="M390.059,128.396l-32.852,16.05l-32.149-16.05v-2l32.55,16.25l32.451-16.25V128.396"/>
			<path fill="#E9FCFF" d="M325.058,126.396v-32.5l32.55-16.25l32.451,16.25v32.5l-32.451,16.25L325.058,126.396"/>
			<path fill-opacity="0.102" d="M357.608,166.646l-32.55-16.25v-22l32.55,16.25V166.646"/>
		</g>
		<g>
			<path fill="#BBCBCC" d="M324.91,149.044l32.15,16.05l32.85-16.05v22l-32.45,16.25l-32.55-16.25V149.044"/>
			<path fill-opacity="0.102" d="M324.91,149.044l32.55,16.25v22l-32.55-16.25V149.044"/>
			<g>
				<path fill="#BBCBCC" d="M324.91,170.55l32.15,16.05l32.85-16.05v22l-32.45,16.25l-32.55-16.25V170.55"/>
				<path fill-opacity="0.102" d="M324.91,170.55l32.55,16.25v22l-32.55-16.25V170.55"/>
			</g>
			<g>
				<path fill="#BBCBCC" d="M324.959,191.986l32.15,16.05l32.85-16.05v22l-32.45,16.25l-32.55-16.25V191.986"/>
				<path fill-opacity="0.102" d="M324.959,191.986l32.55,16.25v22l-32.55-16.25V191.986"/>
			</g>
			<g>
				<path fill="#BBCBCC" d="M324.91,213.986l32.15,16.05l32.85-16.05v22l-32.45,16.25l-32.55-16.25V213.986"/>
				<path fill-opacity="0.102" d="M324.91,213.986l32.55,16.25v22l-32.55-16.25V213.986"/>
			</g>
			<g>
				<path fill="#BBCBCC" d="M325.009,235.111l32.15,16.051l32.85-16.051v22l-32.45,16.25l-32.55-16.25V235.111"/>
				<path fill-opacity="0.102" d="M325.009,235.111l32.55,16.25v22l-32.55-16.25V235.111"/>
			</g>
		</g>
	</g>
	<g>
		<g>
			<path fill="#DCF8FC" d="M357.486,188.504c-4.934-1.866-10.201,0.351-15.801,6.649l-0.4,0.4c-3.332,4.233-6.865,6.733-10.6,7.5
				h-0.4l-5.25-0.35v-0.051c-2.533-3.166-5.15-5.35-7.85-6.549c-1.633-0.734-3.301-1.084-5-1.051l-3.449,0.45
				c-3.334,1.333-6.867,0.733-10.602-1.8l-0.398-0.301c-1.734-1.266-3.484-2.933-5.251-5v-10.899l32.149,16.05l32.852-16.05V188.504
				"/>
			<path fill="#BBCBCC" d="M357.486,188.504v11l-32.451,16.25l-32.55-16.25v-11.101c1.767,2.067,3.517,3.734,5.251,5l0.398,0.301
				c3.734,2.533,7.268,3.133,10.602,1.8l3.449-0.45c1.699-0.033,3.367,0.316,5,1.051c2.699,1.199,5.316,3.383,7.85,6.549v0.051
				l5.25,0.35h0.4c3.734-0.767,7.268-3.267,10.6-7.5l0.4-0.4C347.285,188.854,352.552,186.638,357.486,188.504"/>
			<path fill="#F5FDFF" d="M357.486,177.504l-32.852,16.05l-32.149-16.05v-2l32.55,16.25l32.451-16.25V177.504"/>
			<path fill="#E9FCFF" d="M292.485,175.504v-32.5l32.55-16.25l32.451,16.25v32.5l-32.451,16.25L292.485,175.504"/>
			<path fill-opacity="0.102" d="M325.035,215.754l-32.55-16.25v-22l32.55,16.25V215.754"/>
		</g>
		<g>
			<path fill="#BBCBCC" d="M292.335,198.152l32.15,16.05l32.85-16.05v22l-32.449,16.25l-32.551-16.25V198.152"/>
			<path fill-opacity="0.102" d="M292.335,198.152l32.551,16.25v22l-32.551-16.25V198.152"/>
			<g>
				<path fill="#BBCBCC" d="M292.335,219.657l32.15,16.049l32.85-16.049v22l-32.449,16.25l-32.551-16.25V219.657"/>
				<path fill-opacity="0.102" d="M292.335,219.657l32.551,16.25v22l-32.551-16.25V219.657"/>
			</g>
			<g>
				<path fill="#BBCBCC" d="M292.386,241.093l32.15,16.051l32.85-16.051v22l-32.451,16.25l-32.549-16.25V241.093"/>
				<path fill-opacity="0.102" d="M292.386,241.093l32.549,16.25v22l-32.549-16.25V241.093"/>
			</g>
			<g>
				<path fill="#BBCBCC" d="M292.335,263.093l32.15,16.051l32.85-16.051v22l-32.449,16.25l-32.551-16.25V263.093"/>
				<path fill-opacity="0.102" d="M292.335,263.093l32.551,16.25v22l-32.551-16.25V263.093"/>
			</g>
			<g>
				<path fill="#BBCBCC" d="M292.435,284.218l32.15,16.051l32.85-16.051v22l-32.449,16.25l-32.551-16.25V284.218"/>
				<path fill-opacity="0.102" d="M292.435,284.218l32.551,16.25v22l-32.551-16.25V284.218"/>
			</g>
		</g>
	</g>
	<g>
		<g>
			<path fill="#DCF8FC" d="M422.783,232.688c-4.934-1.866-10.201,0.351-15.801,6.649l-0.4,0.4c-3.332,4.233-6.865,6.733-10.6,7.5
				h-0.4l-5.25-0.35v-0.051c-2.533-3.166-5.15-5.35-7.85-6.549c-1.633-0.734-3.301-1.084-5-1.051l-3.449,0.45
				c-3.334,1.333-6.867,0.733-10.602-1.8l-0.398-0.301c-1.734-1.266-3.484-2.933-5.251-5v-10.899l32.149,16.05l32.852-16.05V232.688
				"/>
			<path fill="#BBCBCC" d="M422.783,232.688v11l-32.451,16.25l-32.55-16.25v-11.101c1.767,2.067,3.517,3.734,5.251,5l0.398,0.301
				c3.734,2.533,7.268,3.133,10.602,1.8l3.449-0.45c1.699-0.033,3.367,0.316,5,1.051c2.699,1.199,5.316,3.383,7.85,6.549v0.051
				l5.25,0.35h0.4c3.734-0.767,7.268-3.267,10.6-7.5l0.4-0.4C412.582,233.039,417.849,230.822,422.783,232.688"/>
			<path fill="#F5FDFF" d="M422.783,221.688l-32.852,16.05l-32.149-16.05v-2l32.55,16.25l32.451-16.25V221.688"/>
			<path fill="#E9FCFF" d="M357.782,219.688v-32.5l32.55-16.25l32.451,16.25v32.5l-32.451,16.25L357.782,219.688"/>
			<path fill-opacity="0.102" d="M390.332,259.938l-32.55-16.25v-22l32.55,16.25V259.938"/>
		</g>
		<g>
			<path fill="#BBCBCC" d="M357.632,242.335l32.15,16.051l32.85-16.051v22l-32.449,16.25l-32.551-16.25V242.335"/>
			<path fill-opacity="0.102" d="M357.632,242.335l32.551,16.25v22l-32.551-16.25V242.335"/>
			<g>
				<path fill="#BBCBCC" d="M357.632,263.841l32.15,16.05l32.85-16.05v22l-32.449,16.25l-32.551-16.25V263.841"/>
				<path fill-opacity="0.102" d="M357.632,263.841l32.551,16.25v22l-32.551-16.25V263.841"/>
			</g>
			<g>
				<path fill="#BBCBCC" d="M357.683,285.277l32.15,16.051l32.85-16.051v22l-32.451,16.25l-32.549-16.25V285.277"/>
				<path fill-opacity="0.102" d="M357.683,285.277l32.549,16.25v22l-32.549-16.25V285.277"/>
			</g>
			<g>
				<path fill="#BBCBCC" d="M357.632,307.277l32.15,16.051l32.85-16.051v22l-32.449,16.25l-32.551-16.25V307.277"/>
				<path fill-opacity="0.102" d="M357.632,307.277l32.551,16.25v22l-32.551-16.25V307.277"/>
			</g>
			<g>
				<path fill="#BBCBCC" d="M357.732,328.402l32.15,16.051l32.85-16.051v22l-32.449,16.25l-32.551-16.25V328.402"/>
				<path fill-opacity="0.102" d="M357.732,328.402l32.551,16.25v22l-32.551-16.25V328.402"/>
			</g>
		</g>
	</g>
	<g>
		<g>
			<path fill="#DCF8FC" d="M259.986,151.561c-4.934-1.866-10.201,0.351-15.801,6.649l-0.4,0.4c-3.332,4.233-6.865,6.733-10.6,7.5
				h-0.4l-5.25-0.35v-0.051c-2.533-3.166-5.15-5.35-7.85-6.549c-1.633-0.734-3.301-1.084-5-1.051l-3.449,0.45
				c-3.334,1.333-6.868,0.733-10.602-1.8l-0.398-0.301c-1.734-1.266-3.484-2.933-5.25-5v-10.899l32.149,16.05l32.852-16.05V151.561"
				/>
			<path fill="#BBCBCC" d="M259.986,151.561v11l-32.451,16.25l-32.55-16.25V151.46c1.766,2.067,3.516,3.734,5.25,5l0.398,0.301
				c3.734,2.533,7.268,3.133,10.602,1.8l3.449-0.45c1.699-0.033,3.367,0.316,5,1.051c2.699,1.199,5.316,3.383,7.85,6.549v0.051
				l5.25,0.35h0.4c3.734-0.767,7.268-3.267,10.6-7.5l0.4-0.4C249.785,151.911,255.052,149.694,259.986,151.561"/>
			<path fill="#F5FDFF" d="M259.986,140.561l-32.852,16.05l-32.149-16.05v-2l32.55,16.25l32.451-16.25V140.561"/>
			<path fill="#E9FCFF" d="M194.985,138.561v-32.5l32.55-16.25l32.451,16.25v32.5l-32.451,16.25L194.985,138.561"/>
			<path fill-opacity="0.102" d="M227.535,178.811l-32.55-16.25v-22l32.55,16.25V178.811"/>
		</g>
		<g>
			<path fill="#BBCBCC" d="M194.836,161.208l32.15,16.05l32.85-16.05v22l-32.449,16.25l-32.55-16.25V161.208"/>
			<path fill-opacity="0.102" d="M194.836,161.208l32.55,16.25v22l-32.55-16.25V161.208"/>
			<g>
				<path fill="#BBCBCC" d="M194.836,182.714l32.15,16.05l32.85-16.05v22l-32.449,16.25l-32.55-16.25V182.714"/>
				<path fill-opacity="0.102" d="M194.836,182.714l32.55,16.25v22l-32.55-16.25V182.714"/>
			</g>
			<g>
				<path fill="#BBCBCC" d="M194.886,204.15l32.151,16.05l32.85-16.05v22l-32.451,16.25l-32.549-16.25V204.15"/>
				<path fill-opacity="0.102" d="M194.886,204.15l32.549,16.25v22l-32.549-16.25V204.15"/>
			</g>
			<g>
				<path fill="#BBCBCC" d="M194.836,226.15l32.15,16.051l32.85-16.051v22l-32.449,16.25l-32.55-16.25V226.15"/>
				<path fill-opacity="0.102" d="M194.836,226.15l32.55,16.25v22l-32.55-16.25V226.15"/>
			</g>
			<g>
				<path fill="#BBCBCC" d="M194.936,247.275l32.15,16.051l32.85-16.051v22l-32.449,16.25l-32.55-16.25V247.275"/>
				<path fill-opacity="0.102" d="M194.936,247.275l32.55,16.25v22l-32.55-16.25V247.275"/>
			</g>
		</g>
	</g>
	<g>
		<g>
			<path fill="#C58F5C" d="M259.911,333.376l32.15,16.051l32.85-16.051v22l-32.45,16.25l-32.55-16.25V333.376"/>
			<path fill-opacity="0.102" d="M259.911,333.376l32.55,16.25v22l-32.55-16.25V333.376"/>
		</g>
		<g>
			<path fill="#8DC435" d="M259.911,310.001v-32.5c10.866-5.4,21.717-10.816,32.55-16.25l32.45,16.25v32.5l-32.45,16.25
				L259.911,310.001"/>
			<path fill="#80BE1F" d="M324.911,312.001v11.199l-5.399-4.301l-5.4,9.701l-5.4-4.301l-5.449,9.75l-5.4-4.299l-5.4,9.699
				l-5.4-9.699l-5.399,4.299l-5.45-9.75l-5.4,4.301l-5.399-9.701l-5.5,4.301v-11.199l32.55,16.25L324.911,312.001"/>
			<path fill="#C58F5C" d="M324.911,323.201v10.801l-32.45,16.25l-32.55-16.25v-10.801l5.5-4.301l5.399,9.701l5.4-4.301l5.45,9.75
				l5.399-4.299l5.4,9.699l5.4-9.699l5.4,4.299l5.449-9.75l5.4,4.301l5.4-9.701L324.911,323.201"/>
			<path fill="#A6D162" d="M324.911,310.001v2l-32.45,16.25l-32.55-16.25v-2l32.55,16.25L324.911,310.001"/>
			<path fill-opacity="0.102" d="M259.911,312.001l32.55,16.25v22l-32.55-16.25V312.001"/>
		</g>
	</g>
	<g>
		<g>
			<path fill="#C58F5C" d="M227.411,239.537l32.15,16.051l32.85-16.051v22l-32.45,16.25l-32.55-16.25V239.537"/>
			<path fill-opacity="0.102" d="M227.411,239.537l32.55,16.25v22l-32.55-16.25V239.537"/>
		</g>
		<g>
			<path fill="#8DC435" d="M227.411,216.162v-32.5c10.866-5.4,21.717-10.817,32.55-16.251l32.45,16.251v32.5l-32.45,16.25
				L227.411,216.162"/>
			<path fill="#80BE1F" d="M292.411,218.162v11.199l-5.399-4.301l-5.4,9.701l-5.4-4.301l-5.449,9.75l-5.4-4.299l-5.4,9.699
				l-5.4-9.699l-5.399,4.299l-5.45-9.75l-5.4,4.301l-5.399-9.701l-5.5,4.301v-11.199l32.55,16.25L292.411,218.162"/>
			<path fill="#C58F5C" d="M292.411,229.361v10.801l-32.45,16.25l-32.55-16.25v-10.801l5.5-4.301l5.399,9.701l5.4-4.301l5.45,9.75
				l5.399-4.299l5.4,9.699l5.4-9.699l5.4,4.299l5.449-9.75l5.4,4.301l5.4-9.701L292.411,229.361"/>
			<path fill="#A6D162" d="M292.411,216.162v2l-32.45,16.25l-32.55-16.25v-2l32.55,16.25L292.411,216.162"/>
			<path fill-opacity="0.102" d="M227.411,218.162l32.55,16.25v22l-32.55-16.25V218.162"/>
		</g>
	</g>
	<g>
		<g>
			<path fill="#C58F5C" d="M162.411,285.435l32.15,16.051l32.85-16.051v22l-32.45,16.25l-32.55-16.25V285.435"/>
			<path fill-opacity="0.102" d="M162.411,285.435l32.55,16.25v22l-32.55-16.25V285.435"/>
		</g>
		<g>
			<path fill="#8DC435" d="M162.411,262.062v-32.5c10.867-5.4,21.717-10.818,32.55-16.251l32.45,16.251v32.5l-32.45,16.25
				L162.411,262.062"/>
			<path fill="#80BE1F" d="M227.411,264.062v11.199l-5.399-4.301l-5.4,9.701l-5.4-4.301l-5.45,9.75l-5.4-4.299l-5.4,9.699
				l-5.4-9.699l-5.4,4.299l-5.45-9.75l-5.4,4.301l-5.4-9.701l-5.5,4.301v-11.199l32.55,16.25L227.411,264.062"/>
			<path fill="#C58F5C" d="M227.411,275.261v10.801l-32.45,16.25l-32.55-16.25v-10.801l5.5-4.301l5.4,9.701l5.4-4.301l5.45,9.75
				l5.4-4.299l5.4,9.699l5.4-9.699l5.4,4.299l5.45-9.75l5.4,4.301l5.4-9.701L227.411,275.261"/>
			<path fill="#A6D162" d="M227.411,262.062v2l-32.45,16.25l-32.55-16.25v-2l32.55,16.25L227.411,262.062"/>
			<path fill-opacity="0.102" d="M162.411,264.062l32.55,16.25v22l-32.55-16.25V264.062"/>
		</g>
	</g>
	<g>
		<g>
			<path fill="#C58F5C" d="M97.411,285.435l32.15,16.051l32.85-16.051v22l-32.45,16.25l-32.55-16.25V285.435"/>
			<path fill-opacity="0.102" d="M97.411,285.435l32.55,16.25v22l-32.55-16.25V285.435"/>
		</g>
		<g>
			<path fill="#8DC435" d="M97.411,262.062v-32.5c10.867-5.4,21.717-10.818,32.55-16.251l32.45,16.251v32.5l-32.45,16.25
				L97.411,262.062"/>
			<path fill="#80BE1F" d="M162.411,264.062v11.199l-5.4-4.301l-5.4,9.701l-5.4-4.301l-5.45,9.75l-5.4-4.299l-5.4,9.699l-5.4-9.699
				l-5.4,4.299l-5.45-9.75l-5.4,4.301l-5.4-9.701l-5.5,4.301v-11.199l32.55,16.25L162.411,264.062"/>
			<path fill="#C58F5C" d="M162.411,275.261v10.801l-32.45,16.25l-32.55-16.25v-10.801l5.5-4.301l5.4,9.701l5.4-4.301l5.45,9.75
				l5.4-4.299l5.4,9.699l5.4-9.699l5.4,4.299l5.45-9.75l5.4,4.301l5.4-9.701L162.411,275.261"/>
			<path fill="#A6D162" d="M162.411,262.062v2l-32.45,16.25l-32.55-16.25v-2l32.55,16.25L162.411,262.062"/>
			<path fill-opacity="0.102" d="M97.411,264.062l32.55,16.25v22l-32.55-16.25V264.062"/>
		</g>
	</g>
	<g>
		<g>
			<path fill="#C58F5C" d="M64.911,333.376l32.15,16.051l32.85-16.051v22l-32.45,16.25l-32.55-16.25V333.376"/>
			<path fill-opacity="0.102" d="M64.911,333.376l32.55,16.25v22l-32.55-16.25V333.376"/>
		</g>
		<g>
			<path fill="#8DC435" d="M64.911,310.001v-32.5c10.867-5.4,21.717-10.816,32.55-16.25l32.45,16.25v32.5l-32.45,16.25
				L64.911,310.001"/>
			<path fill="#80BE1F" d="M129.911,312.001v11.199l-5.4-4.301l-5.4,9.701l-5.4-4.301l-5.45,9.75l-5.4-4.299l-5.4,9.699l-5.4-9.699
				l-5.4,4.299l-5.45-9.75l-5.4,4.301l-5.4-9.701l-5.5,4.301v-11.199l32.55,16.25L129.911,312.001"/>
			<path fill="#C58F5C" d="M129.911,323.201v10.801l-32.45,16.25l-32.55-16.25v-10.801l5.5-4.301l5.4,9.701l5.4-4.301l5.45,9.75
				l5.4-4.299l5.4,9.699l5.4-9.699l5.4,4.299l5.45-9.75l5.4,4.301l5.4-9.701L129.911,323.201"/>
			<path fill="#A6D162" d="M129.911,310.001v2l-32.45,16.25l-32.55-16.25v-2l32.55,16.25L129.911,310.001"/>
			<path fill-opacity="0.102" d="M64.911,312.001l32.55,16.25v22l-32.55-16.25V312.001"/>
		</g>
	</g>
	<g>
		<g>
			<path fill="#C58F5C" d="M194.911,333.376l32.15,16.051l32.85-16.051v22l-32.45,16.25l-32.55-16.25V333.376"/>
			<path fill-opacity="0.102" d="M194.911,333.376l32.55,16.25v22l-32.55-16.25V333.376"/>
		</g>
		<g>
			<path fill="#8DC435" d="M194.911,310.001v-32.5c10.867-5.4,21.717-10.816,32.55-16.25l32.45,16.25v32.5l-32.45,16.25
				L194.911,310.001"/>
			<path fill="#80BE1F" d="M259.911,312.001v11.199l-5.399-4.301l-5.4,9.701l-5.4-4.301l-5.449,9.75l-5.4-4.299l-5.4,9.699
				l-5.4-9.699l-5.399,4.299l-5.45-9.75l-5.4,4.301l-5.4-9.701l-5.5,4.301v-11.199l32.55,16.25L259.911,312.001"/>
			<path fill="#C58F5C" d="M259.911,323.201v10.801l-32.45,16.25l-32.55-16.25v-10.801l5.5-4.301l5.4,9.701l5.4-4.301l5.45,9.75
				l5.399-4.299l5.4,9.699l5.4-9.699l5.4,4.299l5.449-9.75l5.4,4.301l5.4-9.701L259.911,323.201"/>
			<path fill="#A6D162" d="M259.911,310.001v2l-32.45,16.25l-32.55-16.25v-2l32.55,16.25L259.911,310.001"/>
			<path fill-opacity="0.102" d="M194.911,312.001l32.55,16.25v22l-32.55-16.25V312.001"/>
		</g>
	</g>
	<g>
		<path fill="#E7DFC2" d="M194.911,347.201c-4.934-1.867-10.2,0.35-15.8,6.65l-0.4,0.4c-3.333,4.232-6.866,6.732-10.6,7.5h-0.4
			l-5.25-0.35v-0.051c-2.533-3.166-5.15-5.35-7.85-6.551c-1.634-0.732-3.3-1.082-5-1.049l-3.45,0.449
			c-3.333,1.334-6.867,0.734-10.6-1.799l-0.4-0.301c-1.733-1.268-3.483-2.934-5.25-5v-10.9l32.15,16.051l32.85-16.051V347.201"/>
		<path fill="#C58F5C" d="M194.911,347.201v11c-10.8,5.434-21.617,10.85-32.45,16.25l-32.55-16.25v-11.1
			c1.767,2.066,3.517,3.732,5.25,5l0.4,0.301c3.733,2.533,7.267,3.133,10.6,1.799l3.45-0.449c1.7-0.033,3.366,0.316,5,1.049
			c2.7,1.201,5.316,3.385,7.85,6.551v0.051l5.25,0.35h0.4c3.733-0.768,7.267-3.268,10.6-7.5l0.4-0.4
			C184.71,347.55,189.977,345.333,194.911,347.201"/>
		<path fill="#F5EFDA" d="M194.911,336.201l-32.85,16.051l-32.15-16.051v-2l32.55,16.25c10.833-5.4,21.65-10.816,32.45-16.25
			V336.201"/>
		<path fill="#EEE7CD" d="M129.911,334.201v-32.5l32.55-16.25l32.45,16.25v32.5c-10.8,5.434-21.617,10.85-32.45,16.25
			L129.911,334.201"/>
	</g>
	<g>
		<path fill="#E7DFC2" d="M227.46,395.867c-4.934-1.867-10.2,0.35-15.8,6.65l-0.4,0.4c-3.333,4.232-6.866,6.732-10.6,7.5h-0.4
			l-5.25-0.35v-0.051c-2.533-3.166-5.15-5.35-7.85-6.551c-1.634-0.732-3.3-1.082-5-1.049l-3.45,0.449
			c-3.333,1.334-6.867,0.734-10.6-1.799l-0.4-0.301c-1.733-1.268-3.483-2.934-5.25-5v-10.9l32.15,16.051l32.85-16.051V395.867"/>
		<path fill="#C58F5C" d="M227.46,395.867v11c-10.8,5.434-21.617,10.85-32.45,16.25l-32.55-16.25v-11.1
			c1.767,2.066,3.517,3.732,5.25,5l0.4,0.301c3.733,2.533,7.267,3.133,10.6,1.799l3.45-0.449c1.7-0.033,3.366,0.316,5,1.049
			c2.7,1.201,5.316,3.385,7.85,6.551v0.051l5.25,0.35h0.4c3.733-0.768,7.267-3.268,10.6-7.5l0.4-0.4
			C217.26,396.216,222.527,394,227.46,395.867"/>
		<path fill="#F5EFDA" d="M227.46,384.867l-32.85,16.051l-32.15-16.051v-2l32.55,16.25c10.833-5.4,21.65-10.816,32.45-16.25V384.867
			"/>
		<path fill="#EEE7CD" d="M162.46,382.867v-32.5l32.55-16.25l32.45,16.25v32.5c-10.8,5.434-21.617,10.85-32.45,16.25L162.46,382.867
			"/>
	</g>
	<g>
		<path fill="#E7DFC2" d="M292.411,395.867c-4.934-1.867-10.2,0.35-15.8,6.65l-0.4,0.4c-3.333,4.232-6.866,6.732-10.6,7.5h-0.4
			l-5.25-0.35v-0.051c-2.533-3.166-5.15-5.35-7.85-6.551c-1.634-0.732-3.301-1.082-5-1.049l-3.45,0.449
			c-3.333,1.334-6.866,0.734-10.601-1.799l-0.399-0.301c-1.733-1.268-3.483-2.934-5.25-5v-10.9l32.149,16.051l32.851-16.051V395.867
			"/>
		<path fill="#C58F5C" d="M292.411,395.867v11c-10.8,5.434-21.616,10.85-32.45,16.25l-32.55-16.25v-11.1
			c1.767,2.066,3.517,3.732,5.25,5l0.399,0.301c3.734,2.533,7.268,3.133,10.601,1.799l3.45-0.449c1.699-0.033,3.366,0.316,5,1.049
			c2.699,1.201,5.316,3.385,7.85,6.551v0.051l5.25,0.35h0.4c3.733-0.768,7.267-3.268,10.6-7.5l0.4-0.4
			C282.21,396.216,287.477,394,292.411,395.867"/>
		<path fill="#F5EFDA" d="M292.411,384.867l-32.851,16.051l-32.149-16.051v-2l32.55,16.25c10.834-5.4,21.65-10.816,32.45-16.25
			V384.867"/>
		<path fill="#EEE7CD" d="M227.411,382.867v-32.5l32.55-16.25l32.45,16.25v32.5c-10.8,5.434-21.616,10.85-32.45,16.25
			L227.411,382.867"/>
	</g>
	<g>
		<path fill-opacity="0.0314" d="M293.235,274.136c2.634,1.965,3.95,4.332,3.95,7.1c0,2.799-1.316,5.15-3.95,7.049
			c-2.633,1.967-5.816,2.951-9.55,2.951c-3.767,0-6.967-0.984-9.6-2.951c-2.601-1.898-3.9-4.25-3.9-7.049c0-2.768,1.3-5.135,3.9-7.1
			c2.633-1.934,5.833-2.9,9.6-2.9C287.418,271.236,290.602,272.203,293.235,274.136"/>
		
			<linearGradient id="SVGID_1_" gradientUnits="userSpaceOnUse" x1="-7063.4063" y1="2153.2534" x2="-5425.4849" y2="2153.2534" gradientTransform="matrix(0 0.0522 0.0528 0 162.4933 559.4462)">
			<stop  offset="0" style="stop-color:#73AA1B"/>
			<stop  offset="1" style="stop-color:#6A9F15"/>
		</linearGradient>
		<path fill="url(#SVGID_1_)" d="M280.185,276.285c-2.566-0.666-4.85-2.016-6.85-4.049c-2.967-3.033-4.45-6.684-4.45-10.951
			c0-2.033,0.85-8.066,2.55-18.1l8.85-52.949h3.2v86.5L280.185,276.285"/>
		<path fill="#73AA1B" d="M283.485,276.736v-86.5h3.2l8.85,52.949c1.7,10.033,2.551,16.066,2.551,18.1
			c0,4.268-1.483,7.918-4.45,10.951c-1.9,1.934-4.05,3.25-6.45,3.949L283.485,276.736"/>
		<path fill="#B08052" d="M283.485,276.736l3.7-0.551v4.1c-0.033,0.768-0.366,1.451-1,2.051c-0.6,0.533-1.35,0.834-2.25,0.9h-0.25
			c-0.934,0-1.75-0.301-2.45-0.9c-0.666-0.6-1.017-1.283-1.05-2.051v-4L283.485,276.736"/>
	</g>
	<g>
		<path fill="#A1B0B1" d="M72.98,299.615l-0.033,0.066l-2.192,5.281v-17.471l1.993-2.891l1.561,5.547L72.98,299.615"/>
		<path fill="#689A19" d="M72.98,299.615l1.329-9.467l-1.561-5.547l3.122-4.617v11.227v1.328L72.98,299.615"/>
		<g>
			<path fill="#CFDADB" d="M97.46,293.57l4.717-2.359v1.328l-3.554,1.795L97.46,293.57"/>
			<path fill="#BBCBCC" d="M102.177,292.539v-1.328v-11.227l5.115,7.508v17.471L102.177,292.539"/>
			<path fill="#C2D0D1" d="M102.177,291.21l-4.717,2.359l-1.727-1.098l-6.875,2.26l-5.082-4.584l1.329-7.64l-5.913-4.185
				l9.865-4.917l13.12,6.577V291.21"/>
			<path fill="#A6D162" d="M97.46,293.57l1.163,0.764l-9.566,4.783l-13.187-6.578v-1.328l13.187,6.576
				C91.869,296.392,94.67,294.986,97.46,293.57"/>
			<path fill="#8DC435" d="M97.46,293.57c-2.79,1.416-5.591,2.822-8.403,4.217l-13.187-6.576v-11.227l3.321-1.66l5.913,4.185
				l-1.329,7.64l5.082,4.584l6.875-2.26L97.46,293.57"/>
			<path fill="#B2C3C4" d="M98.623,294.333l3.554-1.795l5.115,12.424l-18.202,9.135v-3.688L98.623,294.333"/>
			<path fill="#73AA1B" d="M75.871,292.539l13.187,6.578l0.033,11.293l-9.035-7.307l-5.646,0.498l-1.461-3.92l0.033-0.066
				L75.871,292.539"/>
			<path fill="#A8B6B7" d="M89.09,310.41v3.688h-0.033l-18.302-9.135l2.192-5.281l1.461,3.92l5.646-0.498L89.09,310.41"/>
			<path fill="#7CB422" d="M89.09,310.41l-0.033-11.293l9.566-4.783L89.09,310.41"/>
		</g>
	</g>
	<g>
		<path fill="#E7DFC2" d="M357.379,395.882c-4.934-1.867-10.199,0.35-15.799,6.65l-0.4,0.4c-3.334,4.232-6.867,6.732-10.6,7.5h-0.4
			l-5.25-0.35v-0.051c-2.533-3.166-5.15-5.35-7.85-6.551c-1.635-0.732-3.301-1.082-5-1.049l-3.451,0.449
			c-3.333,1.334-6.866,0.734-10.6-1.799l-0.4-0.301c-1.732-1.268-3.482-2.934-5.25-5v-10.9l32.15,16.051l32.85-16.051V395.882"/>
		<path fill="#C58F5C" d="M357.379,395.882v11c-10.799,5.434-21.616,10.85-32.449,16.25l-32.551-16.25v-11.1
			c1.768,2.066,3.518,3.732,5.25,5l0.4,0.301c3.733,2.533,7.267,3.133,10.6,1.799l3.451-0.449c1.699-0.033,3.365,0.316,5,1.049
			c2.699,1.201,5.316,3.385,7.85,6.551v0.051l5.25,0.35h0.4c3.732-0.768,7.266-3.268,10.6-7.5l0.4-0.4
			C347.18,396.232,352.446,394.015,357.379,395.882"/>
		<path fill="#F5EFDA" d="M357.379,384.882l-32.85,16.051l-32.15-16.051v-2l32.551,16.25c10.833-5.4,21.65-10.816,32.449-16.25
			V384.882"/>
		<path fill="#EEE7CD" d="M292.379,382.882v-32.5l32.551-16.25l32.449,16.25v32.5c-10.799,5.434-21.616,10.85-32.449,16.25
			L292.379,382.882"/>
	</g>
	<g>
		<path fill="#E7DFC2" d="M389.88,323.001c-4.934-1.867-10.199,0.35-15.799,6.65l-0.4,0.4c-3.334,4.232-6.867,6.732-10.6,7.5h-0.4
			l-5.25-0.35v-0.051c-2.533-3.166-5.15-5.35-7.85-6.551c-1.635-0.732-3.301-1.082-5-1.049l-3.451,0.449
			c-3.332,1.334-6.865,0.734-10.6-1.799l-0.4-0.301c-1.732-1.268-3.482-2.934-5.25-5v-10.9l32.15,16.051l32.85-16.051V323.001"/>
		<path fill="#C58F5C" d="M389.88,323.001v11c-10.799,5.434-21.615,10.85-32.449,16.25l-32.551-16.25v-11.1
			c1.768,2.066,3.518,3.732,5.25,5l0.4,0.301c3.734,2.533,7.268,3.133,10.6,1.799l3.451-0.449c1.699-0.033,3.365,0.316,5,1.049
			c2.699,1.201,5.316,3.385,7.85,6.551v0.051l5.25,0.35h0.4c3.732-0.768,7.266-3.268,10.6-7.5l0.4-0.4
			C379.681,323.351,384.947,321.134,389.88,323.001"/>
		<path fill="#F5EFDA" d="M389.88,312.001l-32.85,16.051l-32.15-16.051v-2l32.551,16.25c10.834-5.4,21.65-10.816,32.449-16.25
			V312.001"/>
		<path fill="#EEE7CD" d="M324.88,310.001v-32.5l32.551-16.25l32.449,16.25v32.5c-10.799,5.434-21.615,10.85-32.449,16.25
			L324.88,310.001"/>
	</g>
	<g>
		<path fill="#E7DFC2" d="M454.886,347.148c-4.934-1.867-10.199,0.35-15.799,6.65l-0.4,0.4c-3.334,4.232-6.867,6.732-10.6,7.5h-0.4
			l-5.25-0.35v-0.051c-2.533-3.166-5.15-5.35-7.85-6.551c-1.635-0.732-3.301-1.082-5-1.049l-3.451,0.449
			c-3.333,1.334-6.866,0.734-10.6-1.799l-0.4-0.301c-1.732-1.268-3.482-2.934-5.25-5v-10.9l32.15,16.051l32.85-16.051V347.148"/>
		<path fill="#C58F5C" d="M454.886,347.148v11c-10.799,5.434-21.617,10.85-32.449,16.25l-32.551-16.25v-11.1
			c1.768,2.066,3.518,3.732,5.25,5l0.4,0.301c3.733,2.533,7.267,3.133,10.6,1.799l3.451-0.449c1.699-0.033,3.365,0.316,5,1.049
			c2.699,1.201,5.316,3.385,7.85,6.551v0.051l5.25,0.35h0.4c3.732-0.768,7.266-3.268,10.6-7.5l0.4-0.4
			C444.687,347.498,449.953,345.281,454.886,347.148"/>
		<path fill="#F5EFDA" d="M454.886,336.148l-32.85,16.051l-32.15-16.051v-2l32.551,16.25c10.832-5.4,21.65-10.816,32.449-16.25
			V336.148"/>
		<path fill="#EEE7CD" d="M389.886,334.148v-32.5l32.551-16.25l32.449,16.25v32.5c-10.799,5.434-21.617,10.85-32.449,16.25
			L389.886,334.148"/>
	</g>
	<g>
		<path fill="#E7DFC2" d="M422.384,395.876c-4.934-1.867-10.198,0.35-15.798,6.65l-0.4,0.4c-3.334,4.232-6.867,6.732-10.6,7.5h-0.4
			l-5.25-0.35v-0.051c-2.533-3.166-5.15-5.35-7.85-6.551c-1.635-0.732-3.301-1.082-5-1.049l-3.451,0.449
			c-3.333,1.334-6.866,0.734-10.6-1.799l-0.4-0.301c-1.732-1.268-3.482-2.934-5.25-5v-10.9l32.15,16.051l32.849-16.051V395.876"/>
		<path fill="#C58F5C" d="M422.384,395.876v11c-10.798,5.434-21.615,10.85-32.448,16.25l-32.551-16.25v-11.1
			c1.768,2.066,3.518,3.732,5.25,5l0.4,0.301c3.733,2.533,7.267,3.133,10.6,1.799l3.451-0.449c1.699-0.033,3.365,0.316,5,1.049
			c2.699,1.201,5.316,3.385,7.85,6.551v0.051l5.25,0.35h0.4c3.732-0.768,7.266-3.268,10.6-7.5l0.4-0.4
			C412.186,396.226,417.451,394.009,422.384,395.876"/>
		<path fill="#F5EFDA" d="M422.384,384.876l-32.849,16.051l-32.15-16.051v-2l32.551,16.25c10.833-5.4,21.65-10.816,32.448-16.25
			V384.876"/>
		<path fill="#EEE7CD" d="M357.385,382.876v-32.5l32.551-16.25l32.448,16.25v32.5c-10.798,5.434-21.615,10.85-32.448,16.25
			L357.385,382.876"/>
	</g>
	<g>
		<path fill-opacity="0.051" d="M370.378,288.599c3.433,1.865,5.149,4.115,5.149,6.75c0,2.633-1.717,4.865-5.149,6.699
			c-3.4,1.834-7.518,2.75-12.351,2.75c-4.866,0-9-0.916-12.399-2.75c-3.4-1.834-5.101-4.066-5.101-6.699
			c0-2.635,1.7-4.885,5.101-6.75c3.399-1.867,7.533-2.801,12.399-2.801C362.861,285.798,366.978,286.732,370.378,288.599"/>
		<path fill="#6FC4A9" d="M366.677,281.048c0.701,0.734,1,1.633,0.9,2.701l-0.8,10.449c-1.467,1.5-3.066,1.5-4.8,0l-1.25-10.449
			c-0.1-1.068,0.15-1.967,0.75-2.701c0.699-0.834,1.566-1.232,2.6-1.199C365.144,279.816,366.011,280.214,366.677,281.048
			 M356.177,281.298c0.967-0.033,1.701,0.35,2.201,1.15c0.399,0.766,0.416,1.666,0.049,2.699l-4.049,10.451
			c-1.701,1.666-3.301,1.666-4.801,0l2-10.451c0.167-1.033,0.7-1.934,1.6-2.699C354.044,281.648,355.044,281.265,356.177,281.298"/>
		<path fill="#6FC4A9" d="M347.378,256.798c0-3.633,1.283-6.732,3.85-9.299c2.566-2.568,5.666-3.852,9.3-3.852
			s6.733,1.283,9.3,3.852c2.566,2.566,3.85,5.666,3.85,9.299V281.5c0,2.232-1.283,4.133-3.85,5.699s-5.666,2.35-9.3,2.35
			s-6.733-0.783-9.3-2.35s-3.85-3.467-3.85-5.699V256.798"/>
		<path fill="#347E67" d="M369.028,266.798c-0.866,0-1.601-0.299-2.2-0.9c-0.566-0.566-0.85-1.266-0.85-2.1
			c0-0.799,0.283-1.516,0.85-2.15c0.6-0.566,1.334-0.85,2.2-0.85c0.833,0,1.533,0.283,2.101,0.85
			c0.633,0.635,0.949,1.352,0.949,2.15c0,0.834-0.316,1.533-0.949,2.1C370.561,266.5,369.861,266.798,369.028,266.798 M367.878,269
			l-1.201,1.5c-0.866,0.666-1.899,1-3.1,1c-1.233,0-2.267-0.334-3.1-1c-0.634-0.467-1.017-1-1.15-1.602
			c-0.066-0.133-0.05-0.283,0.051-0.449l0.299-0.301l0.551,0.051l0.25,0.35c0.133,0.367,0.383,0.701,0.75,1
			c0.633,0.467,1.416,0.701,2.35,0.701c0.9,0,1.684-0.234,2.35-0.701l0.801-1.049l0.3-0.301c0.167-0.1,0.316-0.1,0.45,0l0.4,0.301
			V269 M358.177,266.798c-0.833,0-1.566-0.299-2.199-0.9c-0.566-0.566-0.85-1.266-0.85-2.1c0-0.799,0.283-1.516,0.85-2.15
			c0.633-0.566,1.366-0.85,2.199-0.85c0.834,0,1.551,0.283,2.15,0.85c0.6,0.635,0.9,1.352,0.9,2.15c0,0.834-0.301,1.533-0.9,2.1
			C359.728,266.5,359.011,266.798,358.177,266.798"/>
		<path fill="#6FC4A9" d="M370.677,276.548v-5.6l0.201,0.051c4.833,1.898,7.183,5.398,7.049,10.5
			c-0.033,0.432-0.183,0.799-0.449,1.1c-0.301,0.266-0.667,0.4-1.1,0.4c-0.434,0-0.801-0.15-1.101-0.451
			c-0.267-0.299-0.399-0.666-0.399-1.1C374.945,278.115,373.544,276.482,370.677,276.548 M348.528,276.548
			c-2.833-0.066-4.233,1.566-4.2,4.9c0,0.434-0.133,0.801-0.4,1.1c-0.299,0.301-0.666,0.451-1.1,0.451c-0.4,0-0.767-0.135-1.1-0.4
			c-0.267-0.301-0.417-0.668-0.45-1.1c-0.101-5.102,2.267-8.602,7.101-10.5l0.149-0.051V276.548"/>
		<path fill="#FFFFFF" d="M340.578,258.599c0-5.5,1.967-10.184,5.9-14.051c3.866-3.9,8.55-5.85,14.05-5.85s10.217,1.949,14.149,5.85
			c3.867,3.867,5.801,8.551,5.801,14.051c0,5.533-1.934,10.25-5.801,14.15c-3.933,3.865-8.649,5.799-14.149,5.799
			s-10.184-1.934-14.05-5.799C342.544,268.849,340.578,264.132,340.578,258.599 M348.628,246.699c-3.334,3.299-5,7.266-5,11.9
			c0,4.666,1.666,8.65,5,11.949c3.299,3.301,7.266,4.951,11.899,4.951s8.616-1.65,11.95-4.951c3.3-3.299,4.949-7.283,4.949-11.949
			c0-4.635-1.649-8.602-4.949-11.9c-3.334-3.301-7.316-4.949-11.95-4.949S351.927,243.398,348.628,246.699"/>
		<path fill="#FFFFFF" fill-opacity="0.2" d="M348.628,246.699c3.299-3.301,7.266-4.949,11.899-4.949s8.616,1.648,11.95,4.949
			c3.3,3.299,4.949,7.266,4.949,11.9c0,4.666-1.649,8.65-4.949,11.949c-3.334,3.301-7.316,4.951-11.95,4.951
			s-8.601-1.65-11.899-4.951c-3.334-3.299-5-7.283-5-11.949C343.628,253.964,345.294,249.998,348.628,246.699 M371.578,248.199
			c-1.1-1.133-2.449-1.699-4.05-1.699s-2.95,0.566-4.05,1.699c-1.167,1.133-1.75,2.5-1.75,4.1c0,1.566,0.583,2.916,1.75,4.051
			c1.1,1.133,2.449,1.699,4.05,1.699s2.95-0.566,4.05-1.699c1.134-1.135,1.7-2.484,1.7-4.051
			C373.278,250.699,372.711,249.332,371.578,248.199"/>
		<path fill="#FFFFFF" fill-opacity="0.302" d="M371.578,248.199c1.134,1.133,1.7,2.5,1.7,4.1c0,1.566-0.566,2.916-1.7,4.051
			c-1.1,1.133-2.449,1.699-4.05,1.699s-2.95-0.566-4.05-1.699c-1.167-1.135-1.75-2.484-1.75-4.051c0-1.6,0.583-2.967,1.75-4.1
			c1.1-1.133,2.449-1.699,4.05-1.699S370.478,247.066,371.578,248.199"/>
		<path fill="#8BCFBA" fill-opacity="0.502" d="M360.228,283.199c0.467-0.467,1.033-0.699,1.699-0.699
			c0.701,0,1.284,0.232,1.75,0.699c0.467,0.467,0.701,1.033,0.701,1.699c0,0.668-0.234,1.234-0.701,1.701
			c-0.466,0.467-1.049,0.699-1.75,0.699c-0.666,0-1.232-0.232-1.699-0.699s-0.7-1.033-0.7-1.701
			C359.528,284.232,359.761,283.666,360.228,283.199 M370.378,278.849c0.333,0.365,0.5,0.783,0.5,1.25c0,0.5-0.167,0.934-0.5,1.299
			c-0.367,0.334-0.784,0.5-1.25,0.5c-0.5,0-0.917-0.166-1.25-0.5c-0.367-0.365-0.551-0.799-0.551-1.299
			c0-0.467,0.184-0.885,0.551-1.25c0.333-0.334,0.75-0.5,1.25-0.5C369.594,278.349,370.011,278.515,370.378,278.849
			 M368.228,285.099c-0.233,0.232-0.517,0.35-0.85,0.35c-0.367,0-0.667-0.117-0.9-0.35c-0.233-0.234-0.35-0.533-0.35-0.9
			c0-0.334,0.116-0.617,0.35-0.85c0.233-0.268,0.533-0.4,0.9-0.4c0.333,0,0.616,0.133,0.85,0.4c0.267,0.232,0.4,0.516,0.4,0.85
			C368.628,284.566,368.495,284.865,368.228,285.099"/>
	</g>
	<g>
		<path fill-opacity="0.0314" d="M201.681,373.451c0,2.799-1.316,5.15-3.95,7.049c-2.633,1.967-5.816,2.951-9.55,2.951
			c-3.767,0-6.967-0.984-9.6-2.951c-2.601-1.898-3.9-4.25-3.9-7.049c0-2.768,1.3-5.135,3.9-7.1c2.633-1.934,5.833-2.9,9.6-2.9
			c3.733,0,6.917,0.967,9.55,2.9C200.365,368.316,201.681,370.683,201.681,373.451"/>
		<path fill="#73AA1B" d="M188.181,317.5l0.5-0.049c1.934,0,3.583,0.684,4.95,2.049c1.366,1.4,2.05,3.066,2.05,5v46.15
			c0,1.334-0.684,2.467-2.05,3.4c-1.367,0.934-3.017,1.4-4.95,1.4h-0.5V317.5"/>
		
			<linearGradient id="SVGID_2_" gradientUnits="userSpaceOnUse" x1="-3761.4546" y1="-11661.0645" x2="-2124.4155" y2="-11661.0645" gradientTransform="matrix(0 0.0354 0.0352 0 595.4006 450.6549)">
			<stop  offset="0" style="stop-color:#73AA1B"/>
			<stop  offset="1" style="stop-color:#6A9F15"/>
		</linearGradient>
		<path fill="url(#SVGID_2_)" d="M188.181,317.5v57.951c-1.733-0.066-3.217-0.533-4.45-1.4c-1.366-0.934-2.05-2.066-2.05-3.4V324.5
			c0-1.934,0.684-3.6,2.05-5C184.964,318.267,186.448,317.601,188.181,317.5"/>
		
			<linearGradient id="SVGID_3_" gradientUnits="userSpaceOnUse" x1="-2459.8438" y1="339.8003" x2="-821.4436" y2="339.8003" gradientTransform="matrix(0.0055 0 0 -0.0151 674.8407 426.7863)">
			<stop  offset="0" style="stop-color:#71A621"/>
			<stop  offset="1" style="stop-color:#7AB71E"/>
		</linearGradient>
		<path fill="url(#SVGID_3_)" d="M204.731,330.951v10.9c-0.066,2.799-1.1,5.199-3.1,7.199l-0.05,0.051
			c-1.667,1.699-3.634,2.715-5.9,3.049v-5.5l1-0.75l0.05-0.049c0.7-0.668,1.05-1.5,1.05-2.5v-12.4c0-0.967,0.334-1.783,1-2.451
			c0.7-0.699,1.517-1.049,2.45-1.049c0.967,0,1.783,0.35,2.45,1.049C204.381,329.167,204.731,329.984,204.731,330.951"/>
		
			<linearGradient id="SVGID_4_" gradientUnits="userSpaceOnUse" x1="-2459.8442" y1="329.7759" x2="-821.4447" y2="329.7759" gradientTransform="matrix(-0.0055 0 0 0.015 639.0597 367.1649)">
			<stop  offset="0" style="stop-color:#71A621"/>
			<stop  offset="1" style="stop-color:#7AB71E"/>
		</linearGradient>
		<path fill="url(#SVGID_4_)" d="M179.631,320.951v12.4c0,1,0.35,1.832,1.05,2.5l0.05,0.049l0.95,0.701v5.5
			c-2.267-0.301-4.217-1.301-5.85-3l-0.051-0.051c-2-2-3.033-4.4-3.1-7.199v-10.9c0-0.967,0.35-1.783,1.05-2.451
			c0.667-0.699,1.483-1.049,2.45-1.049c0.934,0,1.75,0.35,2.45,1.049C179.297,319.167,179.631,319.984,179.631,320.951"/>
	</g>
	<linearGradient id="SVGID_5_" gradientUnits="userSpaceOnUse" x1="308.1558" y1="374.8774" x2="312.0256" y2="333.3811">
		<stop  offset="0" style="stop-color:#EEE7CD"/>
		<stop  offset="1" style="stop-color:#E2DABD"/>
	</linearGradient>
	<path fill="url(#SVGID_5_)" d="M353.919,359.24v5.949h-89.167v-5.949c8.285-3.873,16.257-9.051,23.913-15.535
		c13.781-14.588,27.561-14.588,41.341,0C337.663,350.189,345.634,355.367,353.919,359.24"/>
	
		<linearGradient id="SVGID_6_" gradientUnits="userSpaceOnUse" x1="-2474.9351" y1="-33824.1563" x2="-831.0005" y2="-33824.1563" gradientTransform="matrix(0 -0.0132 -0.0121 0 -33.7444 341.6312)">
		<stop  offset="0" style="stop-color:#EEE7CD"/>
		<stop  offset="1" style="stop-color:#CFC8AE"/>
	</linearGradient>
	<path fill="url(#SVGID_6_)" d="M372.977,366.451c1.734-4.635,1.734-8.75,0-12.352l0.75-0.549c2.9,3.365,4.434,7.133,4.6,11.299
		c1.201-1.033,2.601-1.6,4.201-1.699l0.5,0.6c-1.434,2.301-2.334,4.9-2.701,7.801c-2.933,2.4-6.183,2.4-9.75,0
		c-0.666-2.6-1.516-4.834-2.549-6.701l0.35-1C370.211,364.349,371.745,365.216,372.977,366.451"/>
	<g>
		<path fill-opacity="0.0314" d="M116.46,245.309c0-2.768,1.3-5.135,3.9-7.1c2.633-1.934,5.833-2.9,9.6-2.9
			c3.733,0,6.917,0.967,9.55,2.9c2.634,1.965,3.95,4.332,3.95,7.1c0,2.799-1.316,5.15-3.95,7.049
			c-2.633,1.967-5.816,2.951-9.55,2.951c-3.767,0-6.967-0.984-9.6-2.951C117.76,250.459,116.46,248.108,116.46,245.309"/>
		<path fill="#73AA1B" d="M130.21,233.309v-85c3.634,0.066,6.733,1.383,9.3,3.949c2.634,2.633,3.95,5.816,3.95,9.551v58
			c0,3.732-1.316,6.916-3.95,9.549c-1.767,1.768-3.783,2.951-6.05,3.551L130.21,233.309"/>
		
			<linearGradient id="SVGID_7_" gradientUnits="userSpaceOnUse" x1="-3029.5166" y1="-2630.9536" x2="-1389.0162" y2="-2630.9536" gradientTransform="matrix(-0.0306 0.0306 0.0367 0.0367 154.2756 356.9311)">
			<stop  offset="0" style="stop-color:#73AA1B"/>
			<stop  offset="1" style="stop-color:#6A9F15"/>
		</linearGradient>
		<path fill="url(#SVGID_7_)" d="M130.21,233.309h-0.25h-0.25l-2.25-0.201l-1-0.199c-2.267-0.6-4.283-1.783-6.05-3.551
			c-2.634-2.633-3.95-5.816-3.95-9.549v-58c0-3.734,1.316-6.918,3.95-9.551c2.633-2.633,5.816-3.949,9.55-3.949h0.25V233.309"/>
		<path fill="#9F7348" d="M130.21,233.309l3.25-0.4v2l-3.25,0.4h-0.25h-0.25l-2.25-0.201l-1-0.199v-2l1,0.199l2.25,0.201h0.25
			H130.21"/>
		<path fill="#B08052" d="M133.46,234.909v9.449c-0.033,0.768-0.366,1.451-1,2.051c-0.6,0.533-1.35,0.834-2.25,0.9h-0.25
			c-0.934,0-1.75-0.301-2.45-0.9c-0.666-0.6-1.017-1.283-1.05-2.051v-9.449l1,0.199l2.25,0.201h0.25h0.25L133.46,234.909"/>
	</g>
	<g>
		<path fill="#E86A17" d="M230.458,261.685c-0.533,0-1,0.117-1.399,0.35c-0.366,0.268-0.55,0.602-0.55,1
			c0,0.334,0.184,0.65,0.55,0.951c0.399,0.266,0.866,0.4,1.399,0.4s0.984-0.135,1.351-0.4c0.399-0.301,0.601-0.617,0.601-0.951
			c0-0.398-0.201-0.732-0.601-1C231.443,261.802,230.992,261.685,230.458,261.685 M224.708,260.886l1.15-1.051
			c0.801-0.533,1.7-0.9,2.7-1.1l1.899,1.9l1.951-1.9c0.966,0.199,1.85,0.566,2.649,1.1l1.2,1.1l-2.25,2.201l1,1l1.15,1.148l-0.5,0.5
			l-0.601,0.4c-0.833,0.6-1.8,1-2.899,1.201l-1.701-1.701l-1.699,1.701c-1.1-0.201-2.066-0.602-2.9-1.201l-0.55-0.4l-0.5-0.5
			l1.149-1.148l1-1L224.708,260.886"/>
		<path fill="#FFCC00" d="M230.458,261.685c0.533,0,0.984,0.117,1.351,0.35c0.399,0.268,0.601,0.602,0.601,1
			c0,0.334-0.201,0.65-0.601,0.951c-0.366,0.266-0.817,0.4-1.351,0.4s-1-0.135-1.399-0.4c-0.366-0.301-0.55-0.617-0.55-0.951
			c0-0.398,0.184-0.732,0.55-1C229.458,261.802,229.925,261.685,230.458,261.685"/>
		<path fill-opacity="0.102" d="M236.259,260.935v2l-1.25,1.201l-1-1L236.259,260.935 M236.16,265.285v2l-1.101,0.9
			c-0.833,0.6-1.8,1-2.899,1.201l-1.701-1.701l-1.699,1.701c-1.1-0.201-2.066-0.602-2.9-1.201l-1.05-0.9v-2l0.5,0.5l0.55,0.4
			c0.834,0.6,1.801,1,2.9,1.201l1.699-1.701l1.701,1.701c1.1-0.201,2.066-0.602,2.899-1.201l0.601-0.4L236.16,265.285
			 M225.958,264.136l-1.25-1.25v-2l2.25,2.25L225.958,264.136"/>
	</g>
	<g>
		<path fill="#E86A17" d="M243.661,269.373c-0.533,0-1,0.117-1.399,0.35c-0.367,0.268-0.551,0.602-0.551,1
			c0,0.334,0.184,0.65,0.551,0.951c0.399,0.266,0.866,0.4,1.399,0.4s0.983-0.135,1.351-0.4c0.399-0.301,0.6-0.617,0.6-0.951
			c0-0.398-0.2-0.732-0.6-1C244.644,269.49,244.194,269.373,243.661,269.373 M237.911,268.574l1.149-1.051
			c0.801-0.533,1.701-0.9,2.701-1.1l1.899,1.9l1.95-1.9c0.967,0.199,1.85,0.566,2.65,1.1l1.199,1.1l-2.25,2.201l1,1l1.15,1.148
			l-0.5,0.5l-0.6,0.4c-0.834,0.6-1.801,1-2.9,1.201l-1.7-1.701l-1.7,1.701c-1.1-0.201-2.066-0.602-2.9-1.201l-0.549-0.4l-0.5-0.5
			l1.149-1.148l1-1L237.911,268.574"/>
		<path fill="#FFCC00" d="M243.661,269.373c0.533,0,0.983,0.117,1.351,0.35c0.399,0.268,0.6,0.602,0.6,1c0,0.334-0.2,0.65-0.6,0.951
			c-0.367,0.266-0.817,0.4-1.351,0.4s-1-0.135-1.399-0.4c-0.367-0.301-0.551-0.617-0.551-0.951c0-0.398,0.184-0.732,0.551-1
			C242.661,269.49,243.127,269.373,243.661,269.373"/>
		<path fill-opacity="0.102" d="M249.46,268.623v2l-1.25,1.201l-1-1L249.46,268.623 M249.361,272.972v2l-1.1,0.9
			c-0.834,0.6-1.801,1-2.9,1.201l-1.7-1.701l-1.7,1.701c-1.1-0.201-2.066-0.602-2.9-1.201l-1.049-0.9v-2l0.5,0.5l0.549,0.4
			c0.834,0.6,1.801,1,2.9,1.201l1.7-1.701l1.7,1.701c1.1-0.201,2.066-0.602,2.9-1.201l0.6-0.4L249.361,272.972 M239.161,271.824
			l-1.25-1.25v-2l2.25,2.25L239.161,271.824"/>
	</g>
	<g>
		<path fill="#73CD4B" d="M296.726,291.337l1.15-1.051c0.801-0.533,1.7-0.9,2.7-1.1l1.899,1.9l1.951-1.9
			c0.966,0.199,1.85,0.566,2.649,1.1l1.2,1.1l-2.25,2.201l1,1l1.15,1.148l-0.5,0.5l-0.601,0.4c-0.833,0.6-1.8,1-2.899,1.201
			l-1.701-1.701l-1.699,1.701c-1.1-0.201-2.066-0.602-2.9-1.201l-0.55-0.4l-0.5-0.5l1.149-1.148l1-1L296.726,291.337
			 M302.476,292.136c-0.533,0-1,0.117-1.399,0.35c-0.366,0.268-0.55,0.602-0.55,1c0,0.334,0.184,0.65,0.55,0.951
			c0.399,0.266,0.866,0.4,1.399,0.4s0.984-0.135,1.351-0.4c0.399-0.301,0.601-0.617,0.601-0.951c0-0.398-0.201-0.732-0.601-1
			C303.46,292.253,303.009,292.136,302.476,292.136"/>
		<path fill-opacity="0.102" d="M308.277,291.386v2l-1.25,1.201l-1-1L308.277,291.386 M308.177,295.736v2l-1.101,0.9
			c-0.833,0.6-1.8,1-2.899,1.201l-1.701-1.701l-1.699,1.701c-1.1-0.201-2.066-0.602-2.9-1.201l-1.05-0.9v-2l0.5,0.5l0.55,0.4
			c0.834,0.6,1.801,1,2.9,1.201l1.699-1.701l1.701,1.701c1.1-0.201,2.066-0.602,2.899-1.201l0.601-0.4L308.177,295.736
			 M297.976,294.587l-1.25-1.25v-2l2.25,2.25L297.976,294.587"/>
		<path fill="#FFCC00" d="M302.476,292.136c0.533,0,0.984,0.117,1.351,0.35c0.399,0.268,0.601,0.602,0.601,1
			c0,0.334-0.201,0.65-0.601,0.951c-0.366,0.266-0.817,0.4-1.351,0.4s-1-0.135-1.399-0.4c-0.366-0.301-0.55-0.617-0.55-0.951
			c0-0.398,0.184-0.732,0.55-1C301.476,292.253,301.943,292.136,302.476,292.136"/>
	</g>
	<g>
		<path fill="#FFFFFF" d="M216.392,302.027c-0.533,0-1,0.117-1.4,0.35c-0.367,0.268-0.551,0.602-0.551,1
			c0,0.334,0.184,0.65,0.551,0.951l1.4,0.4c0.533,0,0.982-0.135,1.35-0.4c0.4-0.301,0.6-0.617,0.6-0.951c0-0.398-0.199-0.732-0.6-1
			C217.375,302.144,216.925,302.027,216.392,302.027 M210.642,301.228l1.15-1.051c0.8-0.533,1.7-0.9,2.7-1.1l1.9,1.9l1.949-1.9
			c0.967,0.199,1.85,0.566,2.65,1.1l1.199,1.1l-2.25,2.201l1,1l1.15,1.148l-0.5,0.5l-0.6,0.4c-0.834,0.6-1.801,1-2.9,1.201
			l-1.699-1.701l-1.701,1.701c-1.1-0.201-2.066-0.602-2.899-1.201l-0.55-0.4l-0.5-0.5l1.15-1.148l1-1L210.642,301.228"/>
		<path fill="#FFCC00" d="M216.392,302.027c0.533,0,0.982,0.117,1.35,0.35c0.4,0.268,0.6,0.602,0.6,1c0,0.334-0.199,0.65-0.6,0.951
			c-0.367,0.266-0.816,0.4-1.35,0.4l-1.4-0.4c-0.367-0.301-0.551-0.617-0.551-0.951c0-0.398,0.184-0.732,0.551-1
			C215.392,302.144,215.859,302.027,216.392,302.027"/>
		<path fill-opacity="0.102" d="M222.191,301.277v2l-1.25,1.201l-1-1L222.191,301.277 M222.091,305.626v2l-1.1,0.9
			c-0.834,0.6-1.801,1-2.9,1.201l-1.699-1.701l-1.701,1.701c-1.1-0.201-2.066-0.602-2.899-1.201l-1.05-0.9v-2l0.5,0.5l0.55,0.4
			c0.833,0.6,1.8,1,2.899,1.201l1.701-1.701l1.699,1.701c1.1-0.201,2.066-0.602,2.9-1.201l0.6-0.4L222.091,305.626 M211.892,304.478
			l-1.25-1.25v-2l2.25,2.25L211.892,304.478"/>
	</g>
	<g>
		<path fill="#FFFFFF" d="M257.502,184.918c-0.533,0-1,0.117-1.399,0.35c-0.367,0.268-0.551,0.602-0.551,1
			c0,0.334,0.184,0.65,0.551,0.951l1.399,0.4c0.533,0,0.983-0.135,1.351-0.4c0.399-0.301,0.6-0.617,0.6-0.951
			c0-0.398-0.2-0.732-0.6-1C258.486,185.036,258.036,184.918,257.502,184.918 M251.752,184.12l1.149-1.051
			c0.801-0.533,1.701-0.9,2.701-1.1l1.899,1.9l1.95-1.9c0.967,0.199,1.85,0.566,2.65,1.1l1.199,1.1l-2.25,2.201l1,1l1.15,1.148
			l-0.5,0.5l-0.6,0.4c-0.834,0.6-1.801,1-2.9,1.201l-1.7-1.701l-1.7,1.701c-1.1-0.201-2.066-0.602-2.9-1.201l-0.549-0.4l-0.5-0.5
			l1.149-1.148l1-1L251.752,184.12"/>
		<path fill="#FFCC00" d="M257.502,184.918c0.533,0,0.983,0.117,1.351,0.35c0.399,0.268,0.6,0.602,0.6,1c0,0.334-0.2,0.65-0.6,0.951
			c-0.367,0.266-0.817,0.4-1.351,0.4l-1.399-0.4c-0.367-0.301-0.551-0.617-0.551-0.951c0-0.398,0.184-0.732,0.551-1
			C256.502,185.036,256.969,184.918,257.502,184.918"/>
		<path fill-opacity="0.102" d="M263.302,184.168v2l-1.25,1.201l-1-1L263.302,184.168 M263.203,188.518v2l-1.1,0.9
			c-0.834,0.6-1.801,1-2.9,1.201l-1.7-1.701l-1.7,1.701c-1.1-0.201-2.066-0.602-2.9-1.201l-1.049-0.9v-2l0.5,0.5l0.549,0.4
			c0.834,0.6,1.801,1,2.9,1.201l1.7-1.701l1.7,1.701c1.1-0.201,2.066-0.602,2.9-1.201l0.6-0.4L263.203,188.518 M253.002,187.37
			l-1.25-1.25v-2l2.25,2.25L253.002,187.37"/>
	</g>
	<g>
		<path fill="#FFFFFF" d="M264.728,195.449c-0.533,0-1,0.117-1.4,0.35c-0.367,0.268-0.551,0.602-0.551,1
			c0,0.334,0.184,0.65,0.551,0.951l1.4,0.4c0.533,0,0.982-0.135,1.35-0.4c0.4-0.301,0.6-0.617,0.6-0.951c0-0.398-0.199-0.732-0.6-1
			C265.71,195.566,265.261,195.449,264.728,195.449 M258.978,194.65l1.149-1.051c0.8-0.533,1.7-0.9,2.7-1.1l1.9,1.9l1.949-1.9
			c0.967,0.199,1.85,0.566,2.65,1.1l1.199,1.1l-2.25,2.201l1,1l1.15,1.148l-0.5,0.5l-0.6,0.4c-0.834,0.6-1.801,1-2.9,1.201
			l-1.699-1.701l-1.701,1.701c-1.1-0.201-2.066-0.602-2.899-1.201l-0.55-0.4l-0.5-0.5l1.15-1.148l1-1L258.978,194.65"/>
		<path fill="#FFCC00" d="M264.728,195.449c0.533,0,0.982,0.117,1.35,0.35c0.4,0.268,0.6,0.602,0.6,1c0,0.334-0.199,0.65-0.6,0.951
			c-0.367,0.266-0.816,0.4-1.35,0.4l-1.4-0.4c-0.367-0.301-0.551-0.617-0.551-0.951c0-0.398,0.184-0.732,0.551-1
			C263.728,195.566,264.195,195.449,264.728,195.449"/>
		<path fill-opacity="0.102" d="M270.527,194.699v2l-1.25,1.201l-1-1L270.527,194.699 M270.427,199.049v2l-1.1,0.9
			c-0.834,0.6-1.801,1-2.9,1.201l-1.699-1.701l-1.701,1.701c-1.1-0.201-2.066-0.602-2.899-1.201l-1.05-0.9v-2l0.5,0.5l0.55,0.4
			c0.833,0.6,1.8,1,2.899,1.201l1.701-1.701l1.699,1.701c1.1-0.201,2.066-0.602,2.9-1.201l0.6-0.4L270.427,199.049 M260.228,197.9
			l-1.25-1.25v-2l2.25,2.25L260.228,197.9"/>
	</g>
	<g>
		<path fill-opacity="0.0314" d="M198.671,256.207c-2.633,1.967-5.816,2.951-9.55,2.951c-3.767,0-6.967-0.984-9.6-2.951
			c-2.6-1.898-3.9-4.25-3.9-7.049c0-2.768,1.3-5.135,3.9-7.1c2.633-1.934,5.833-2.9,9.6-2.9c3.733,0,6.917,0.967,9.55,2.9
			c2.634,1.965,3.95,4.332,3.95,7.1C202.622,251.957,201.305,254.308,198.671,256.207"/>
		<path fill="#73AA1B" d="M188.921,180.157h3.2l8.85,36.5c1.6,6.533,2.45,10.6,2.55,12.2v0.4c-0.1,4.1-1.583,7.617-4.45,10.551
			c-1.9,1.932-4.05,3.248-6.45,3.949l-3.7,0.551V180.157"/>
		
			<linearGradient id="SVGID_8_" gradientUnits="userSpaceOnUse" x1="-10464.1094" y1="1139.7319" x2="-8824.0977" y2="1139.7319" gradientTransform="matrix(0 0.035 0.0528 0 121.4435 549.3007)">
			<stop  offset="0" style="stop-color:#73AA1B"/>
			<stop  offset="1" style="stop-color:#6A9F15"/>
		</linearGradient>
		<path fill="url(#SVGID_8_)" d="M188.921,180.157v64.151l-3.3-0.451c-2.566-0.666-4.85-2.016-6.85-4.049
			c-2.867-2.934-4.35-6.451-4.45-10.551v-0.199c0.033-1.5,0.883-5.635,2.55-12.401l8.85-36.5H188.921"/>
		<path fill="#B08052" d="M188.921,244.308l3.7-0.551v4.449c-0.033,0.768-0.367,1.451-1,2.051c-0.6,0.533-1.35,0.834-2.25,0.9h-0.25
			c-0.934,0-1.75-0.301-2.45-0.9c-0.667-0.6-1.017-1.283-1.05-2.051v-4.35L188.921,244.308"/>
	</g>
	<g>
		<path fill-opacity="0.0314" d="M214.733,273.286c-2.634,1.967-5.816,2.951-9.55,2.951c-3.767,0-6.967-0.984-9.6-2.951
			c-2.6-1.898-3.9-4.25-3.9-7.049c0-2.768,1.3-5.135,3.9-7.1c2.633-1.934,5.833-2.9,9.6-2.9c3.733,0,6.916,0.967,9.55,2.9
			c2.634,1.965,3.95,4.332,3.95,7.1C218.683,269.036,217.367,271.387,214.733,273.286"/>
		<path fill="#73AA1B" d="M204.983,197.237h3.2l8.85,36.5c1.601,6.533,2.45,10.6,2.551,12.199v0.4
			c-0.101,4.1-1.584,7.617-4.45,10.551c-1.9,1.932-4.05,3.248-6.45,3.949l-3.7,0.551V197.237"/>
		
			<linearGradient id="SVGID_9_" gradientUnits="userSpaceOnUse" x1="-9976.123" y1="1443.9272" x2="-8336.124" y2="1443.9272" gradientTransform="matrix(0 0.035 0.0528 0 121.4435 549.3007)">
			<stop  offset="0" style="stop-color:#73AA1B"/>
			<stop  offset="1" style="stop-color:#6A9F15"/>
		</linearGradient>
		<path fill="url(#SVGID_9_)" d="M204.983,197.237v64.15l-3.3-0.451c-2.566-0.666-4.85-2.016-6.85-4.049
			c-2.867-2.934-4.35-6.451-4.45-10.551v-0.199c0.033-1.5,0.883-5.635,2.55-12.4l8.85-36.5H204.983"/>
		<path fill="#B08052" d="M204.983,261.387l3.7-0.551v4.449c-0.033,0.768-0.367,1.451-1,2.051c-0.6,0.533-1.35,0.834-2.25,0.9h-0.25
			c-0.934,0-1.75-0.301-2.45-0.9c-0.667-0.6-1.017-1.283-1.05-2.051v-4.35L204.983,261.387"/>
	</g>
	
		<linearGradient id="SVGID_10_" gradientUnits="userSpaceOnUse" x1="6032.1089" y1="-20982.752" x2="7676.0435" y2="-20982.752" gradientTransform="matrix(0 -0.0132 -0.0121 0 -113.7444 341.6312)">
		<stop  offset="0" style="stop-color:#8DC435"/>
		<stop  offset="1" style="stop-color:#73AA1B"/>
	</linearGradient>
	<path fill="url(#SVGID_10_)" d="M137.597,254.158c1.733-4.635,1.733-8.75,0-12.352l0.75-0.549c2.9,3.365,4.433,7.133,4.6,11.299
		c1.2-1.033,2.6-1.6,4.2-1.699l0.5,0.6c-1.434,2.301-2.333,4.9-2.7,7.801c-2.933,2.4-6.183,2.4-9.75,0
		c-0.667-2.6-1.517-4.834-2.55-6.701l0.35-1C134.831,252.056,136.364,252.923,137.597,254.158"/>
	
		<linearGradient id="SVGID_11_" gradientUnits="userSpaceOnUse" x1="2200.4321" y1="-18267.5059" x2="3844.3667" y2="-18267.5059" gradientTransform="matrix(0 -0.0132 -0.0121 0 -113.7444 341.6312)">
		<stop  offset="0" style="stop-color:#8DC435"/>
		<stop  offset="1" style="stop-color:#73AA1B"/>
	</linearGradient>
	<path fill="url(#SVGID_11_)" d="M104.743,304.736c1.733-4.635,1.733-8.75,0-12.352l0.75-0.549c2.9,3.365,4.433,7.133,4.6,11.299
		c1.2-1.033,2.6-1.6,4.2-1.699l0.5,0.6c-1.434,2.301-2.333,4.9-2.7,7.801c-2.933,2.4-6.183,2.4-9.75,0
		c-0.667-2.6-1.517-4.834-2.55-6.701l0.35-1C101.976,302.634,103.509,303.501,104.743,304.736"/>
	
		<linearGradient id="SVGID_12_" gradientUnits="userSpaceOnUse" x1="2805.3091" y1="-18267.5059" x2="4449.2437" y2="-18267.5059" gradientTransform="matrix(0 -0.0132 -0.0121 0 -113.7444 341.6312)">
		<stop  offset="0" style="stop-color:#8DC435"/>
		<stop  offset="1" style="stop-color:#73AA1B"/>
	</linearGradient>
	<path fill="url(#SVGID_12_)" d="M104.743,296.751c1.733-4.635,1.733-8.75,0-12.352l0.75-0.549c2.9,3.365,4.433,7.133,4.6,11.299
		c1.2-1.033,2.6-1.6,4.2-1.699l0.5,0.6c-1.434,2.301-2.333,4.9-2.7,7.801c-2.933,2.4-6.183,2.4-9.75,0
		c-0.667-2.6-1.517-4.834-2.55-6.701l0.35-1C101.976,294.65,103.509,295.517,104.743,296.751"/>
	
		<linearGradient id="SVGID_13_" gradientUnits="userSpaceOnUse" x1="9928.8535" y1="-29888.1152" x2="11572.7852" y2="-29888.1152" gradientTransform="matrix(0 -0.0132 -0.0121 0 -113.7444 341.6312)">
		<stop  offset="0" style="stop-color:#8DC435"/>
		<stop  offset="1" style="stop-color:#73AA1B"/>
	</linearGradient>
	<path fill="url(#SVGID_13_)" d="M245.352,202.721c1.733-4.635,1.733-8.75,0-12.352l0.75-0.549c2.899,3.365,4.433,7.133,4.6,11.299
		c1.2-1.033,2.601-1.6,4.2-1.699l0.5,0.6c-1.434,2.301-2.334,4.9-2.7,7.801c-2.933,2.4-6.183,2.4-9.75,0
		c-0.667-2.6-1.517-4.834-2.55-6.701l0.35-1C242.585,200.619,244.119,201.486,245.352,202.721"/>
	<g>
		<path fill-opacity="0.051" d="M470.255,268.876c0,2.633-1.717,4.865-5.15,6.699c-3.4,1.834-7.518,2.75-12.35,2.75
			c-4.866,0-9-0.916-12.4-2.75s-5.1-4.066-5.1-6.699c0-2.635,1.699-4.885,5.1-6.75c3.4-1.867,7.534-2.801,12.4-2.801
			c4.832,0,8.949,0.934,12.35,2.801C468.539,263.992,470.255,266.242,470.255,268.876"/>
		<path fill="#E0D1AF" d="M456.705,267.726l-1.25-10.449c-0.1-1.068,0.15-1.967,0.75-2.701c0.699-0.834,1.566-1.232,2.6-1.199
			c1.066-0.033,1.934,0.365,2.6,1.199c0.701,0.734,1,1.633,0.9,2.701l-0.799,10.449
			C460.039,269.226,458.439,269.226,456.705,267.726 M450.904,254.826c0.967-0.033,1.701,0.35,2.201,1.15
			c0.4,0.766,0.416,1.666,0.049,2.699l-4.049,10.451c-1.7,1.666-3.301,1.666-4.801,0l2.001-10.451
			c0.168-1.033,0.701-1.934,1.6-2.699C448.771,255.175,449.771,254.792,450.904,254.826"/>
		<path fill="#E0D1AF" d="M465.404,244.476l0.201,0.051c4.834,1.898,7.184,5.398,7.049,10.5c-0.033,0.432-0.182,0.799-0.449,1.1
			c-0.301,0.266-0.666,0.4-1.1,0.4s-0.801-0.15-1.1-0.451c-0.268-0.299-0.4-0.666-0.4-1.1c0.066-3.334-1.334-4.967-4.201-4.9
			V244.476 M436.005,255.027c-0.102-5.102,2.266-8.602,7.1-10.5l0.15-0.051v5.6c-2.834-0.066-4.234,1.566-4.201,4.9
			c0,0.434-0.133,0.801-0.4,1.1c-0.299,0.301-0.666,0.451-1.1,0.451c-0.4,0-0.766-0.135-1.1-0.4
			C436.189,255.826,436.039,255.458,436.005,255.027"/>
		<path fill="#E0D1AF" d="M442.105,232.175c0-3.633,1.283-6.732,3.85-9.299c2.566-2.566,5.666-3.85,9.301-3.85
			c3.633,0,6.732,1.283,9.299,3.85c2.566,2.567,3.85,5.667,3.85,9.299v23.701h-0.199c-0.467,1.633-1.684,3.049-3.65,4.25
			c-2.566,1.533-5.666,2.299-9.299,2.299c-3.635,0-6.734-0.766-9.301-2.299c-1.967-1.201-3.184-2.617-3.65-4.25h-0.199V232.175"/>
		<path fill="#AF9F7A" d="M460.705,235.777l0.35,0.35v0.449c-0.232,0.566-0.633,1.066-1.199,1.5
			c-0.834,0.701-1.85,1.051-3.051,1.051c-1.232,0-2.283-0.35-3.15-1.051c-0.6-0.434-0.982-0.949-1.148-1.549
			c-0.033-0.168-0.018-0.318,0.049-0.451c0.066-0.166,0.184-0.266,0.35-0.299l0.5,0.049l0.301,0.35
			c0.1,0.367,0.334,0.684,0.699,0.951c0.635,0.5,1.434,0.75,2.4,0.75c0.867,0,1.635-0.25,2.301-0.75l0.799-1l0.301-0.35H460.705
			 M449.205,233.527c-0.566-0.602-0.85-1.301-0.85-2.102c0-0.799,0.283-1.516,0.85-2.148c0.533-0.535,1.166-0.818,1.9-0.852
			l0.15-0.049h0.1v0.049h10.799v-0.049h0.051l0.5,0.049c0.6,0.102,1.15,0.385,1.65,0.852c0.6,0.633,0.9,1.35,0.9,2.148
			c0,0.801-0.301,1.5-0.9,2.102c-0.566,0.566-1.25,0.865-2.051,0.898h-10.949h-0.1C450.488,234.392,449.804,234.093,449.205,233.527
			"/>
		<path fill="#FFFFFF" d="M435.304,232.126c0-5.5,1.967-10.184,5.9-14.051c3.867-3.9,8.551-5.85,14.051-5.85
			s10.217,1.949,14.148,5.85c3.867,3.867,5.801,8.551,5.801,14.051c0,5.533-1.934,10.25-5.801,14.15
			c-3.932,3.865-8.648,5.799-14.148,5.799s-10.184-1.934-14.051-5.799C437.271,242.376,435.304,237.66,435.304,232.126
			 M443.355,220.226c-3.334,3.299-5,7.266-5,11.901c0,4.666,1.666,8.65,5,11.949c3.3,3.301,7.266,4.951,11.9,4.951
			c4.633,0,8.615-1.65,11.949-4.951c3.301-3.299,4.949-7.283,4.949-11.949c0-4.635-1.648-8.602-4.949-11.901
			c-3.334-3.301-7.316-4.949-11.949-4.949C450.621,215.276,446.655,216.925,443.355,220.226"/>
		<path fill="#FFFFFF" fill-opacity="0.2" d="M443.355,220.226c3.3-3.301,7.266-4.949,11.9-4.949c4.633,0,8.615,1.648,11.949,4.949
			c3.301,3.299,4.949,7.266,4.949,11.901c0,4.666-1.648,8.65-4.949,11.949c-3.334,3.301-7.316,4.951-11.949,4.951
			c-4.635,0-8.601-1.65-11.9-4.951c-3.334-3.299-5-7.283-5-11.949C438.355,227.492,440.021,223.525,443.355,220.226
			 M462.255,220.026c-1.602,0-2.951,0.566-4.051,1.699c-1.166,1.133-1.75,2.483-1.75,4.051c0,1.6,0.584,2.965,1.75,4.1
			c1.1,1.1,2.449,1.65,4.051,1.65c1.6,0,2.949-0.551,4.049-1.65c1.135-1.135,1.701-2.5,1.701-4.1c0-1.568-0.566-2.918-1.701-4.051
			C465.205,220.593,463.855,220.026,462.255,220.026"/>
		<path fill="#FFFFFF" fill-opacity="0.302" d="M462.255,220.026c1.6,0,2.949,0.566,4.049,1.699
			c1.135,1.133,1.701,2.483,1.701,4.051c0,1.6-0.566,2.965-1.701,4.1c-1.1,1.1-2.449,1.65-4.049,1.65
			c-1.602,0-2.951-0.551-4.051-1.65c-1.166-1.135-1.75-2.5-1.75-4.1c0-1.568,0.584-2.918,1.75-4.051
			C459.304,220.593,460.654,220.026,462.255,220.026"/>
	</g>
	<g>
		<path fill-opacity="0.0314" d="M436.886,318.078c0,2.799-1.316,5.15-3.951,7.049c-2.633,1.967-5.816,2.951-9.549,2.951
			c-3.768,0-6.967-0.984-9.6-2.951c-2.602-1.898-3.9-4.25-3.9-7.049c0-2.768,1.299-5.135,3.9-7.1c2.633-1.934,5.832-2.9,9.6-2.9
			c3.732,0,6.916,0.967,9.549,2.9C435.57,312.943,436.886,315.31,436.886,318.078"/>
		<path fill="#73AA1B" d="M423.386,320.078v-57.951l0.5-0.049c1.934,0,3.582,0.684,4.949,2.049c1.367,1.4,2.051,3.066,2.051,5v46.15
			c0,1.334-0.684,2.467-2.051,3.4s-3.016,1.4-4.949,1.4H423.386"/>
		
			<linearGradient id="SVGID_14_" gradientUnits="userSpaceOnUse" x1="-5325.6646" y1="-3842.7432" x2="-3688.6257" y2="-3842.7432" gradientTransform="matrix(0 0.0354 0.0352 0 555.4006 450.6549)">
			<stop  offset="0" style="stop-color:#73AA1B"/>
			<stop  offset="1" style="stop-color:#6A9F15"/>
		</linearGradient>
		<path fill="url(#SVGID_14_)" d="M423.386,320.078c-1.734-0.066-3.217-0.533-4.451-1.4c-1.365-0.934-2.049-2.066-2.049-3.4v-46.15
			c0-1.934,0.684-3.6,2.049-5c1.234-1.232,2.717-1.898,4.451-2V320.078"/>
		
			<linearGradient id="SVGID_15_" gradientUnits="userSpaceOnUse" x1="-2184.6392" y1="282.4028" x2="-546.2396" y2="282.4028" gradientTransform="matrix(-0.0055 0 0 0.015 599.0597 375.1649)">
			<stop  offset="0" style="stop-color:#71A621"/>
			<stop  offset="1" style="stop-color:#7AB71E"/>
		</linearGradient>
		<path fill="url(#SVGID_15_)" d="M414.835,273.578v12.4c0,1,0.35,1.832,1.051,2.5l0.049,0.049c0.301,0.301,0.617,0.533,0.951,0.701
			v5.5c-2.268-0.301-4.217-1.301-5.85-3l-0.051-0.051c-2-2-3.033-4.4-3.1-7.199v-10.9c0-0.967,0.35-1.783,1.049-2.451
			c0.668-0.699,1.484-1.049,2.451-1.049c0.934,0,1.75,0.35,2.449,1.049C414.501,271.794,414.835,272.611,414.835,273.578"/>
	</g>
	<g>
		<path fill-opacity="0.0314" d="M442.003,325.974c0,1.574-0.742,2.896-2.223,3.965c-1.48,1.107-3.271,1.66-5.373,1.66
			c-2.117,0-3.918-0.553-5.398-1.66c-1.463-1.068-2.195-2.391-2.195-3.965c0-1.557,0.732-2.889,2.195-3.994
			c1.48-1.088,3.281-1.631,5.398-1.631c2.102,0,3.893,0.543,5.373,1.631C441.261,323.085,442.003,324.417,442.003,325.974"/>
		<path fill="#73AA1B" d="M434.408,294.5l0.281-0.027c1.088,0,2.016,0.385,2.785,1.152c0.77,0.789,1.154,1.727,1.154,2.813v25.961
			c0,0.752-0.385,1.389-1.154,1.914s-1.697,0.787-2.785,0.787h-0.281V294.5"/>
		
			<linearGradient id="SVGID_16_" gradientUnits="userSpaceOnUse" x1="-4411.1719" y1="-4625.5981" x2="-3490.2788" y2="-4625.5981" gradientTransform="matrix(0 0.0354 0.0352 0 595.4006 450.6549)">
			<stop  offset="0" style="stop-color:#73AA1B"/>
			<stop  offset="1" style="stop-color:#6A9F15"/>
		</linearGradient>
		<path fill="url(#SVGID_16_)" d="M434.408,294.5v32.6c-0.975-0.037-1.809-0.301-2.502-0.787c-0.77-0.525-1.154-1.162-1.154-1.914
			v-25.961c0-1.086,0.385-2.023,1.154-2.813C432.599,294.931,433.433,294.558,434.408,294.5"/>
		
			<linearGradient id="SVGID_17_" gradientUnits="userSpaceOnUse" x1="-1054.9072" y1="307.0444" x2="-133.4286" y2="307.0444" gradientTransform="matrix(0.0055 0 0 -0.0151 674.8407 426.7863)">
			<stop  offset="0" style="stop-color:#71A621"/>
			<stop  offset="1" style="stop-color:#7AB71E"/>
		</linearGradient>
		<path fill="url(#SVGID_17_)" d="M443.718,302.066v6.133c-0.037,1.574-0.619,2.924-1.744,4.049l-0.027,0.029
			c-0.938,0.955-2.045,1.527-3.318,1.715v-3.094l0.563-0.422l0.027-0.027c0.395-0.377,0.59-0.844,0.59-1.406v-6.977
			c0-0.543,0.188-1.002,0.563-1.379c0.395-0.393,0.854-0.59,1.379-0.59c0.543,0,1.004,0.197,1.379,0.59
			C443.521,301.064,443.718,301.523,443.718,302.066"/>
		
			<linearGradient id="SVGID_18_" gradientUnits="userSpaceOnUse" x1="-1055.1064" y1="301.4058" x2="-133.5067" y2="301.4058" gradientTransform="matrix(-0.0055 0 0 0.015 639.0597 367.1649)">
			<stop  offset="0" style="stop-color:#71A621"/>
			<stop  offset="1" style="stop-color:#7AB71E"/>
		</linearGradient>
		<path fill="url(#SVGID_18_)" d="M429.599,296.441v6.977c0,0.563,0.197,1.029,0.59,1.406l0.029,0.027l0.533,0.395v3.094
			c-1.273-0.17-2.371-0.732-3.289-1.688l-0.029-0.029c-1.125-1.125-1.707-2.475-1.744-4.049v-6.133c0-0.543,0.197-1.002,0.592-1.379
			c0.375-0.393,0.834-0.59,1.377-0.59c0.525,0,0.984,0.197,1.379,0.59C429.412,295.439,429.599,295.898,429.599,296.441"/>
	</g>
	<g>
		<path fill="#A1B0B1" d="M303.248,142.49V130.8l1.934-2.823l-0.712,5.378l0.89,4L303.248,142.49"/>
		<g>
			<path fill="#C5DEE2" d="M305.181,127.977l1.488-2.2v7.512v0.889l-1.311,3.178l-0.89-4L305.181,127.977"/>
			<path fill="#F5FDFF" d="M306.669,134.177v-0.889l8.822,4.4l8.778-4.4v0.889l-8.778,4.4L306.669,134.177"/>
			<path fill="#D0EBEF" d="M306.669,134.177l8.822,4.4l0.023,3.223l-4.867-3.667l-5.289-0.778L306.669,134.177"/>
			<path fill="#A8B6B7" d="M315.515,148.601h-0.023l-12.244-6.111l2.111-5.134l5.289,0.778l4.867,3.667V148.601"/>
			<path fill="#E9FCFF" d="M306.669,125.777l8.822-4.4l8.778,4.4v7.512l-8.778,4.4l-8.822-4.4V125.777"/>
			<path fill="#B2C3C4" d="M327.693,142.49l-12.178,6.111V141.8l6.844-0.933l2.934-4.201L327.693,142.49"/>
			<path fill="#DCF8FC" d="M315.515,141.8l-0.023-3.223l8.778-4.4l1.022,2.489l-2.934,4.201L315.515,141.8"/>
		</g>
		<path fill="#E3F9FC" d="M324.27,125.777l1.512,2.223l-0.645,2.756l0.155,5.911l-1.022-2.489v-0.889V125.777"/>
		<path fill="#BBCBCC" d="M325.782,128l1.911,2.8v11.69l-2.4-5.823l-0.155-5.911L325.782,128"/>
	</g>
	<g>
		<path fill="#A1B0B1" d="M410.46,157.61v-11.69l1.934-2.823l-0.712,5.378l0.89,4L410.46,157.61"/>
		<g>
			<path fill="#C5DEE2" d="M412.394,143.097l1.488-2.2v7.512v0.889l-1.311,3.178l-0.89-4L412.394,143.097"/>
			<path fill="#F5FDFF" d="M413.882,149.297v-0.889l8.822,4.4l8.779-4.4v0.889l-8.779,4.4L413.882,149.297"/>
			<path fill="#D0EBEF" d="M413.882,149.297l8.822,4.4l0.023,3.223l-4.867-3.667l-5.289-0.778L413.882,149.297"/>
			<path fill="#A8B6B7" d="M422.728,163.721h-0.023l-12.244-6.111l2.111-5.134l5.289,0.778l4.867,3.667V163.721"/>
			<path fill="#E9FCFF" d="M413.882,140.897l8.822-4.4l8.779,4.4v7.512l-8.779,4.4l-8.822-4.4V140.897"/>
			<path fill="#B2C3C4" d="M434.906,157.61l-12.178,6.111v-6.801l6.844-0.933l2.934-4.201L434.906,157.61"/>
			<path fill="#DCF8FC" d="M422.728,156.92l-0.023-3.223l8.779-4.4l1.021,2.489l-2.934,4.201L422.728,156.92"/>
		</g>
		<path fill="#E3F9FC" d="M431.484,140.897l1.512,2.223l-0.645,2.756l0.154,5.911l-1.021-2.489v-0.889V140.897"/>
		<path fill="#BBCBCC" d="M432.996,143.12l1.91,2.8v11.69l-2.4-5.823l-0.154-5.911L432.996,143.12"/>
	</g>
	<g>
		<path fill-opacity="0.0314" d="M241.036,124.95c0,2.799-1.316,5.15-3.95,7.049c-2.633,1.967-5.816,2.951-9.55,2.951
			c-3.767,0-6.967-0.984-9.6-2.951c-2.601-1.898-3.9-4.25-3.9-7.049c0-2.768,1.3-5.135,3.9-7.1c2.633-1.934,5.833-2.9,9.6-2.9
			c3.733,0,6.917,0.967,9.55,2.9C239.719,119.815,241.036,122.182,241.036,124.95"/>
		<path fill="#9F7348" d="M224.036,114.549v-2l1,0.199l2.25,0.201h0.25h0.25l3.25-0.4v2l-3.25,0.4h-0.25h-0.25l-2.25-0.201
			L224.036,114.549"/>
		<path fill="#B08052" d="M224.036,114.549l1,0.199l2.25,0.201h0.25h0.25l3.25-0.4v9.449c-0.033,0.768-0.366,1.451-1,2.051
			c-0.601,0.533-1.351,0.834-2.25,0.9h-0.25c-0.934,0-1.75-0.301-2.45-0.9c-0.666-0.6-1.017-1.283-1.05-2.051V114.549"/>
		
			<linearGradient id="SVGID_19_" gradientUnits="userSpaceOnUse" x1="-14012.8965" y1="-2678.1826" x2="-12372.8975" y2="-2678.1826" gradientTransform="matrix(0 0.035 0.0528 0 361.4435 549.3007)">
			<stop  offset="0" style="stop-color:#44A166"/>
			<stop  offset="1" style="stop-color:#3A915A"/>
		</linearGradient>
		<path fill="url(#SVGID_19_)" d="M227.335,120.1c-3.934-0.135-7.316-1.635-10.149-4.5c-2.867-2.934-4.351-6.451-4.45-10.551v-0.199
			c0.033-1.5,0.883-5.635,2.55-12.4l8.85-36.5h3.2V120.1"/>
		<path fill="#44A166" d="M227.335,120.1V55.95h3.2l8.85,36.5c1.601,6.533,2.45,10.6,2.551,12.199v0.4
			c-0.101,4.1-1.584,7.617-4.45,10.551C234.652,118.465,231.269,119.965,227.335,120.1"/>
	</g>
	<g>
		<path fill-opacity="0.0314" d="M297.584,69c0,2.799-1.316,5.15-3.95,7.049c-2.633,1.967-5.816,2.951-9.55,2.951
			c-3.767,0-6.967-0.984-9.6-2.951c-2.601-1.898-3.9-4.25-3.9-7.049c0-2.768,1.3-5.135,3.9-7.1c2.633-1.934,5.833-2.9,9.6-2.9
			c3.733,0,6.917,0.967,9.55,2.9C296.268,63.865,297.584,66.232,297.584,69"/>
		<path fill="#9F7348" d="M280.584,58.6v-2l1,0.199l2.25,0.201h0.25h0.25l3.25-0.4v2l-3.25,0.4h-0.25h-0.25l-2.25-0.201
			L280.584,58.6"/>
		<path fill="#B08052" d="M280.584,58.6l1,0.199l2.25,0.201h0.25h0.25l3.25-0.4v9.449c-0.033,0.768-0.366,1.451-1,2.051
			c-0.601,0.533-1.351,0.834-2.25,0.9h-0.25c-0.934,0-1.75-0.301-2.45-0.9c-0.666-0.6-1.017-1.283-1.05-2.051V58.6"/>
		
			<linearGradient id="SVGID_20_" gradientUnits="userSpaceOnUse" x1="-15611.459" y1="-1607.1821" x2="-13971.46" y2="-1607.1821" gradientTransform="matrix(0 0.035 0.0528 0 361.4435 549.3007)">
			<stop  offset="0" style="stop-color:#44A166"/>
			<stop  offset="1" style="stop-color:#3A915A"/>
		</linearGradient>
		<path fill="url(#SVGID_20_)" d="M283.884,64.15c-3.934-0.135-7.316-1.635-10.149-4.5c-2.867-2.934-4.351-6.451-4.45-10.551V48.9
			c0.033-1.5,0.883-5.635,2.55-12.4l8.85-36.5h3.2V64.15"/>
		<path fill="#44A166" d="M283.884,64.15V0h3.2l8.85,36.5c1.601,6.533,2.45,10.6,2.551,12.199v0.4
			c-0.101,4.1-1.584,7.617-4.45,10.551C291.201,62.516,287.818,64.016,283.884,64.15"/>
	</g>
	<g>
		<path fill-opacity="0.0314" d="M309.024,76.097c0,1.736-0.817,3.195-2.45,4.372c-1.633,1.22-3.607,1.831-5.924,1.831
			c-2.336,0-4.32-0.61-5.953-1.831c-1.613-1.177-2.42-2.636-2.42-4.372c0-1.716,0.807-3.185,2.42-4.403
			c1.633-1.199,3.617-1.799,5.953-1.799c2.316,0,4.291,0.6,5.924,1.799C308.207,72.913,309.024,74.381,309.024,76.097"/>
		<path fill="#9F7348" d="M298.48,69.646v-1.241l0.619,0.124l1.396,0.125h0.154h0.155l2.017-0.249v1.241l-2.017,0.248h-0.155h-0.154
			l-1.396-0.125L298.48,69.646"/>
		<path fill="#B08052" d="M298.48,69.646l0.619,0.124l1.396,0.125h0.154h0.155l2.017-0.248v5.861
			c-0.021,0.476-0.228,0.9-0.621,1.272c-0.372,0.331-0.838,0.517-1.396,0.559h-0.155c-0.578,0-1.085-0.187-1.52-0.559
			c-0.413-0.372-0.631-0.796-0.65-1.272V69.646"/>
		
			<linearGradient id="SVGID_21_" gradientUnits="userSpaceOnUse" x1="-14691.498" y1="-1239.4917" x2="-13674.2813" y2="-1239.4917" gradientTransform="matrix(0 0.035 0.0528 0 361.4435 549.3007)">
			<stop  offset="0" style="stop-color:#44A166"/>
			<stop  offset="1" style="stop-color:#3A915A"/>
		</linearGradient>
		<path fill="url(#SVGID_21_)" d="M300.527,73.089c-2.44-0.083-4.539-1.014-6.296-2.791c-1.778-1.82-2.698-4.001-2.761-6.544V63.63
			c0.021-0.93,0.548-3.495,1.582-7.691l5.488-22.639h1.986V73.089"/>
		<path fill="#44A166" d="M300.527,73.089V33.3h1.984L308,55.939c0.993,4.052,1.521,6.575,1.582,7.567v0.248
			c-0.062,2.543-0.982,4.725-2.76,6.544C305.064,72.075,302.966,73.006,300.527,73.089"/>
	</g>
	
		<linearGradient id="SVGID_22_" gradientUnits="userSpaceOnUse" x1="22207.1406" y1="-29828.9082" x2="23851.0742" y2="-29828.9082" gradientTransform="matrix(0 -0.0132 -0.0121 0 -73.7444 381.6312)">
		<stop  offset="0" style="stop-color:#E9FCFF"/>
		<stop  offset="1" style="stop-color:#B5DEE2"/>
	</linearGradient>
	<path fill="url(#SVGID_22_)" d="M284.634,80.647c1.734-4.635,1.734-8.75,0-12.352l0.75-0.549c2.9,3.365,4.434,7.133,4.6,11.299
		c1.201-1.033,2.601-1.6,4.201-1.699l0.5,0.6c-1.434,2.301-2.334,4.9-2.701,7.801c-2.933,2.4-6.183,2.4-9.75,0
		c-0.666-2.6-1.516-4.834-2.549-6.701l0.35-1C281.869,78.545,283.402,79.413,284.634,80.647"/>
	
		<linearGradient id="SVGID_23_" gradientUnits="userSpaceOnUse" x1="21854.6523" y1="-30729.7676" x2="23498.5879" y2="-30729.7676" gradientTransform="matrix(0 -0.0132 -0.0121 0 -73.7444 381.6312)">
		<stop  offset="0" style="stop-color:#E9FCFF"/>
		<stop  offset="1" style="stop-color:#B5DEE2"/>
	</linearGradient>
	<path fill="url(#SVGID_23_)" d="M295.535,85.3c1.734-4.635,1.734-8.75,0-12.352l0.75-0.549c2.9,3.365,4.434,7.133,4.6,11.299
		c1.201-1.033,2.601-1.6,4.201-1.699l0.5,0.6c-1.434,2.301-2.334,4.9-2.701,7.801c-2.933,2.4-6.183,2.4-9.75,0
		c-0.666-2.6-1.516-4.834-2.549-6.701l0.35-1C292.769,83.198,294.302,84.065,295.535,85.3"/>
	
		<linearGradient id="SVGID_24_" gradientUnits="userSpaceOnUse" x1="17257.7813" y1="-31611.9043" x2="18901.7148" y2="-31611.9043" gradientTransform="matrix(0 -0.0132 -0.0121 0 -73.7444 381.6312)">
		<stop  offset="0" style="stop-color:#E9FCFF"/>
		<stop  offset="1" style="stop-color:#B5DEE2"/>
	</linearGradient>
	<path fill="url(#SVGID_24_)" d="M306.208,145.979c1.734-4.635,1.734-8.75,0-12.352l0.75-0.549c2.9,3.365,4.434,7.133,4.6,11.299
		c1.201-1.033,2.601-1.6,4.201-1.699l0.5,0.6c-1.434,2.301-2.334,4.9-2.701,7.801c-2.933,2.4-6.183,2.4-9.75,0
		c-0.666-2.6-1.516-4.834-2.549-6.701l0.35-1C303.443,143.877,304.976,144.744,306.208,145.979"/>
	<g>
		<path fill-opacity="0.051" d="M359.253,98.547c4.834,0,8.949,0.934,12.35,2.801c3.434,1.865,5.15,4.115,5.15,6.75
			c0,2.633-1.717,4.865-5.15,6.699c-3.4,1.834-7.516,2.75-12.35,2.75c-4.867,0-9-0.916-12.4-2.75c-3.398-1.834-5.1-4.066-5.1-6.699
			c0-2.635,1.701-4.885,5.1-6.75C350.253,99.48,354.386,98.547,359.253,98.547"/>
		<path fill="#FFCC00" d="M359.603,95.197c0.4,0.766,0.416,1.666,0.051,2.699l-4.051,10.451c-1.699,1.666-3.301,1.666-4.801,0
			l2-10.451c0.168-1.033,0.701-1.934,1.602-2.699c0.865-0.801,1.865-1.184,3-1.15C358.371,94.014,359.103,94.396,359.603,95.197
			 M362.703,93.797c0.701-0.834,1.566-1.232,2.6-1.199c1.068-0.033,1.934,0.365,2.602,1.199c0.699,0.734,1,1.633,0.898,2.701
			l-0.799,10.449c-1.467,1.5-3.066,1.5-4.801,0l-1.25-10.449C361.853,95.43,362.103,94.531,362.703,93.797"/>
		<path fill="#FFCC00" d="M361.753,64.348c3.633,0,6.732,1.283,9.299,3.85c2.568,2.566,3.852,5.666,3.852,9.301v16.75
			c0,2.199-1.283,4.1-3.852,5.699c-2.566,1.533-5.666,2.301-9.299,2.301s-6.734-0.768-9.301-2.301c-2.566-1.6-3.85-3.5-3.85-5.699
			v-16.75c0-3.635,1.283-6.734,3.85-9.301S358.121,64.348,361.753,64.348"/>
		<path fill="#FFCC00" d="M371.904,83.646l0.199,0.051c4.834,1.9,7.184,5.416,7.051,10.551c-0.033,0.432-0.184,0.783-0.451,1.049
			c-0.299,0.301-0.666,0.451-1.1,0.451s-0.801-0.15-1.1-0.451c-0.268-0.334-0.4-0.699-0.4-1.1c0.066-3.367-1.334-5-4.199-4.9V83.646
			 M349.753,89.297c-2.834-0.1-4.232,1.533-4.199,4.9c0,0.4-0.135,0.766-0.4,1.1c-0.301,0.301-0.666,0.451-1.1,0.451
			c-0.4,0-0.768-0.15-1.1-0.451c-0.268-0.266-0.418-0.617-0.451-1.049c-0.1-5.135,2.268-8.65,7.1-10.551l0.15-0.051V89.297"/>
		<path fill="#AD8A00" d="M371.154,84.748c-0.602,0.6-1.301,0.898-2.102,0.898c-0.865,0-1.6-0.299-2.199-0.898
			c-0.6-0.602-0.9-1.301-0.9-2.102l0.051-0.25h6.049v0.25C372.052,83.447,371.753,84.146,371.154,84.748 M360.302,84.748
			c-0.6,0.6-1.299,0.898-2.1,0.898c-0.865,0-1.6-0.299-2.199-0.898c-0.566-0.602-0.85-1.301-0.85-2.102v-0.25h6.1v0.25
			C361.253,83.447,360.937,84.146,360.302,84.748 M367.503,86.998l0.35,0.35v0.449c-0.232,0.566-0.633,1.066-1.199,1.5
			c-0.834,0.701-1.852,1.051-3.051,1.051c-1.232,0-2.283-0.35-3.15-1.051c-0.6-0.434-0.982-0.949-1.15-1.549l0.051-0.451
			c0.066-0.166,0.184-0.266,0.35-0.299l0.5,0.049l0.301,0.35c0.133,0.367,0.383,0.684,0.75,0.951c0.633,0.5,1.416,0.75,2.35,0.75
			c0.9,0,1.666-0.25,2.301-0.75l0.799-1c0.033-0.168,0.135-0.283,0.301-0.35H367.503"/>
		<path fill="#FFFFFF" fill-opacity="0.2" d="M373.703,65.547c3.301,3.301,4.951,7.268,4.951,11.9c0,4.666-1.65,8.65-4.951,11.949
			c-3.332,3.301-7.316,4.951-11.949,4.951s-8.6-1.65-11.9-4.951c-3.332-3.299-5-7.283-5-11.949c0-4.633,1.668-8.6,5-11.9
			c3.301-3.299,7.268-4.949,11.9-4.949S370.371,62.248,373.703,65.547 M368.753,65.348c-1.6,0-2.951,0.566-4.051,1.699
			c-1.166,1.133-1.75,2.484-1.75,4.051c0,1.6,0.584,2.967,1.75,4.1c1.1,1.1,2.451,1.65,4.051,1.65s2.949-0.551,4.049-1.65
			c1.135-1.133,1.701-2.5,1.701-4.1c0-1.566-0.566-2.918-1.701-4.051C371.703,65.914,370.353,65.348,368.753,65.348"/>
		<path fill="#FFFFFF" fill-opacity="0.302" d="M368.753,65.348c1.6,0,2.949,0.566,4.049,1.699c1.135,1.133,1.701,2.484,1.701,4.051
			c0,1.6-0.566,2.967-1.701,4.1c-1.1,1.1-2.449,1.65-4.049,1.65s-2.951-0.551-4.051-1.65c-1.166-1.133-1.75-2.5-1.75-4.1
			c0-1.566,0.584-2.918,1.75-4.051C365.802,65.914,367.154,65.348,368.753,65.348"/>
		<path fill="#FFFFFF" d="M361.753,57.547c5.5,0,10.217,1.951,14.15,5.85c3.865,3.867,5.799,8.551,5.799,14.051
			c0,5.533-1.934,10.25-5.799,14.15c-3.934,3.865-8.65,5.799-14.15,5.799s-10.184-1.934-14.049-5.799
			c-3.934-3.9-5.9-8.617-5.9-14.15c0-5.5,1.967-10.184,5.9-14.051C351.57,59.498,356.253,57.547,361.753,57.547 M373.703,65.547
			c-3.332-3.299-7.316-4.949-11.949-4.949s-8.6,1.65-11.9,4.949c-3.332,3.301-5,7.268-5,11.9c0,4.666,1.668,8.65,5,11.949
			c3.301,3.301,7.268,4.951,11.9,4.951s8.617-1.65,11.949-4.951c3.301-3.299,4.951-7.283,4.951-11.949
			C378.654,72.814,377.003,68.848,373.703,65.547"/>
	</g>
	<g>
		<path fill-opacity="0.0314" d="M403.582,203.221c0,2.799-1.316,5.15-3.951,7.049c-2.633,1.967-5.816,2.951-9.549,2.951
			c-3.768,0-6.967-0.984-9.6-2.951c-2.602-1.898-3.9-4.25-3.9-7.049c0-2.768,1.299-5.135,3.9-7.1c2.633-1.934,5.832-2.9,9.6-2.9
			c3.732,0,6.916,0.967,9.549,2.9C402.265,198.086,403.582,200.454,403.582,203.221"/>
		<path fill="#B08052" d="M386.582,177.821v-15l1,0.199l2.25,0.201h0.25h0.25l3.25-0.4v15l-3.25,0.4h-0.25h-0.25l-2.25-0.201
			L386.582,177.821 M393.582,179.821v2.449l-0.051,0.602l0.051-0.051v9.65l-0.051,0.4l0.051-0.051v9.449
			c-0.033,0.768-0.367,1.451-1,2.051c-0.602,0.533-1.352,0.834-2.25,0.9h-0.25c-0.934,0-1.75-0.301-2.451-0.9
			c-0.666-0.6-1.016-1.283-1.049-2.051v-9.449l0.1,0.051l-0.1-0.451v-9.6l0.1,0.051l-0.1-0.602v-2.449l0.1,0.051l0.9,0.148
			l2.25,0.201h0.25h0.25l3.199-0.35L393.582,179.821"/>
		<path fill="#9F7348" d="M393.582,179.821l-0.051,0.051l-3.199,0.35h-0.25h-0.25l-2.25-0.201l-0.9-0.148l-0.1-0.051v-2l1,0.199
			l2.25,0.201h0.25h0.25l3.25-0.4V179.821 M393.582,192.471v0.35l-0.051,0.051L393.582,192.471 M386.582,192.821v-0.4l0.1,0.451
			L386.582,192.821"/>
		
			<linearGradient id="SVGID_25_" gradientUnits="userSpaceOnUse" x1="-11776.5625" y1="-1114.8364" x2="-10136.5635" y2="-1114.8364" gradientTransform="matrix(0 0.035 0.0528 0 441.4435 529.3007)">
			<stop  offset="0" style="stop-color:#44A166"/>
			<stop  offset="1" style="stop-color:#3A915A"/>
		</linearGradient>
		<path fill="url(#SVGID_25_)" d="M389.88,178.372c-3.934-0.135-7.316-1.635-10.148-4.5c-2.867-2.934-4.352-6.451-4.451-10.551
			v-0.199c0.033-1.5,0.883-5.635,2.551-12.4l8.85-36.5h3.199V178.372"/>
		<path fill="#44A166" d="M389.88,178.372v-64.15h3.201l8.85,36.5c1.6,6.533,2.449,10.6,2.551,12.199v0.4
			c-0.102,4.1-1.584,7.617-4.451,10.551C397.197,176.737,393.814,178.237,389.88,178.372"/>
	</g>
	<linearGradient id="SVGID_26_" gradientUnits="userSpaceOnUse" x1="324.0806" y1="171.5664" x2="327.9619" y2="146.0804">
		<stop  offset="0" style="stop-color:#E9FCFF"/>
		<stop  offset="1" style="stop-color:#C5DEE2"/>
	</linearGradient>
	<path fill="url(#SVGID_26_)" d="M307.77,171.266v-1.891c3.066-1.232,6.016-2.878,8.85-4.94c5.1-4.638,10.199-4.638,15.3,0
		c2.833,2.063,5.784,3.708,8.851,4.94v1.891H307.77"/>
	<g>
		<path fill="#C58F5C" d="M65,350.014c-4.934-1.867-10.2,0.35-15.8,6.649l-0.4,0.399c-3.333,4.234-6.866,6.734-10.6,7.5h-0.4
			l-5.25-0.35v-0.05c-2.533-3.167-5.149-5.351-7.85-6.55c-1.634-0.733-3.3-1.084-5-1.051c-1.134-0.033-2.283,0.117-3.45,0.451
			c-3.333,1.333-6.867,0.732-10.6-1.801l-0.4-0.3c-1.733-1.267-3.483-2.933-5.25-5v-10.9l32.15,16.05L65,339.013V350.014"/>
		<path fill="#BBCBCC" d="M65,350.014v11l-32.45,16.25L0,361.014v-11.101c1.767,2.067,3.517,3.733,5.25,5l0.4,0.3
			c3.733,2.533,7.267,3.134,10.6,1.801c1.167-0.334,2.316-0.484,3.45-0.451c1.7-0.033,3.366,0.317,5,1.051
			c2.7,1.199,5.316,3.383,7.85,6.55v0.05l5.25,0.35h0.4c3.733-0.766,7.267-3.266,10.6-7.5l0.4-0.399
			C54.8,350.364,60.066,348.147,65,350.014"/>
		<path fill="#D6B08D" d="M65,339.013l-32.85,16.05L0,339.013v-2l32.55,16.251L65,337.013V339.013"/>
		<path fill="#CA9A6C" d="M0,337.013v-32.5l32.55-16.25L65,304.513v32.5l-32.45,16.251L0,337.013"/>
		<path fill-opacity="0.102" d="M0,339.013l32.55,16.251v22L0,361.014V339.013"/>
	</g>
	<g>
		<path fill="#C58F5C" d="M97.411,397.439c-4.934-1.867-10.2,0.35-15.8,6.649l-0.4,0.399c-3.333,4.234-6.866,6.734-10.6,7.5h-0.4
			l-5.25-0.35v-0.05c-2.533-3.167-5.149-5.351-7.85-6.55c-1.634-0.733-3.3-1.084-5-1.051c-1.134-0.033-2.283,0.117-3.45,0.451
			c-3.333,1.333-6.867,0.732-10.6-1.801l-0.4-0.3c-1.733-1.267-3.483-2.933-5.25-5v-10.899l32.15,16.049l32.85-16.049V397.439"/>
		<path fill="#BBCBCC" d="M97.411,397.439v11l-32.45,16.25l-32.55-16.25v-11.101c1.767,2.067,3.517,3.733,5.25,5l0.4,0.3
			c3.733,2.533,7.267,3.134,10.6,1.801c1.167-0.334,2.316-0.484,3.45-0.451c1.7-0.033,3.366,0.317,5,1.051
			c2.7,1.199,5.316,3.383,7.85,6.55v0.05l5.25,0.35h0.4c3.733-0.766,7.267-3.266,10.6-7.5l0.4-0.399
			C87.21,397.789,92.477,395.572,97.411,397.439"/>
		<path fill="#D6B08D" d="M97.411,386.439l-32.85,16.049l-32.15-16.049v-2l32.55,16.25l32.45-16.25V386.439"/>
		<path fill="#CA9A6C" d="M32.411,384.439v-32.5l32.55-16.25l32.45,16.25v32.5l-32.45,16.25L32.411,384.439"/>
		<path fill-opacity="0.102" d="M32.411,386.439l32.55,16.25v22l-32.55-16.25V386.439"/>
	</g>
	<g>
		<path fill="#8BE1EB" d="M97.411,403.589v-32.5l32.55-16.25l32.45,16.25v32.5l-32.45,16.25L97.411,403.589 M162.411,405.589v22
			l-32.45,16.25l-32.55-16.25v-22l32.15,16.05L162.411,405.589"/>
		<path fill="#B9EDF3" d="M162.411,405.589l-32.85,16.05l-32.15-16.05v-2l32.55,16.25l32.45-16.25V405.589"/>
		<path fill-opacity="0.102" d="M97.411,405.589l32.55,16.25v22l-32.55-16.25V405.589"/>
	</g>
	
		<linearGradient id="SVGID_27_" gradientUnits="userSpaceOnUse" x1="-2011.2402" y1="376.814" x2="-372.8398" y2="376.814" gradientTransform="matrix(0 -0.0061 -0.006 0 156.6561 353.7753)">
		<stop  offset="0" style="stop-color:#8BE1EB"/>
		<stop  offset="1" style="stop-color:#B9EDF3"/>
	</linearGradient>
	<path fill="url(#SVGID_27_)" d="M126.787,371.814l1.05,0.949c3.967,3.834,9.117,6.35,15.45,7.551v1.5
		c-6.667-0.201-12.167-2.184-16.5-5.951c-4.3,3.768-9.8,5.75-16.5,5.951v-1.5c6.367-1.201,11.517-3.717,15.45-7.551L126.787,371.814
		"/>
	
		<linearGradient id="SVGID_28_" gradientUnits="userSpaceOnUse" x1="-1165.2339" y1="394.9155" x2="-167.4397" y2="394.9155" gradientTransform="matrix(0 -0.0061 -0.006 0 156.6561 353.7753)">
		<stop  offset="0" style="stop-color:#8BE1EB"/>
		<stop  offset="1" style="stop-color:#B9EDF3"/>
	</linearGradient>
	<path fill="url(#SVGID_28_)" d="M136.835,391.871l0.639,0.578c2.416,2.334,5.552,3.867,9.409,4.598v0.914
		c-4.06-0.123-7.409-1.33-10.048-3.625c-2.619,2.295-5.968,3.502-10.049,3.625v-0.914c3.877-0.73,7.014-2.264,9.409-4.598
		L136.835,391.871"/>
</g>
</svg>
