<?xml version="1.0" encoding="utf-8"?>
<!-- Generator: Adobe Illustrator 15.0.0, SVG Export Plug-In . SVG Version: 6.00 Build 0)  -->
<!DOCTYPE svg PUBLIC "-//W3C//DTD SVG 1.1//EN" "http://www.w3.org/Graphics/SVG/1.1/DTD/svg11.dtd">
<svg version="1.1" id="Layer_1" xmlns="http://www.w3.org/2000/svg" xmlns:xlink="http://www.w3.org/1999/xlink" x="0px" y="0px"
	 width="130px" height="242.94px" viewBox="0 0 130 242.94" enable-background="new 0 0 130 242.94" xml:space="preserve">
<g>
	<g>
		<g>
			<path fill="#8DC435" d="M0.006,149.644v-32.5c10.866-5.4,21.717-10.816,32.55-16.25l32.45,16.25v32.5l-32.45,16.25L0.006,149.644
				"/>
			<path fill="#80BE1F" d="M65.006,151.644v11.199l-5.4-4.299l-5.399,9.699l-5.4-4.301l-5.45,9.75l-5.399-4.299l-5.4,9.699
				l-5.4-9.699l-5.399,4.299l-5.45-9.75l-5.4,4.301l-5.399-9.699l-5.5,4.299v-11.199l32.55,16.25L65.006,151.644"/>
			<path fill="#C58F5C" d="M65.006,162.843v10.801l-32.45,16.25l-32.55-16.25v-10.801l5.5-4.299l5.399,9.699l5.4-4.301l5.45,9.75
				l5.399-4.299l5.4,9.699l5.4-9.699l5.399,4.299l5.45-9.75l5.4,4.301l5.399-9.699L65.006,162.843"/>
			<path fill="#A6D162" d="M65.006,149.644v2l-32.45,16.25l-32.55-16.25v-2l32.55,16.25L65.006,149.644"/>
			<path fill-opacity="0.102" d="M0.006,151.644l32.55,16.25v22l-32.55-16.25V151.644"/>
		</g>
		<polygon fill="#7CD8E2" points="54.206,178.948 43.355,184.397 32.556,189.798 21.756,184.397 10.906,178.948 0.006,173.548 
			0.006,174.622 0.006,184.048 0.006,184.347 0.006,185.122 0.006,185.423 0.006,194.847 0.006,195.923 32.556,212.173 
			65.006,195.923 65.006,194.847 65.006,185.423 65.006,185.122 65.006,184.347 65.006,184.048 65.006,174.622 65.006,173.548 		"/>
	</g>
	<g>
		<g>
			<path fill="#8DC435" d="M65.024,149.644v-32.5c10.866-5.4,21.716-10.816,32.55-16.25l32.449,16.25v32.5l-32.449,16.25
				L65.024,149.644"/>
			<path fill="#80BE1F" d="M130.023,151.644v11.199l-5.4-4.299l-5.398,9.699l-5.4-4.301l-5.451,9.75l-5.398-4.299l-5.4,9.699
				l-5.4-9.699l-5.4,4.299l-5.449-9.75l-5.4,4.301l-5.399-9.699l-5.5,4.299v-11.199l32.55,16.25L130.023,151.644"/>
			<path fill="#C58F5C" d="M130.023,162.843v10.801l-32.449,16.25l-32.55-16.25v-10.801l5.5-4.299l5.399,9.699l5.4-4.301l5.449,9.75
				l5.4-4.299l5.4,9.699l5.4-9.699l5.398,4.299l5.451-9.75l5.4,4.301l5.398-9.699L130.023,162.843"/>
			<path fill="#A6D162" d="M130.023,149.644v2l-32.449,16.25l-32.55-16.25v-2l32.55,16.25L130.023,149.644"/>
			<path fill-opacity="0.102" d="M65.024,151.644l32.55,16.25v22l-32.55-16.25V151.644"/>
		</g>
		<polygon fill="#7CD8E2" points="119.225,178.948 108.375,184.397 97.574,189.798 86.773,184.397 75.924,178.948 65.024,173.548 
			65.024,174.622 65.024,184.048 65.024,184.347 65.024,185.122 65.024,185.423 65.024,194.847 65.024,195.923 97.574,212.173 
			130.023,195.923 130.023,194.847 130.023,185.423 130.023,185.122 130.023,184.347 130.023,184.048 130.023,174.622 
			130.023,173.548 		"/>
	</g>
</g>
<g>
	<g>
		<polygon fill="#8DC435" points="0.007,129.046 130.025,129.046 130.025,121.048 0.007,121.095 		"/>
		<polygon fill="#D9D3BF" points="0.007,121.095 130.025,121.048 130.025,113.048 0.007,113.048 		"/>
		<polygon fill="#8DC435" points="0.007,0 0.007,16 130.025,15.907 130.025,0 		"/>
		<polygon fill="#D9D3BF" points="0.007,24.047 130.025,24.047 130.025,16.048 0.007,16.095 		"/>
		<rect x="0.007" y="24.047" fill="#6A6A6A" width="130.019" height="89.001"/>
	</g>
	<g>
		<polyline fill="#FFFFFF" points="0.012,69.626 0.004,67.475 9.295,67.461 9.303,69.626 0.012,69.626 		"/>
		<polyline fill="#FFFFFF" points="37.14,69.626 37.133,67.475 46.424,67.461 46.432,69.626 37.14,69.626 		"/>
		<polyline fill="#FFFFFF" points="111.342,69.626 111.334,67.475 120.627,67.461 120.633,69.626 111.342,69.626 		"/>
		<polyline fill="#FFFFFF" points="92.744,69.626 92.736,67.475 102.029,67.461 102.035,69.626 92.744,69.626 		"/>
		<polyline fill="#FFFFFF" points="74.281,69.626 74.273,67.475 83.564,67.461 83.572,69.626 74.281,69.626 		"/>
		<polyline fill="#FFFFFF" points="55.737,69.626 55.73,67.475 65.021,67.461 65.029,69.626 55.737,69.626 		"/>
		<polyline fill="#FFFFFF" points="18.609,69.626 18.602,67.475 27.893,67.461 27.9,69.626 18.609,69.626 		"/>
	</g>
</g>
<polygon fill="#8BE1EB" points="97.475,211.761 65.024,195.511 32.49,211.753 0.056,195.511 -0.002,195.539 -0.002,242.94 
	130.025,242.94 130.025,195.511 "/>
<rect x="130.025" y="195.511" fill="#8BE1EB" width="0" height="0"/>
</svg>
