<?xml version="1.0" encoding="utf-8"?>
<!-- Generator: Adobe Illustrator 15.0.0, SVG Export Plug-In . SVG Version: 6.00 Build 0)  -->
<!DOCTYPE svg PUBLIC "-//W3C//DTD SVG 1.1//EN" "http://www.w3.org/Graphics/SVG/1.1/DTD/svg11.dtd">
<svg version="1.1" id="Layer_1" xmlns="http://www.w3.org/2000/svg" xmlns:xlink="http://www.w3.org/1999/xlink" x="0px" y="0px"
	 width="90px" height="90px" viewBox="0 0 90 90" enable-background="new 0 0 90 90" xml:space="preserve">
<g>
	<path fill="#FFCC00" d="M74.563,62.186V44.891c0-8.187-2.892-15.169-8.675-20.952c-5.78-5.782-12.762-8.671-20.947-8.671
		c-8.185,0-15.168,2.889-20.95,8.671c-5.783,5.783-8.672,12.766-8.672,20.952V59.84c-1.551,0.739-2.922,1.595-4.211,2.506
		c1.783,3.346,4.114,6.465,7.026,9.349c7.434,7.436,16.369,11.152,26.807,11.152c10.437,0,19.41-3.717,26.919-11.152
		c2.218-2.217,4.063-4.584,5.617-7.076C76.585,63.755,75.636,62.931,74.563,62.186z"/>
	<path fill="#AD8A00" d="M66.116,61.223c-1.353,1.35-2.928,2.025-4.732,2.025c-1.948,0-3.603-0.676-4.954-2.025
		c-1.351-1.354-2.027-2.932-2.027-4.732l0.114-0.563h13.624v0.563C68.141,58.291,67.469,59.869,66.116,61.223 M41.674,61.223
		c-1.351,1.35-2.928,2.025-4.729,2.025c-1.953,0-3.604-0.676-4.957-2.025c-1.275-1.354-1.915-2.932-1.915-4.732v-0.563h13.742v0.563
		C43.815,58.291,43.103,59.869,41.674,61.223 M57.895,66.291l0.789,0.787v1.012c-0.526,1.279-1.427,2.404-2.704,3.381
		c-1.876,1.578-4.17,2.366-6.871,2.366c-2.778,0-5.144-0.788-7.096-2.366c-1.351-0.977-2.215-2.141-2.591-3.489l0.113-1.016
		c0.149-0.376,0.412-0.602,0.789-0.675l1.126,0.111l0.676,0.788c0.3,0.826,0.863,1.54,1.689,2.14
		c1.427,1.127,3.192,1.691,5.293,1.691c2.029,0,3.753-0.564,5.182-1.691l1.801-2.252c0.076-0.377,0.303-0.638,0.678-0.787H57.895"/>
	<path fill="#FFFFFF" fill-opacity="0.2" d="M71.86,17.97c7.435,7.433,11.151,16.369,11.151,26.805
		c0,10.514-3.717,19.488-11.151,26.919c-7.509,7.436-16.482,11.152-26.919,11.152c-10.438,0-19.373-3.717-26.807-11.152
		C10.625,64.263,6.871,55.289,6.871,44.775c0-10.436,3.754-19.372,11.264-26.805c7.434-7.433,16.369-11.151,26.807-11.151
		C55.378,6.819,64.352,10.538,71.86,17.97 M60.711,17.52c-3.605,0-6.647,1.275-9.124,3.83c-2.628,2.552-3.942,5.594-3.942,9.123
		c0,3.604,1.314,6.684,3.942,9.235c2.477,2.479,5.519,3.717,9.124,3.717c3.604,0,6.644-1.238,9.12-3.717
		c2.558-2.551,3.833-5.632,3.833-9.235c0-3.528-1.275-6.57-3.833-9.123C67.354,18.795,64.314,17.52,60.711,17.52"/>
	<path fill="#FFFFFF" fill-opacity="0.302" d="M60.711,17.52c3.604,0,6.644,1.275,9.12,3.83c2.558,2.552,3.833,5.594,3.833,9.123
		c0,3.604-1.275,6.684-3.833,9.235c-2.477,2.479-5.517,3.717-9.12,3.717c-3.605,0-6.647-1.238-9.124-3.717
		c-2.628-2.551-3.942-5.632-3.942-9.235c0-3.528,1.314-6.57,3.942-9.123C54.063,18.795,57.105,17.52,60.711,17.52"/>
	<path fill="#FFFFFF" d="M44.941-0.051c12.391,0,23.016,4.393,31.875,13.177c8.709,8.711,13.065,19.26,13.065,31.649
		c0,12.467-4.356,23.09-13.065,31.877c-8.859,8.71-19.484,13.064-31.875,13.064c-12.39,0-22.94-4.354-31.65-13.064
		C4.43,67.865,0,57.242,0,44.775c0-12.389,4.43-22.938,13.292-31.649C22.001,4.341,32.552-0.051,44.941-0.051 M71.86,17.97
		C64.352,10.538,55.378,6.819,44.941,6.819c-10.438,0-19.373,3.718-26.807,11.151C10.625,25.403,6.871,34.339,6.871,44.775
		c0,10.514,3.754,19.488,11.264,26.919c7.434,7.436,16.369,11.152,26.807,11.152c10.437,0,19.41-3.717,26.919-11.152
		c7.435-7.432,11.151-16.405,11.151-26.919C83.012,34.339,79.295,25.403,71.86,17.97"/>
	<path fill="none" d="M71.86,17.97C64.352,10.538,55.378,6.819,44.941,6.819c-10.438,0-19.373,3.718-26.807,11.151
		C10.625,25.403,6.871,34.339,6.871,44.775c0,6.437,1.423,12.29,4.237,17.571c1.289-0.911,2.66-1.767,4.211-2.506V44.891
		c0-8.187,2.89-15.169,8.672-20.952c5.781-5.782,12.765-8.671,20.95-8.671c8.186,0,15.167,2.889,20.947,8.671
		c5.783,5.783,8.675,12.766,8.675,20.952v17.295c1.072,0.745,2.021,1.569,2.914,2.433c3.662-5.863,5.534-12.464,5.534-19.843
		C83.012,34.339,79.295,25.403,71.86,17.97z"/>
	<path fill="#FFFFFF" d="M10.865,74.018c0.778,0.89,1.563,1.776,2.426,2.635c0.658,0.658,1.348,1.242,2.028,1.851v-6.85
		C13.446,71.973,11.974,72.774,10.865,74.018z"/>
	<path fill="#FFFFFF" d="M74.563,78.678c0.654-0.572,1.313-1.138,1.952-1.756c-0.454-1.318-1.092-2.424-1.952-3.264V78.678z"/>
</g>
</svg>
