<?xml version="1.0" encoding="utf-8"?>
<!-- Generator: Adobe Illustrator 15.0.0, SVG Export Plug-In . SVG Version: 6.00 Build 0)  -->
<!DOCTYPE svg PUBLIC "-//W3C//DTD SVG 1.1//EN" "http://www.w3.org/Graphics/SVG/1.1/DTD/svg11.dtd">
<svg version="1.1" id="Layer_1" xmlns="http://www.w3.org/2000/svg" xmlns:xlink="http://www.w3.org/1999/xlink" x="0px" y="0px"
	 width="90px" height="90px" viewBox="0 0 90 90" enable-background="new 0 0 90 90" xml:space="preserve">
<g display="none">
	<path display="inline" fill="#FFCC00" d="M74.563,62.186V44.891c0-8.187-2.892-15.169-8.675-20.952
		c-5.78-5.782-12.762-8.671-20.947-8.671c-8.185,0-15.168,2.889-20.95,8.671c-5.783,5.783-8.672,12.766-8.672,20.952V59.84
		c-1.551,0.739-2.922,1.595-4.211,2.506c1.783,3.346,4.114,6.465,7.026,9.349c7.434,7.436,16.369,11.152,26.807,11.152
		c10.437,0,19.41-3.717,26.919-11.152c2.218-2.217,4.063-4.584,5.617-7.076C76.585,63.755,75.636,62.931,74.563,62.186z"/>
	<path display="inline" fill="#AD8A00" d="M66.116,61.223c-1.353,1.35-2.928,2.025-4.732,2.025c-1.948,0-3.603-0.676-4.954-2.025
		c-1.351-1.354-2.027-2.932-2.027-4.732l0.114-0.563h13.624v0.563C68.141,58.291,67.469,59.869,66.116,61.223 M41.674,61.223
		c-1.351,1.35-2.928,2.025-4.729,2.025c-1.953,0-3.604-0.676-4.957-2.025c-1.275-1.354-1.915-2.932-1.915-4.732v-0.563h13.742v0.563
		C43.815,58.291,43.103,59.869,41.674,61.223 M57.895,66.291l0.789,0.787v1.012c-0.526,1.279-1.427,2.404-2.704,3.381
		c-1.876,1.578-4.17,2.366-6.871,2.366c-2.778,0-5.144-0.788-7.096-2.366c-1.351-0.977-2.215-2.141-2.591-3.489l0.113-1.016
		c0.149-0.376,0.412-0.602,0.789-0.675l1.126,0.111l0.676,0.788c0.3,0.826,0.863,1.54,1.689,2.14
		c1.427,1.127,3.192,1.691,5.293,1.691c2.029,0,3.753-0.564,5.182-1.691l1.801-2.252c0.076-0.377,0.303-0.638,0.678-0.787H57.895"/>
	<path display="inline" fill="#FFFFFF" fill-opacity="0.2" d="M71.86,17.97c7.435,7.433,11.151,16.369,11.151,26.805
		c0,10.514-3.717,19.488-11.151,26.919c-7.509,7.436-16.482,11.152-26.919,11.152c-10.438,0-19.373-3.717-26.807-11.152
		C10.625,64.263,6.871,55.289,6.871,44.775c0-10.436,3.754-19.372,11.264-26.805c7.434-7.433,16.369-11.151,26.807-11.151
		C55.378,6.819,64.352,10.538,71.86,17.97 M60.711,17.52c-3.605,0-6.647,1.275-9.124,3.83c-2.628,2.552-3.942,5.594-3.942,9.123
		c0,3.604,1.314,6.684,3.942,9.235c2.477,2.479,5.519,3.717,9.124,3.717c3.604,0,6.644-1.238,9.12-3.717
		c2.558-2.551,3.833-5.632,3.833-9.235c0-3.528-1.275-6.57-3.833-9.123C67.354,18.795,64.314,17.52,60.711,17.52"/>
	<path display="inline" fill="#FFFFFF" fill-opacity="0.302" d="M60.711,17.52c3.604,0,6.644,1.275,9.12,3.83
		c2.558,2.552,3.833,5.594,3.833,9.123c0,3.604-1.275,6.684-3.833,9.235c-2.477,2.479-5.517,3.717-9.12,3.717
		c-3.605,0-6.647-1.238-9.124-3.717c-2.628-2.551-3.942-5.632-3.942-9.235c0-3.528,1.314-6.57,3.942-9.123
		C54.063,18.795,57.105,17.52,60.711,17.52"/>
	<path display="inline" fill="#FFFFFF" d="M44.941-0.051c12.391,0,23.016,4.393,31.875,13.177
		c8.709,8.711,13.065,19.26,13.065,31.649c0,12.467-4.356,23.09-13.065,31.877c-8.859,8.71-19.484,13.064-31.875,13.064
		c-12.39,0-22.94-4.354-31.65-13.064C4.43,67.865,0,57.242,0,44.775c0-12.389,4.43-22.938,13.292-31.649
		C22.001,4.341,32.552-0.051,44.941-0.051 M71.86,17.97C64.352,10.538,55.378,6.819,44.941,6.819
		c-10.438,0-19.373,3.718-26.807,11.151C10.625,25.403,6.871,34.339,6.871,44.775c0,10.514,3.754,19.488,11.264,26.919
		c7.434,7.436,16.369,11.152,26.807,11.152c10.437,0,19.41-3.717,26.919-11.152c7.435-7.432,11.151-16.405,11.151-26.919
		C83.012,34.339,79.295,25.403,71.86,17.97"/>
	<path display="inline" fill="none" d="M71.86,17.97C64.352,10.538,55.378,6.819,44.941,6.819c-10.438,0-19.373,3.718-26.807,11.151
		C10.625,25.403,6.871,34.339,6.871,44.775c0,6.437,1.423,12.29,4.237,17.571c1.289-0.911,2.66-1.767,4.211-2.506V44.891
		c0-8.187,2.89-15.169,8.672-20.952c5.781-5.782,12.765-8.671,20.95-8.671c8.186,0,15.167,2.889,20.947,8.671
		c5.783,5.783,8.675,12.766,8.675,20.952v17.295c1.072,0.745,2.021,1.569,2.914,2.433c3.662-5.863,5.534-12.464,5.534-19.843
		C83.012,34.339,79.295,25.403,71.86,17.97z"/>
	<path display="inline" fill="#FFFFFF" d="M10.865,74.018c0.778,0.89,1.563,1.776,2.426,2.635c0.658,0.658,1.348,1.242,2.028,1.851
		v-6.85C13.446,71.973,11.974,72.774,10.865,74.018z"/>
	<path display="inline" fill="#FFFFFF" d="M74.563,78.678c0.654-0.572,1.313-1.138,1.952-1.756
		c-0.454-1.318-1.092-2.424-1.952-3.264V78.678z"/>
</g>
<g>
	<path fill="#6FC4A9" d="M65.779,19.792c-5.771-5.774-12.744-8.66-20.915-8.66s-15.142,2.886-20.914,8.66
		c-5.772,5.771-8.658,12.742-8.658,20.913v27.837c0.873,1.055,1.802,2.087,2.811,3.087c7.421,7.42,16.342,11.131,26.761,11.131
		c10.419,0,19.38-3.711,26.875-11.131c0.963-0.965,1.859-1.957,2.699-2.975V40.705C74.439,32.534,71.554,25.563,65.779,19.792z"/>
	<path fill="#FFFFFF" fill-opacity="0.2" d="M18.104,17.991c7.421-7.421,16.342-11.13,26.761-11.13
		c10.419,0,19.38,3.709,26.875,11.13c7.421,7.423,11.132,16.342,11.132,26.763c0,10.496-3.711,19.454-11.132,26.875
		c-7.495,7.42-16.456,11.131-26.875,11.131c-10.419,0-19.34-3.711-26.761-11.131C10.607,64.207,6.86,55.249,6.86,44.753
		C6.86,34.333,10.607,25.414,18.104,17.991 M69.714,21.365c-2.473-2.548-5.509-3.822-9.106-3.822c-3.597,0-6.635,1.274-9.108,3.822
		c-2.624,2.549-3.935,5.622-3.935,9.221c0,3.522,1.311,6.558,3.935,9.107c2.474,2.55,5.512,3.824,9.108,3.824
		c3.598,0,6.634-1.274,9.106-3.824c2.551-2.549,3.825-5.584,3.825-9.107C73.539,26.986,72.265,23.914,69.714,21.365"/>
	<path fill="#347E67" d="M63.98,63.194c-1.949,0-3.597-0.674-4.947-2.024c-1.274-1.273-1.91-2.85-1.91-4.722
		c0-1.798,0.636-3.411,1.91-4.837c1.351-1.272,2.998-1.91,4.947-1.91c1.876,0,3.448,0.638,4.722,1.91
		c1.426,1.426,2.139,3.039,2.139,4.837c0,1.872-0.713,3.448-2.139,4.722C67.429,62.521,65.856,63.194,63.98,63.194 M61.395,68.144
		l-2.697,3.373c-1.951,1.497-4.273,2.249-6.974,2.249c-2.772,0-5.097-0.752-6.971-2.249c-1.424-1.051-2.288-2.249-2.587-3.601
		c-0.149-0.298-0.112-0.636,0.113-1.013l0.674-0.674l1.237,0.112l0.563,0.788c0.3,0.824,0.862,1.576,1.688,2.25
		c1.424,1.049,3.186,1.574,5.283,1.574c2.025,0,3.786-0.525,5.287-1.574l1.799-2.362l0.674-0.676c0.373-0.225,0.711-0.225,1.013,0
		l0.898,0.676V68.144 M39.581,63.194c-1.874,0-3.523-0.674-4.948-2.024c-1.275-1.273-1.911-2.85-1.911-4.722
		c0-1.798,0.636-3.411,1.911-4.837c1.425-1.272,3.074-1.91,4.948-1.91c1.874,0,3.486,0.638,4.834,1.91
		c1.351,1.426,2.026,3.039,2.026,4.837c0,1.872-0.675,3.448-2.026,4.722C43.066,62.521,41.454,63.194,39.581,63.194"/>
	<path fill="#FFFFFF" d="M0,44.753c0-12.369,4.423-22.902,13.269-31.596C21.964,4.386,32.497,0,44.865,0
		c12.371,0,22.978,4.386,31.823,13.157c8.695,8.694,13.044,19.227,13.044,31.596c0,12.443-4.349,23.05-13.044,31.823
		c-8.845,8.694-19.452,13.043-31.823,13.043c-12.368,0-22.9-4.349-31.596-13.043C4.423,67.804,0,57.196,0,44.753 M18.104,17.991
		C10.607,25.414,6.86,34.333,6.86,44.753c0,10.496,3.748,19.454,11.244,26.875c7.421,7.42,16.342,11.131,26.761,11.131
		c10.419,0,19.38-3.711,26.875-11.131c7.421-7.422,11.132-16.38,11.132-26.875c0-10.421-3.711-19.34-11.132-26.763
		c-7.495-7.421-16.456-11.13-26.875-11.13C34.446,6.861,25.525,10.57,18.104,17.991"/>
	<path fill="none" d="M71.74,17.991c-7.495-7.421-16.456-11.13-26.875-11.13c-10.419,0-19.34,3.709-26.761,11.13
		C10.607,25.414,6.86,34.333,6.86,44.753c0,9.083,2.818,17.01,8.433,23.789V40.705c0-8.171,2.886-15.142,8.658-20.913
		c5.771-5.774,12.743-8.66,20.914-8.66s15.144,2.886,20.915,8.66c5.774,5.771,8.66,12.742,8.66,20.913v27.949
		c5.618-6.803,8.433-14.769,8.433-23.901C82.872,34.333,79.161,25.414,71.74,17.991z"/>
	<path fill="#FFFFFF" fill-opacity="0.302" d="M69.714,21.365c2.551,2.549,3.825,5.622,3.825,9.221c0,3.522-1.274,6.558-3.825,9.107
		c-2.473,2.55-5.509,3.824-9.106,3.824c-3.597,0-6.635-1.274-9.108-3.824c-2.624-2.549-3.935-5.584-3.935-9.107
		c0-3.6,1.311-6.672,3.935-9.221c2.474-2.548,5.512-3.822,9.108-3.822C64.205,17.542,67.241,18.816,69.714,21.365"/>
</g>
</svg>
