<?xml version="1.0" encoding="utf-8"?>
<!-- Generator: Adobe Illustrator 15.0.0, SVG Export Plug-In . SVG Version: 6.00 Build 0)  -->
<!DOCTYPE svg PUBLIC "-//W3C//DTD SVG 1.1//EN" "http://www.w3.org/Graphics/SVG/1.1/DTD/svg11.dtd">
<svg version="1.1" id="Layer_1" xmlns="http://www.w3.org/2000/svg" xmlns:xlink="http://www.w3.org/1999/xlink" x="0px" y="0px"
	 width="478.84px" height="437.94px" viewBox="0 0 478.84 437.94" enable-background="new 0 0 478.84 437.94" xml:space="preserve">
<g>
	<path fill="#8DCDD8" d="M452.142,218.968c0,120.125-97.382,217.51-217.509,217.51c-120.125,0-217.507-97.385-217.507-217.51
		c0-120.126,97.381-217.506,217.507-217.506C354.76,1.462,452.142,98.842,452.142,218.968"/>
	<path fill="#1499AF" d="M435.711,218.968c0,111.051-90.027,201.075-201.078,201.075c-111.052,0-201.075-90.023-201.075-201.075
		c0-111.05,90.023-201.077,201.075-201.077C345.684,17.891,435.711,107.918,435.711,218.968"/>
	<g>
		<defs>
			<path id="SVGID_1_" d="M33.556,218.968c0,111.051,90.025,201.077,201.077,201.077c111.051,0,201.078-90.025,201.078-201.077
				c0-111.05-90.027-201.076-201.078-201.076C123.581,17.892,33.556,107.918,33.556,218.968"/>
		</defs>
		<clipPath id="SVGID_2_">
			<use xlink:href="#SVGID_1_"  overflow="visible"/>
		</clipPath>
		<path clip-path="url(#SVGID_2_)" fill="#7CC918" d="M77.932,146.209c0,0,6.13,2.454,4.496,7.77
			c-1.636,5.314,4.496,23.308,10.221,22.896c5.724-0.409,17.174-13.083,24.532-5.722c0,0,13.493,11.039,20.446,12.266
			c6.95,1.229,26.169,8.176,32.712,22.488c6.54,14.314,4.087,20.856,10.63,23.717c6.542,2.861,37.209,14.313,30.259,26.17
			c-6.952,11.855-12.267,11.445-14.721,20.033c-2.454,8.588-12.677,24.533-22.081,24.533c-9.403,0-14.311,2.047-19.216,10.631
			c-4.906,8.588-13.087,23.719-21.672,27.398c-8.587,3.68-17.173,8.998-17.173,21.672c0,12.672,0,28.215-4.499,23.305
			c-4.498-4.906-16.763-15.537-15.945-29.85c0.816-14.311,8.177-65.012,3.27-68.693c-4.905-3.678-6.542-12.971-6.542-19.57
			c0-6.598-6.543-13.141-12.267-16.822c-5.725-3.678-11.447-30.257-2.45-40.887c8.992-10.632,11.447-25.76,4.496-27.807
			c-6.952-2.041-16.358-13.491-16.358-20.85c0-7.361-0.408-12.27-5.724-12.679c-5.314-0.407-15.537-24.94-15.537-32.71
			c0-7.769,32.711-59.29,32.711-59.29L212.863,3.917c0,0,10.63,22.897,6.544,24.942c-4.091,2.046-7.364,11.448-13.494,5.724
			c-6.134-5.724-7.771-4.088-12.676-2.451c-4.907,1.635-7.77,4.088-8.996,2.042c-1.225-2.042-5.724-2.861-10.223-0.407
			c-4.496,2.453-17.174,29.848-6.133,25.76c11.039-4.089,17.174-16.356,22.082-11.043c4.906,5.318,8.587-9.401,13.495-3.269
			c4.905,6.132-3.682,11.449,0.816,13.493c4.497,2.045,7.358,6.133,4.497,11.039c-2.861,4.907-5.723,9.814-8.995,6.544
			c-3.271-3.271-11.039-6.951-13.085-2.454c-2.045,4.497-1.635,5.316-8.585,5.316c-6.953,0-12.676-2.047-15.54,0
			c-2.861,2.045-10.63,12.674-17.581,11.039c-6.95-1.634-7.769-3.68-9.812-0.817c-2.046,2.863-13.085,5.314-13.085,10.222
			c0,4.905-2.046,29.441-7.36,24.123c-5.316-5.314-6.542-22.078-15.948-21.671c-9.403,0.41-35.167,4.089-29.439,30.258
			c0,0,0.818,5.315,6.542,3.272c5.723-2.046,12.265-0.818,11.447,2.862C86.518,142.122,77.932,146.209,77.932,146.209"/>
		<path clip-path="url(#SVGID_2_)" fill="#7CC918" d="M338.801,50.531c0,0-20.853-2.047-21.262,4.907
			c-0.409,6.95,3.271,17.583,6.951,17.583c3.681,0,10.223-3.274,8.996,0c-1.226,3.27,0,7.768,5.314,7.768
			c5.317,0,5.725-1.228,5.317,2.453c-0.409,3.68-3.038,5.725,0.116,8.996c3.153,3.272,2.161,3.272,0,6.132
			c-2.161,2.862-7.425,11.448-12.358,11.448c-4.932,0-21.695-2.041-20.47,4.09c1.227,6.135,9.016,22.08,17.388,21.671
			c8.373-0.408,12.461,3.682,14.915-2.454c2.452-6.131,4.904-20.443,9.813-18.398c4.906,2.043,8.587,10.63,8.587,16.355
			c0,5.725,4.908,9.405,8.18,2.454c3.269-6.95,3.678-11.041,10.632-5.724c6.947,5.313,35.571,29.03,26.577,31.484
			c-8.997,2.452-17.585,6.133-20.856,0c-3.269-6.134-13.084-15.947-20.035-15.538c-6.951,0.407-8.178,2.045-15.129-0.409
			c-6.951-2.453-13.493-6.542-15.128-4.088c-1.636,2.452-2.455,5.723-7.769,6.133c-5.315,0.409-17.992,6.54-19.219,11.448
			c-1.226,4.906-19.218,8.587-16.766,14.719c2.456,6.135,0,19.738-1.632,26.226c-1.638,6.485-2.456,25.297,11.855,35.518
			c14.311,10.223,19.628,11.449,30.667,10.223s13.949-4.537,16.175,0.389s7.132,8.195,9.586,4.926
			c2.454-3.271,4.906-3.502,4.906,1.316c0,4.816-12.267,21.994-9.403,31.396c2.859,9.402,11.448,16.766,6.951,23.309
			c-4.499,6.539-20.854,17.58-19.221,27.396c1.638,9.813,6.133,11.443,4.907,17.172c-1.227,5.723-23.307,31.482-9.404,38.025
			C351.887,394,458.608,259.066,458.608,259.066L419.356,89.373L338.801,50.531z"/>
		<path clip-path="url(#SVGID_2_)" fill="#77BA2A" d="M225.949,11.277c0,0,5.723,6.95,3.271,11.039
			c-2.454,4.09-6.954,11.039-3.271,24.943c3.678,13.902,8.175,18.808,12.267,12.676c4.086-6.136,7.769-20.034,16.354-20.446
			c8.587-0.409,41.298-6.117,41.298-14.311S225.949,11.277,225.949,11.277"/>
	</g>
	<path fill="#F4F4F4" d="M375.542,218.968h101.696c0,0-5.734-20.864-18.773-20.864c0,0-3.91-26.987-26.987-26.987
		c-23.079,0-27.25,23.926-27.25,23.926s-13.041-0.066-13.041,11.929C391.187,206.973,375.542,207.495,375.542,218.968"/>
	<path fill="#F4F4F4" d="M322.738,254.059h61.021c0,0,2.177-26.076-25.834-26.076c-22.426,0-21.626,13.039-21.626,13.039
		S322.738,238.412,322.738,254.059"/>
	<path fill="#F4F4F4" d="M74.814,330.43H1.602c0,0,2.185-17.486,16.39-17.486c0,0-0.547-22.672,22.676-22.672
		C78.093,290.271,74.814,330.43,74.814,330.43"/>
	<path fill="#F4F4F4" d="M56.361,265.906h88.571c0,0-4.997-18.166-16.352-18.166c0,0-3.406-23.506-23.505-23.506
		c-20.098,0-23.734,20.838-23.734,20.838s-11.353-0.059-11.353,10.389C69.989,255.461,56.361,255.914,56.361,265.906"/>
	<path fill="#F4F4F4" d="M275.223,115.554h-81.181c0,0,1.999-19.424,22.625-14.764c0,0-0.763-15.02,15.145-15.02
		c16.71,0,15.465,14.75,15.465,14.75S275.223,91.728,275.223,115.554"/>
</g>
</svg>
